<svg xmlns="http://www.w3.org/2000/svg" xmlns:xlink="http://www.w3.org/1999/xlink" width="1280" zoomAndPan="magnify" viewBox="0 0 960 540.000001" height="720" preserveAspectRatio="xMidYMid meet" version="1.0"><defs><g/><clipPath id="c0884acdd7"><path d="M 0.886719 0 L 959.113281 0 L 959.113281 539 L 0.886719 539 Z M 0.886719 0 " clip-rule="nonzero"/></clipPath><clipPath id="cf503181ca"><path d="M 14.332031 263.78125 L 117.972656 263.78125 L 117.972656 274.957031 L 14.332031 274.957031 Z M 14.332031 263.78125 " clip-rule="nonzero"/></clipPath><clipPath id="7e0b55c4d8"><path d="M 842.015625 263.78125 L 945.660156 263.78125 L 945.660156 274.957031 L 842.015625 274.957031 Z M 842.015625 263.78125 " clip-rule="nonzero"/></clipPath><clipPath id="903354e759"><path d="M 81 18 L 176 18 L 176 83 L 81 83 Z M 81 18 " clip-rule="nonzero"/></clipPath><clipPath id="548bfe14ed"><path d="M 169.8125 82.742188 L 81.839844 27.949219 L 87.746094 18.464844 L 175.722656 73.253906 Z M 169.8125 82.742188 " clip-rule="nonzero"/></clipPath><clipPath id="37c4b36400"><path d="M 784 456 L 879 456 L 879 521 L 784 521 Z M 784 456 " clip-rule="nonzero"/></clipPath><clipPath id="acb392402f"><path d="M 872.378906 520.3125 L 784.402344 465.519531 L 790.3125 456.035156 L 878.285156 510.828125 Z M 872.378906 520.3125 " clip-rule="nonzero"/></clipPath><clipPath id="b62de46ca8"><path d="M 71 441 L 167 441 L 167 503 L 71 503 Z M 71 441 " clip-rule="nonzero"/></clipPath><clipPath id="d6e47c270b"><path d="M 166.902344 451.328125 L 76.503906 502.019531 L 71.035156 492.273438 L 161.433594 441.582031 Z M 166.902344 451.328125 " clip-rule="nonzero"/></clipPath><clipPath id="8ca60ef2a4"><path d="M 792 36 L 889 36 L 889 98 L 792 98 Z M 792 36 " clip-rule="nonzero"/></clipPath><clipPath id="593dfc76e2"><path d="M 888.828125 46.503906 L 798.429688 97.195312 L 792.964844 87.445312 L 883.363281 36.753906 Z M 888.828125 46.503906 " clip-rule="nonzero"/></clipPath></defs><g clip-path="url(#c0884acdd7)"><path fill="#ffffff" d="M 0.886719 0 L 959.113281 0 L 959.113281 539 L 0.886719 539 Z M 0.886719 0 " fill-opacity="1" fill-rule="nonzero"/><path fill="#315f92" d="M 0.886719 0 L 959.113281 0 L 959.113281 539 L 0.886719 539 Z M 0.886719 0 " fill-opacity="1" fill-rule="nonzero"/></g><g clip-path="url(#cf503181ca)"><path fill="#38b6ff" d="M 117.972656 306.617188 L 14.378906 306.617188 L 14.378906 232.121094 L 117.972656 232.121094 Z M 117.972656 306.617188 " fill-opacity="1" fill-rule="nonzero"/></g><g clip-path="url(#7e0b55c4d8)"><path fill="#38b6ff" d="M 945.660156 306.617188 L 842.0625 306.617188 L 842.0625 232.121094 L 945.660156 232.121094 Z M 945.660156 306.617188 " fill-opacity="1" fill-rule="nonzero"/></g><g clip-path="url(#903354e759)"><g clip-path="url(#548bfe14ed)"><path fill="#ffbd59" d="M 153.074219 109.613281 L 65.140625 54.847656 L 104.523438 -8.386719 L 192.460938 46.378906 Z M 153.074219 109.613281 " fill-opacity="1" fill-rule="nonzero"/></g></g><g clip-path="url(#37c4b36400)"><g clip-path="url(#acb392402f)"><path fill="#ffbd59" d="M 855.640625 547.1875 L 767.703125 492.417969 L 807.085938 429.183594 L 895.023438 483.953125 Z M 855.640625 547.1875 " fill-opacity="1" fill-rule="nonzero"/></g></g><g clip-path="url(#b62de46ca8)"><g clip-path="url(#d6e47c270b)"><path fill="#ffbd59" d="M 182.386719 478.941406 L 92.027344 529.609375 L 55.589844 464.632812 L 145.949219 413.964844 Z M 182.386719 478.941406 " fill-opacity="1" fill-rule="nonzero"/></g></g><g clip-path="url(#8ca60ef2a4)"><g clip-path="url(#593dfc76e2)"><path fill="#ffbd59" d="M 904.3125 74.117188 L 813.957031 124.785156 L 777.519531 59.808594 L 867.878906 9.140625 Z M 904.3125 74.117188 " fill-opacity="1" fill-rule="nonzero"/></g></g><g fill="#fbde8a" fill-opacity="1"><g transform="translate(214.19392, 344.510579)"><g><path d="M -0.34375 -98.71875 C 3.414062 -94.039062 5.679688 -88.859375 6.453125 -83.171875 C 7.234375 -77.492188 6.734375 -71.8125 4.953125 -66.125 C 7.304688 -67.351562 9.625 -68.070312 11.90625 -68.28125 C 14.195312 -68.5 16.40625 -68.289062 18.53125 -67.65625 C 20.65625 -67.03125 22.691406 -66.019531 24.640625 -64.625 C 26.585938 -63.238281 28.351562 -61.5625 29.9375 -59.59375 C 33.039062 -55.726562 34.851562 -51.632812 35.375 -47.3125 C 35.90625 -42.988281 35.5 -38.742188 34.15625 -34.578125 C 32.8125 -30.421875 30.757812 -26.484375 28 -22.765625 C 25.25 -19.046875 22.144531 -15.796875 18.6875 -13.015625 C 16.789062 -11.492188 14.78125 -10.101562 12.65625 -8.84375 C 10.539062 -7.582031 8.363281 -6.609375 6.125 -5.921875 C 5.351562 -5.628906 4.175781 -6.050781 2.59375 -7.1875 C 1.019531 -8.320312 -0.726562 -9.84375 -2.65625 -11.75 C -4.59375 -13.664062 -6.609375 -15.789062 -8.703125 -18.125 C -10.804688 -20.457031 -12.789062 -22.710938 -14.65625 -24.890625 C -16.519531 -27.066406 -18.132812 -29.003906 -19.5 -30.703125 C -20.863281 -32.398438 -21.816406 -33.585938 -22.359375 -34.265625 C -24.273438 -36.640625 -26.203125 -39.03125 -28.140625 -41.4375 C -30.078125 -43.84375 -31.929688 -46.289062 -33.703125 -48.78125 C -34.191406 -49.382812 -34.9375 -50.34375 -35.9375 -51.65625 C -36.945312 -52.976562 -38.070312 -54.445312 -39.3125 -56.0625 C -40.5625 -57.675781 -41.84375 -59.40625 -43.15625 -61.25 C -44.476562 -63.101562 -45.664062 -64.859375 -46.71875 -66.515625 C -47.78125 -68.179688 -48.59375 -69.675781 -49.15625 -71 C -49.726562 -72.332031 -49.914062 -73.300781 -49.71875 -73.90625 C -48.976562 -76.175781 -48.03125 -78.53125 -46.875 -80.96875 C -45.71875 -83.40625 -44.390625 -85.785156 -42.890625 -88.109375 C -41.398438 -90.429688 -39.800781 -92.613281 -38.09375 -94.65625 C -36.394531 -96.695312 -34.632812 -98.453125 -32.8125 -99.921875 C -30.300781 -101.929688 -27.585938 -103.519531 -24.671875 -104.6875 C -21.753906 -105.863281 -18.859375 -106.4375 -15.984375 -106.40625 C -13.109375 -106.375 -10.316406 -105.742188 -7.609375 -104.515625 C -4.898438 -103.296875 -2.476562 -101.363281 -0.34375 -98.71875 Z M -12.890625 -79.75 C -13.816406 -80.894531 -14.851562 -81.453125 -16 -81.421875 C -17.15625 -81.398438 -18.304688 -80.925781 -19.453125 -80 C -20.398438 -79.238281 -21.234375 -78.234375 -21.953125 -76.984375 C -22.679688 -75.734375 -23.144531 -74.46875 -23.34375 -73.1875 C -23.382812 -72.8125 -23.109375 -72.082031 -22.515625 -71 C -21.921875 -69.914062 -21.195312 -68.738281 -20.34375 -67.46875 C -19.5 -66.195312 -18.671875 -65.019531 -17.859375 -63.9375 C -17.046875 -62.863281 -16.5 -62.160156 -16.21875 -61.828125 C -16.113281 -61.679688 -15.9375 -61.457031 -15.6875 -61.15625 C -15.445312 -60.851562 -15.175781 -60.546875 -14.875 -60.234375 C -14.570312 -59.921875 -14.273438 -59.65625 -13.984375 -59.4375 C -13.691406 -59.226562 -13.484375 -59.175781 -13.359375 -59.28125 C -12.203125 -60.207031 -11.351562 -61.585938 -10.8125 -63.421875 C -10.28125 -65.253906 -10.023438 -67.191406 -10.046875 -69.234375 C -10.066406 -71.273438 -10.328125 -73.265625 -10.828125 -75.203125 C -11.328125 -77.148438 -12.015625 -78.664062 -12.890625 -79.75 Z M 10.34375 -50.03125 C 9.414062 -51.175781 8.351562 -51.660156 7.15625 -51.484375 C 5.957031 -51.304688 4.851562 -50.8125 3.84375 -50 C 2.894531 -49.238281 2.070312 -48.210938 1.375 -46.921875 C 0.675781 -45.628906 0.234375 -44.40625 0.046875 -43.25 C -0.0546875 -42.957031 0.0546875 -42.492188 0.390625 -41.859375 C 0.734375 -41.234375 1.144531 -40.582031 1.625 -39.90625 C 2.113281 -39.238281 2.570312 -38.601562 3 -38 C 3.4375 -37.40625 3.738281 -37.003906 3.90625 -36.796875 C 4.007812 -36.660156 4.222656 -36.390625 4.546875 -35.984375 C 4.878906 -35.578125 5.238281 -35.164062 5.625 -34.75 C 6.007812 -34.34375 6.398438 -33.992188 6.796875 -33.703125 C 7.203125 -33.410156 7.472656 -33.320312 7.609375 -33.4375 C 8.554688 -34.195312 9.390625 -35.3125 10.109375 -36.78125 C 10.835938 -38.25 11.363281 -39.785156 11.6875 -41.390625 C 12.007812 -43.003906 12.070312 -44.59375 11.875 -46.15625 C 11.675781 -47.71875 11.164062 -49.007812 10.34375 -50.03125 Z M 10.34375 -50.03125 "/></g></g></g><g fill="#fbde8a" fill-opacity="1"><g transform="translate(260.623889, 307.959455)"><g><path d="M -27.671875 -90.453125 C -27.015625 -89.429688 -26.703125 -88.34375 -26.734375 -87.1875 C -26.765625 -86.03125 -27.019531 -84.851562 -27.5 -83.65625 C -27.988281 -82.46875 -28.640625 -81.378906 -29.453125 -80.390625 C -30.273438 -79.410156 -31.125 -78.640625 -32 -78.078125 C -33.457031 -77.140625 -34.972656 -76.6875 -36.546875 -76.71875 C -38.117188 -76.75 -39.394531 -77.53125 -40.375 -79.0625 C -41.082031 -80.164062 -41.425781 -81.316406 -41.40625 -82.515625 C -41.394531 -83.710938 -41.164062 -84.84375 -40.71875 -85.90625 C -40.269531 -86.96875 -39.625 -87.972656 -38.78125 -88.921875 C -37.945312 -89.878906 -37.050781 -90.660156 -36.09375 -91.265625 C -34.695312 -92.160156 -33.203125 -92.648438 -31.609375 -92.734375 C -30.015625 -92.828125 -28.703125 -92.066406 -27.671875 -90.453125 Z M -2.859375 -53.640625 C -2.203125 -52.617188 -1.507812 -51.539062 -0.78125 -50.40625 C -0.0507812 -49.269531 0.597656 -48.160156 1.171875 -47.078125 C 1.890625 -45.785156 2.914062 -44.09375 4.25 -42 C 5.59375 -39.914062 6.960938 -37.617188 8.359375 -35.109375 C 9.765625 -32.597656 11.097656 -29.988281 12.359375 -27.28125 C 13.617188 -24.570312 14.539062 -21.957031 15.125 -19.4375 C 15.71875 -16.914062 15.816406 -14.628906 15.421875 -12.578125 C 15.035156 -10.523438 13.945312 -8.875 12.15625 -7.625 C 10.8125 -6.664062 9.285156 -6.46875 7.578125 -7.03125 C 5.878906 -7.59375 4.117188 -8.609375 2.296875 -10.078125 C 0.484375 -11.546875 -1.304688 -13.335938 -3.078125 -15.453125 C -4.847656 -17.578125 -6.492188 -19.675781 -8.015625 -21.75 C -9.546875 -23.820312 -10.894531 -25.769531 -12.0625 -27.59375 C -13.238281 -29.425781 -14.109375 -30.785156 -14.671875 -31.671875 C -15.421875 -32.835938 -16.488281 -34.5 -17.875 -36.65625 C -19.257812 -38.820312 -20.675781 -41.195312 -22.125 -43.78125 C -23.582031 -46.375 -24.925781 -49.082031 -26.15625 -51.90625 C -27.394531 -54.726562 -28.3125 -57.445312 -28.90625 -60.0625 C -29.5 -62.675781 -29.59375 -65.039062 -29.1875 -67.15625 C -28.789062 -69.269531 -27.632812 -70.941406 -25.71875 -72.171875 C -23.738281 -73.429688 -21.601562 -73.398438 -19.3125 -72.078125 C -17.019531 -70.765625 -14.773438 -68.953125 -12.578125 -66.640625 C -10.378906 -64.328125 -8.410156 -61.894531 -6.671875 -59.34375 C -4.929688 -56.789062 -3.660156 -54.890625 -2.859375 -53.640625 Z M -2.859375 -53.640625 "/></g></g></g><g fill="#fbde8a" fill-opacity="1"><g transform="translate(282.800548, 292.154862)"><g><path d="M 40.09375 -67.515625 C 41.207031 -65.242188 42.28125 -62.597656 43.3125 -59.578125 C 44.351562 -56.554688 45.226562 -53.375 45.9375 -50.03125 C 46.65625 -46.695312 47.09375 -43.320312 47.25 -39.90625 C 47.414062 -36.5 47.160156 -33.253906 46.484375 -30.171875 C 45.816406 -27.085938 44.648438 -24.316406 42.984375 -21.859375 C 41.328125 -19.398438 38.972656 -17.425781 35.921875 -15.9375 C 32.722656 -14.375 29.453125 -13.695312 26.109375 -13.90625 C 22.765625 -14.113281 19.523438 -15.050781 16.390625 -16.71875 C 17.179688 -14.5 17.222656 -12.222656 16.515625 -9.890625 C 15.816406 -7.554688 14.332031 -5.835938 12.0625 -4.734375 C 10.738281 -4.085938 9.300781 -4.207031 7.75 -5.09375 C 6.207031 -5.976562 4.65625 -7.320312 3.09375 -9.125 C 1.53125 -10.9375 0.00390625 -13.023438 -1.484375 -15.390625 C -2.984375 -17.765625 -4.34375 -20.101562 -5.5625 -22.40625 C -6.789062 -24.71875 -7.863281 -26.8125 -8.78125 -28.6875 C -9.695312 -30.5625 -10.347656 -31.890625 -10.734375 -32.671875 C -12.023438 -35.328125 -13.296875 -37.992188 -14.546875 -40.671875 C -15.804688 -43.359375 -17.070312 -46.085938 -18.34375 -48.859375 C -18.988281 -50.179688 -19.976562 -52.164062 -21.3125 -54.8125 C -22.644531 -57.457031 -24.0625 -60.421875 -25.5625 -63.703125 C -27.070312 -66.984375 -28.519531 -70.390625 -29.90625 -73.921875 C -31.300781 -77.453125 -32.332031 -80.796875 -33 -83.953125 C -33.664062 -87.117188 -33.8125 -89.90625 -33.4375 -92.3125 C -33.070312 -94.726562 -31.9375 -96.453125 -30.03125 -97.484375 C -28.457031 -98.242188 -26.851562 -98.34375 -25.21875 -97.78125 C -23.59375 -97.226562 -21.96875 -96.234375 -20.34375 -94.796875 C -18.726562 -93.359375 -17.164062 -91.628906 -15.65625 -89.609375 C -14.144531 -87.585938 -12.742188 -85.507812 -11.453125 -83.375 C -10.160156 -81.238281 -9.007812 -79.179688 -8 -77.203125 C -6.988281 -75.234375 -6.179688 -73.625 -5.578125 -72.375 C -5.460938 -72.144531 -5.222656 -71.609375 -4.859375 -70.765625 C -4.492188 -69.921875 -4.082031 -69.03125 -3.625 -68.09375 C -3.164062 -67.164062 -2.753906 -66.328125 -2.390625 -65.578125 C -2.023438 -64.835938 -1.828125 -64.429688 -1.796875 -64.359375 C -1.804688 -66.179688 -1.488281 -68.117188 -0.84375 -70.171875 C -0.207031 -72.222656 0.660156 -74.195312 1.765625 -76.09375 C 2.867188 -77.988281 4.144531 -79.726562 5.59375 -81.3125 C 7.050781 -82.894531 8.601562 -84.085938 10.25 -84.890625 C 13.539062 -86.492188 16.710938 -87 19.765625 -86.40625 C 22.816406 -85.820312 25.632812 -84.5625 28.21875 -82.625 C 30.8125 -80.6875 33.113281 -78.347656 35.125 -75.609375 C 37.144531 -72.878906 38.800781 -70.179688 40.09375 -67.515625 Z M 24.5625 -55.578125 C 24.113281 -56.515625 23.5625 -57.5 22.90625 -58.53125 C 22.257812 -59.570312 21.488281 -60.457031 20.59375 -61.1875 C 19.707031 -61.925781 18.738281 -62.421875 17.6875 -62.671875 C 16.632812 -62.929688 15.523438 -62.773438 14.359375 -62.203125 C 13.109375 -61.585938 12.007812 -60.710938 11.0625 -59.578125 C 10.125 -58.441406 9.316406 -57.175781 8.640625 -55.78125 C 7.960938 -54.394531 7.394531 -52.984375 6.9375 -51.546875 C 6.476562 -50.109375 6.128906 -48.75 5.890625 -47.46875 L 9.796875 -36.4375 C 11.921875 -35.257812 14.140625 -34.582031 16.453125 -34.40625 C 18.773438 -34.226562 21.066406 -34.691406 23.328125 -35.796875 C 25.046875 -36.640625 26.207031 -37.882812 26.8125 -39.53125 C 27.414062 -41.175781 27.65625 -42.960938 27.53125 -44.890625 C 27.40625 -46.816406 27.039062 -48.742188 26.4375 -50.671875 C 25.84375 -52.609375 25.21875 -54.242188 24.5625 -55.578125 Z M 24.5625 -55.578125 "/></g></g></g><g fill="#fbde8a" fill-opacity="1"><g transform="translate(341.368365, 264.396719)"><g><path d="M 0.625 -84 C 2.175781 -79.570312 3.550781 -75.054688 4.75 -70.453125 C 5.945312 -65.859375 7.335938 -61.296875 8.921875 -56.765625 C 10.960938 -50.941406 13.179688 -45.175781 15.578125 -39.46875 C 17.984375 -33.757812 20.222656 -27.945312 22.296875 -22.03125 C 22.816406 -20.550781 23.316406 -18.859375 23.796875 -16.953125 C 24.273438 -15.046875 24.476562 -13.207031 24.40625 -11.4375 C 24.332031 -9.664062 23.863281 -8.03125 23 -6.53125 C 22.144531 -5.03125 20.695312 -3.921875 18.65625 -3.203125 C 16.675781 -2.515625 14.632812 -2.882812 12.53125 -4.3125 C 10.425781 -5.738281 8.375 -7.785156 6.375 -10.453125 C 4.375 -13.117188 2.414062 -16.191406 0.5 -19.671875 C -1.40625 -23.160156 -3.109375 -26.597656 -4.609375 -29.984375 C -6.109375 -33.378906 -7.429688 -36.507812 -8.578125 -39.375 C -9.722656 -42.25 -10.539062 -44.382812 -11.03125 -45.78125 C -11.570312 -47.34375 -12.296875 -49.625 -13.203125 -52.625 C -14.117188 -55.625 -14.972656 -58.921875 -15.765625 -62.515625 C -16.566406 -66.109375 -17.242188 -69.8125 -17.796875 -73.625 C -18.347656 -77.445312 -18.554688 -81.015625 -18.421875 -84.328125 C -18.296875 -87.648438 -17.753906 -90.515625 -16.796875 -92.921875 C -15.835938 -95.335938 -14.25 -96.929688 -12.03125 -97.703125 C -10.226562 -98.335938 -8.644531 -98.21875 -7.28125 -97.34375 C -5.925781 -96.476562 -4.75 -95.28125 -3.75 -93.75 C -2.75 -92.21875 -1.882812 -90.539062 -1.15625 -88.71875 C -0.425781 -86.894531 0.164062 -85.320312 0.625 -84 Z M 0.625 -84 "/></g></g></g><g fill="#fbde8a" fill-opacity="1"><g transform="translate(370.864347, 254.010566)"><g><path d="M 1.0625 -94.59375 C 1.375 -93.414062 1.335938 -92.28125 0.953125 -91.1875 C 0.566406 -90.09375 -0.03125 -89.050781 -0.84375 -88.0625 C -1.664062 -87.082031 -2.613281 -86.242188 -3.6875 -85.546875 C -4.769531 -84.859375 -5.816406 -84.378906 -6.828125 -84.109375 C -8.503906 -83.660156 -10.085938 -83.6875 -11.578125 -84.1875 C -13.066406 -84.6875 -14.046875 -85.816406 -14.515625 -87.578125 C -14.859375 -88.847656 -14.835938 -90.050781 -14.453125 -91.1875 C -14.078125 -92.320312 -13.507812 -93.328125 -12.75 -94.203125 C -12 -95.078125 -11.082031 -95.84375 -10 -96.5 C -8.914062 -97.15625 -7.828125 -97.628906 -6.734375 -97.921875 C -5.128906 -98.347656 -3.550781 -98.363281 -2 -97.96875 C -0.457031 -97.570312 0.5625 -96.445312 1.0625 -94.59375 Z M 13.515625 -51.984375 C 13.835938 -50.804688 14.171875 -49.566406 14.515625 -48.265625 C 14.859375 -46.960938 15.148438 -45.710938 15.390625 -44.515625 C 15.679688 -43.066406 16.144531 -41.144531 16.78125 -38.75 C 17.425781 -36.351562 18.035156 -33.742188 18.609375 -30.921875 C 19.191406 -28.097656 19.675781 -25.207031 20.0625 -22.25 C 20.445312 -19.289062 20.53125 -16.519531 20.3125 -13.9375 C 20.101562 -11.351562 19.503906 -9.140625 18.515625 -7.296875 C 17.523438 -5.460938 15.988281 -4.222656 13.90625 -3.578125 C 12.320312 -3.066406 10.804688 -3.335938 9.359375 -4.390625 C 7.910156 -5.441406 6.539062 -6.945312 5.25 -8.90625 C 3.957031 -10.863281 2.789062 -13.117188 1.75 -15.671875 C 0.707031 -18.222656 -0.222656 -20.71875 -1.046875 -23.15625 C -1.878906 -25.59375 -2.578125 -27.859375 -3.140625 -29.953125 C -3.703125 -32.054688 -4.117188 -33.617188 -4.390625 -34.640625 C -4.742188 -35.972656 -5.253906 -37.878906 -5.921875 -40.359375 C -6.585938 -42.847656 -7.21875 -45.539062 -7.8125 -48.4375 C -8.40625 -51.332031 -8.863281 -54.3125 -9.1875 -57.375 C -9.519531 -60.445312 -9.570312 -63.316406 -9.34375 -65.984375 C -9.113281 -68.660156 -8.484375 -70.945312 -7.453125 -72.84375 C -6.429688 -74.75 -4.820312 -75.992188 -2.625 -76.578125 C -0.363281 -77.179688 1.65625 -76.503906 3.4375 -74.546875 C 5.21875 -72.597656 6.804688 -70.1875 8.203125 -67.3125 C 9.597656 -64.445312 10.738281 -61.535156 11.625 -58.578125 C 12.507812 -55.617188 13.140625 -53.421875 13.515625 -51.984375 Z M 13.515625 -51.984375 "/></g></g></g><g fill="#fbde8a" fill-opacity="1"><g transform="translate(397.31582, 245.958938)"><g><path d="M 28.953125 -0.765625 C 24.578125 -0.0664062 20.566406 -0.617188 16.921875 -2.421875 C 13.285156 -4.222656 10.0625 -6.753906 7.25 -10.015625 C 4.445312 -13.273438 2.132812 -17.023438 0.3125 -21.265625 C -1.507812 -25.515625 -2.757812 -29.789062 -3.4375 -34.09375 C -4.164062 -38.632812 -4.351562 -43.421875 -4 -48.453125 C -3.65625 -53.492188 -2.640625 -58.195312 -0.953125 -62.5625 C 0.734375 -66.925781 3.175781 -70.660156 6.375 -73.765625 C 9.582031 -76.867188 13.679688 -78.820312 18.671875 -79.625 C 23.492188 -80.382812 27.804688 -79.71875 31.609375 -77.625 C 35.421875 -75.539062 38.664062 -72.707031 41.34375 -69.125 C 44.03125 -65.550781 46.171875 -61.515625 47.765625 -57.015625 C 49.367188 -52.515625 50.367188 -48.175781 50.765625 -44 C 51.222656 -39.40625 51.242188 -34.695312 50.828125 -29.875 C 50.410156 -25.050781 49.375 -20.613281 47.71875 -16.5625 C 46.0625 -12.507812 43.703125 -9.050781 40.640625 -6.1875 C 37.578125 -3.320312 33.679688 -1.515625 28.953125 -0.765625 Z M 20.984375 -59.234375 C 19.703125 -59.035156 18.675781 -58.171875 17.90625 -56.640625 C 17.132812 -55.109375 16.582031 -53.300781 16.25 -51.21875 C 15.925781 -49.132812 15.765625 -46.96875 15.765625 -44.71875 C 15.773438 -42.476562 15.910156 -40.539062 16.171875 -38.90625 C 16.492188 -36.84375 17.035156 -34.640625 17.796875 -32.296875 C 18.566406 -29.953125 19.457031 -27.820312 20.46875 -25.90625 C 21.476562 -24 22.582031 -22.457031 23.78125 -21.28125 C 24.988281 -20.101562 26.234375 -19.617188 27.515625 -19.828125 C 28.890625 -20.046875 29.96875 -20.878906 30.75 -22.328125 C 31.53125 -23.773438 32.0625 -25.53125 32.34375 -27.59375 C 32.632812 -29.664062 32.722656 -31.90625 32.609375 -34.3125 C 32.492188 -36.71875 32.273438 -38.953125 31.953125 -41.015625 C 31.648438 -42.910156 31.144531 -44.96875 30.4375 -47.1875 C 29.726562 -49.414062 28.894531 -51.460938 27.9375 -53.328125 C 26.976562 -55.203125 25.90625 -56.707031 24.71875 -57.84375 C 23.53125 -58.976562 22.285156 -59.441406 20.984375 -59.234375 Z M 20.984375 -59.234375 "/></g></g></g><g fill="#fbde8a" fill-opacity="1"><g transform="translate(451.297799, 237.365816)"><g><path d="M 34.46875 3.5625 C 28.289062 3.769531 23.457031 3.125 19.96875 1.625 C 16.476562 0.132812 13.835938 -2.054688 12.046875 -4.953125 C 10.253906 -7.859375 9.113281 -11.390625 8.625 -15.546875 C 8.132812 -19.710938 7.804688 -24.363281 7.640625 -29.5 C 7.503906 -33.59375 7.5 -37.707031 7.625 -41.84375 C 7.75 -45.976562 8 -50.40625 8.375 -55.125 C 7.15625 -55.082031 6.195312 -55.023438 5.5 -54.953125 C 4.800781 -54.890625 4.234375 -54.851562 3.796875 -54.84375 C 1.015625 -54.75 -1.414062 -55.273438 -3.5 -56.421875 C -5.582031 -57.578125 -6.664062 -59.414062 -6.75 -61.9375 C -6.800781 -63.507812 -6.257812 -64.925781 -5.125 -66.1875 C -3.988281 -67.445312 -2.519531 -68.539062 -0.71875 -69.46875 C 1.070312 -70.394531 3.023438 -71.148438 5.140625 -71.734375 C 7.253906 -72.328125 9.269531 -72.742188 11.1875 -72.984375 C 11.101562 -75.410156 11.179688 -78.109375 11.421875 -81.078125 C 11.671875 -84.046875 12.207031 -86.828125 13.03125 -89.421875 C 13.863281 -92.023438 15.035156 -94.222656 16.546875 -96.015625 C 18.054688 -97.804688 20.03125 -98.738281 22.46875 -98.8125 C 23.851562 -98.863281 25.101562 -98.492188 26.21875 -97.703125 C 27.332031 -96.921875 28.257812 -95.910156 29 -94.671875 C 29.738281 -93.429688 30.304688 -92.03125 30.703125 -90.46875 C 31.109375 -88.914062 31.335938 -87.398438 31.390625 -85.921875 C 31.441406 -84.179688 31.367188 -82.394531 31.171875 -80.5625 C 30.972656 -78.726562 30.566406 -76.445312 29.953125 -73.71875 C 31.429688 -73.945312 32.429688 -74.085938 32.953125 -74.140625 C 33.472656 -74.203125 33.953125 -74.242188 34.390625 -74.265625 C 35.867188 -74.304688 37.410156 -74.222656 39.015625 -74.015625 C 40.628906 -73.816406 42.117188 -73.4375 43.484375 -72.875 C 44.859375 -72.3125 45.992188 -71.546875 46.890625 -70.578125 C 47.796875 -69.609375 48.273438 -68.425781 48.328125 -67.03125 C 48.378906 -65.46875 47.789062 -64.054688 46.5625 -62.796875 C 45.34375 -61.535156 43.789062 -60.4375 41.90625 -59.5 C 40.03125 -58.570312 38.007812 -57.832031 35.84375 -57.28125 C 33.6875 -56.726562 31.660156 -56.332031 29.765625 -56.09375 C 29.347656 -52.507812 29.082031 -49.210938 28.96875 -46.203125 C 28.851562 -43.203125 28.71875 -40.175781 28.5625 -37.125 C 28.425781 -35.632812 28.316406 -34.128906 28.234375 -32.609375 C 28.160156 -31.085938 28.148438 -29.539062 28.203125 -27.96875 C 28.234375 -26.84375 28.316406 -25.515625 28.453125 -23.984375 C 28.597656 -22.460938 28.953125 -21.015625 29.515625 -19.640625 C 30.085938 -18.265625 30.953125 -17.097656 32.109375 -16.140625 C 33.273438 -15.191406 34.859375 -14.75 36.859375 -14.8125 C 38.078125 -14.851562 39.332031 -15 40.625 -15.25 C 41.925781 -15.507812 43.226562 -15.660156 44.53125 -15.703125 C 46.789062 -15.773438 48.445312 -15.046875 49.5 -13.515625 C 50.550781 -11.992188 51.117188 -10.015625 51.203125 -7.578125 C 51.253906 -5.742188 50.757812 -4.132812 49.71875 -2.75 C 48.675781 -1.375 47.34375 -0.242188 45.71875 0.640625 C 44.09375 1.523438 42.265625 2.21875 40.234375 2.71875 C 38.210938 3.226562 36.289062 3.507812 34.46875 3.5625 Z M 34.46875 3.5625 "/></g></g></g><g fill="#fbde8a" fill-opacity="1"><g transform="translate(495.904529, 234.904405)"><g><path d="M 66.265625 -27.25 C 66.109375 -25.78125 65.863281 -23.59375 65.53125 -20.6875 C 65.195312 -17.789062 64.757812 -14.773438 64.21875 -11.640625 C 63.675781 -8.503906 63.085938 -5.546875 62.453125 -2.765625 C 61.828125 0.015625 61.191406 2.023438 60.546875 3.265625 C 59.679688 4.835938 58.625 6.171875 57.375 7.265625 C 56.132812 8.367188 54.554688 8.828125 52.640625 8.640625 C 49.703125 8.335938 47.703125 6.953125 46.640625 4.484375 C 45.578125 2.015625 45.003906 -0.972656 44.921875 -4.484375 C 44.847656 -7.992188 45.0625 -11.773438 45.5625 -15.828125 C 46.070312 -19.890625 46.410156 -23.660156 46.578125 -27.140625 C 46.753906 -30.628906 46.570312 -33.582031 46.03125 -36 C 45.5 -38.414062 44.195312 -39.726562 42.125 -39.9375 C 39.257812 -40.226562 37.019531 -39.992188 35.40625 -39.234375 C 33.789062 -38.472656 32.582031 -37.390625 31.78125 -35.984375 C 30.988281 -34.585938 30.429688 -32.941406 30.109375 -31.046875 C 29.785156 -29.160156 29.429688 -27.1875 29.046875 -25.125 C 28.671875 -23.15625 28.265625 -20.484375 27.828125 -17.109375 C 27.398438 -13.742188 26.671875 -10.445312 25.640625 -7.21875 C 24.617188 -4 23.1875 -1.285156 21.34375 0.921875 C 19.507812 3.128906 17.035156 4.078125 13.921875 3.765625 C 12.015625 3.578125 10.550781 2.6875 9.53125 1.09375 C 8.507812 -0.488281 7.769531 -2.484375 7.3125 -4.890625 C 6.863281 -7.304688 6.628906 -9.957031 6.609375 -12.84375 C 6.597656 -15.726562 6.707031 -18.535156 6.9375 -21.265625 C 7.175781 -23.992188 7.429688 -26.484375 7.703125 -28.734375 C 7.972656 -30.984375 8.164062 -32.671875 8.28125 -33.796875 C 8.457031 -35.523438 8.8125 -38.375 9.34375 -42.34375 C 9.882812 -46.3125 10.617188 -50.71875 11.546875 -55.5625 C 12.484375 -60.414062 13.554688 -65.398438 14.765625 -70.515625 C 15.984375 -75.640625 17.375 -80.285156 18.9375 -84.453125 C 20.507812 -88.628906 22.234375 -91.976562 24.109375 -94.5 C 25.984375 -97.019531 27.992188 -98.128906 30.140625 -97.828125 C 31.523438 -97.597656 32.65625 -96.867188 33.53125 -95.640625 C 34.414062 -94.410156 35.09375 -92.875 35.5625 -91.03125 C 36.03125 -89.195312 36.375 -87.21875 36.59375 -85.09375 C 36.820312 -82.976562 36.9375 -80.890625 36.9375 -78.828125 C 36.945312 -76.773438 36.882812 -74.878906 36.75 -73.140625 C 36.613281 -71.410156 36.5 -70.066406 36.40625 -69.109375 C 36.175781 -66.859375 35.898438 -64.613281 35.578125 -62.375 C 35.265625 -60.132812 34.914062 -57.894531 34.53125 -55.65625 C 36.789062 -58.132812 39.671875 -60.070312 43.171875 -61.46875 C 46.679688 -62.875 50.128906 -63.40625 53.515625 -63.0625 C 57.835938 -62.613281 60.984375 -61.082031 62.953125 -58.46875 C 64.921875 -55.863281 66.195312 -52.757812 66.78125 -49.15625 C 67.375 -45.550781 67.515625 -41.773438 67.203125 -37.828125 C 66.890625 -33.878906 66.578125 -30.351562 66.265625 -27.25 Z M 66.265625 -27.25 "/></g></g></g><g fill="#fbde8a" fill-opacity="1"><g transform="translate(558.154238, 241.110712)"><g><path d="M 62.5 -8.21875 C 61.78125 -5.351562 60.164062 -2.773438 57.65625 -0.484375 C 55.15625 1.796875 52.265625 3.664062 48.984375 5.125 C 45.703125 6.59375 42.332031 7.585938 38.875 8.109375 C 35.414062 8.628906 32.378906 8.554688 29.765625 7.890625 C 25.304688 6.765625 21.601562 4.644531 18.65625 1.53125 C 15.71875 -1.582031 13.503906 -5.164062 12.015625 -9.21875 C 10.523438 -13.28125 9.691406 -17.550781 9.515625 -22.03125 C 9.335938 -26.519531 9.75 -30.742188 10.75 -34.703125 C 11.8125 -38.921875 13.539062 -43.285156 15.9375 -47.796875 C 18.332031 -52.304688 21.242188 -56.285156 24.671875 -59.734375 C 28.097656 -63.179688 31.984375 -65.796875 36.328125 -67.578125 C 40.679688 -69.359375 45.390625 -69.609375 50.453125 -68.328125 C 53.316406 -67.609375 55.929688 -66.429688 58.296875 -64.796875 C 60.671875 -63.160156 62.609375 -61.210938 64.109375 -58.953125 C 65.617188 -56.691406 66.648438 -54.1875 67.203125 -51.4375 C 67.765625 -48.695312 67.664062 -45.8125 66.90625 -42.78125 C 65.90625 -38.8125 64.125 -35.3125 61.5625 -32.28125 C 59.007812 -29.25 56.019531 -26.816406 52.59375 -24.984375 C 49.164062 -23.148438 45.441406 -21.910156 41.421875 -21.265625 C 37.410156 -20.617188 33.484375 -20.691406 29.640625 -21.484375 C 29.359375 -18.953125 29.90625 -16.929688 31.28125 -15.421875 C 32.65625 -13.910156 34.476562 -12.867188 36.75 -12.296875 C 38.4375 -11.867188 40.1875 -11.875 42 -12.3125 C 43.8125 -12.75 45.609375 -13.300781 47.390625 -13.96875 C 49.179688 -14.632812 50.921875 -15.207031 52.609375 -15.6875 C 54.296875 -16.164062 55.898438 -16.210938 57.421875 -15.828125 C 59.109375 -15.398438 60.488281 -14.46875 61.5625 -13.03125 C 62.632812 -11.59375 62.945312 -9.988281 62.5 -8.21875 Z M 49.796875 -44.40625 C 50.066406 -45.5 50.0625 -46.707031 49.78125 -48.03125 C 49.5 -49.363281 48.722656 -50.191406 47.453125 -50.515625 C 45.585938 -50.984375 43.898438 -50.890625 42.390625 -50.234375 C 40.890625 -49.578125 39.53125 -48.613281 38.3125 -47.34375 C 37.09375 -46.082031 36.039062 -44.664062 35.15625 -43.09375 C 34.269531 -41.519531 33.601562 -40.03125 33.15625 -38.625 C 34.382812 -38.582031 35.878906 -38.5625 37.640625 -38.5625 C 39.398438 -38.570312 41.109375 -38.75 42.765625 -39.09375 C 44.421875 -39.4375 45.910156 -40.023438 47.234375 -40.859375 C 48.554688 -41.703125 49.410156 -42.882812 49.796875 -44.40625 Z M 60.546875 -75.875 C 60.378906 -75.207031 59.972656 -74.75 59.328125 -74.5 C 58.679688 -74.25 58.019531 -74.210938 57.34375 -74.390625 C 55.832031 -74.765625 54.375 -75.644531 52.96875 -77.03125 C 51.570312 -78.414062 50.367188 -79.59375 49.359375 -80.5625 C 48.734375 -81.269531 48.046875 -82.03125 47.296875 -82.84375 C 46.554688 -83.65625 45.882812 -84.539062 45.28125 -85.5 C 44.675781 -86.46875 44.207031 -87.460938 43.875 -88.484375 C 43.550781 -89.503906 43.507812 -90.476562 43.75 -91.40625 C 44.0625 -92.675781 44.800781 -93.679688 45.96875 -94.421875 C 47.144531 -95.160156 48.367188 -95.367188 49.640625 -95.046875 C 50.898438 -94.734375 52.226562 -93.789062 53.625 -92.21875 C 55.03125 -90.65625 56.3125 -88.875 57.46875 -86.875 C 58.632812 -84.882812 59.519531 -82.867188 60.125 -80.828125 C 60.726562 -78.796875 60.867188 -77.144531 60.546875 -75.875 Z M 60.546875 -75.875 "/></g></g></g><g fill="#fbde8a" fill-opacity="1"><g transform="translate(610.738106, 253.657818)"><g><path d="M 82.84375 -31.546875 C 79.78125 -25.941406 76.734375 -20.375 73.703125 -14.84375 C 70.679688 -9.3125 67.851562 -3.695312 65.21875 2 C 62.082031 8.507812 59.328125 14.753906 56.953125 20.734375 C 54.578125 26.722656 52.015625 33.0625 49.265625 39.75 C 48.609375 41.363281 47.78125 43.328125 46.78125 45.640625 C 45.78125 47.953125 44.550781 50.078125 43.09375 52.015625 C 41.632812 53.953125 39.96875 55.429688 38.09375 56.453125 C 36.21875 57.472656 34.03125 57.46875 31.53125 56.4375 C 30.332031 55.945312 29.457031 55.164062 28.90625 54.09375 C 28.351562 53.03125 28.015625 51.785156 27.890625 50.359375 C 27.765625 48.941406 27.820312 47.4375 28.0625 45.84375 C 28.300781 44.257812 28.613281 42.648438 29 41.015625 C 29.882812 37.703125 30.941406 34.488281 32.171875 31.375 C 33.410156 28.257812 34.328125 25.976562 34.921875 24.53125 L 38.796875 15.125 L 41.578125 8.359375 C 38.742188 10.015625 35.597656 10.863281 32.140625 10.90625 C 28.691406 10.945312 25.515625 10.367188 22.609375 9.171875 C 18.992188 7.679688 16.234375 5.53125 14.328125 2.71875 C 12.429688 -0.0820312 11.191406 -3.175781 10.609375 -6.5625 C 10.023438 -9.957031 9.992188 -13.429688 10.515625 -16.984375 C 11.035156 -20.535156 11.925781 -23.835938 13.1875 -26.890625 L 13.484375 -27.609375 C 15.203125 -31.796875 17.707031 -36.054688 21 -40.390625 C 24.289062 -44.734375 28.0625 -48.472656 32.3125 -51.609375 C 36.570312 -54.753906 41.179688 -56.929688 46.140625 -58.140625 C 51.109375 -59.347656 56.132812 -58.90625 61.21875 -56.8125 C 63.945312 -55.6875 66.222656 -54.085938 68.046875 -52.015625 C 69.878906 -49.941406 70.75 -47.425781 70.65625 -44.46875 C 72.0625 -46.039062 73.671875 -47.140625 75.484375 -47.765625 C 77.296875 -48.390625 79.25 -48.273438 81.34375 -47.421875 C 84 -46.328125 85.507812 -44.6875 85.875 -42.5 C 86.25 -40.320312 86.003906 -38.1875 85.140625 -36.09375 C 84.773438 -35.207031 84.398438 -34.414062 84.015625 -33.71875 C 83.640625 -33.03125 83.25 -32.304688 82.84375 -31.546875 Z M 53.890625 -40.078125 C 52.046875 -40.835938 50.007812 -40.800781 47.78125 -39.96875 C 45.550781 -39.144531 43.394531 -37.910156 41.3125 -36.265625 C 39.238281 -34.628906 37.363281 -32.742188 35.6875 -30.609375 C 34.007812 -28.484375 32.789062 -26.5 32.03125 -24.65625 C 31.5625 -23.519531 31.160156 -22.265625 30.828125 -20.890625 C 30.492188 -19.523438 30.304688 -18.171875 30.265625 -16.828125 C 30.234375 -15.484375 30.441406 -14.269531 30.890625 -13.1875 C 31.347656 -12.113281 32.175781 -11.332031 33.375 -10.84375 C 34.425781 -10.40625 35.757812 -10.15625 37.375 -10.09375 C 39 -10.03125 40.671875 -10.140625 42.390625 -10.421875 C 44.109375 -10.710938 45.707031 -11.164062 47.1875 -11.78125 C 48.664062 -12.394531 49.800781 -13.097656 50.59375 -13.890625 C 51.0625 -14.359375 51.609375 -15.117188 52.234375 -16.171875 C 52.867188 -17.234375 53.503906 -18.363281 54.140625 -19.5625 C 54.773438 -20.757812 55.378906 -21.945312 55.953125 -23.125 C 56.535156 -24.300781 56.960938 -25.210938 57.234375 -25.859375 C 57.628906 -26.816406 57.859375 -28.007812 57.921875 -29.4375 C 57.984375 -30.875 57.890625 -32.320312 57.640625 -33.78125 C 57.398438 -35.25 56.957031 -36.5625 56.3125 -37.71875 C 55.664062 -38.882812 54.859375 -39.671875 53.890625 -40.078125 Z M 53.890625 -40.078125 "/></g></g></g><g fill="#fbde8a" fill-opacity="1"><g transform="translate(667.153113, 276.454537)"><g><path d="M 71.578125 -0.625 C 69.117188 3.476562 66.269531 7.300781 63.03125 10.84375 C 59.800781 14.382812 56.265625 17.160156 52.421875 19.171875 C 48.578125 21.179688 44.453125 22.179688 40.046875 22.171875 C 35.640625 22.171875 31.007812 20.710938 26.15625 17.796875 C 21.375 14.929688 17.953125 11.585938 15.890625 7.765625 C 13.828125 3.941406 12.78125 -0.101562 12.75 -4.375 C 12.71875 -8.65625 13.492188 -13.003906 15.078125 -17.421875 C 16.671875 -21.847656 18.695312 -26.117188 21.15625 -30.234375 C 23.84375 -34.710938 27.03125 -38.835938 30.71875 -42.609375 C 31.644531 -43.671875 33.066406 -45.078125 34.984375 -46.828125 C 36.898438 -48.578125 38.976562 -50.171875 41.21875 -51.609375 C 43.457031 -53.054688 45.671875 -54.132812 47.859375 -54.84375 C 50.054688 -55.5625 51.9375 -55.453125 53.5 -54.515625 C 55 -53.617188 55.953125 -52.488281 56.359375 -51.125 C 56.765625 -49.769531 56.859375 -48.320312 56.640625 -46.78125 C 56.421875 -45.238281 55.972656 -43.734375 55.296875 -42.265625 C 54.628906 -40.796875 53.957031 -39.5 53.28125 -38.375 C 52.25 -36.65625 51.109375 -35.050781 49.859375 -33.5625 C 48.617188 -32.082031 47.359375 -30.613281 46.078125 -29.15625 C 44.429688 -27.082031 42.804688 -25.003906 41.203125 -22.921875 C 39.609375 -20.847656 38.140625 -18.6875 36.796875 -16.4375 C 36.128906 -15.320312 35.4375 -14.039062 34.71875 -12.59375 C 34 -11.144531 33.484375 -9.648438 33.171875 -8.109375 C 32.859375 -6.578125 32.851562 -5.132812 33.15625 -3.78125 C 33.46875 -2.4375 34.367188 -1.316406 35.859375 -0.421875 C 37.796875 0.742188 39.65625 1.148438 41.4375 0.796875 C 43.226562 0.441406 44.867188 -0.347656 46.359375 -1.578125 C 47.859375 -2.816406 49.222656 -4.285156 50.453125 -5.984375 C 51.679688 -7.691406 52.742188 -9.289062 53.640625 -10.78125 C 55.609375 -14.0625 57.316406 -17.421875 58.765625 -20.859375 C 60.210938 -24.304688 61.738281 -27.78125 63.34375 -31.28125 C 63.488281 -31.695312 63.757812 -32.242188 64.15625 -32.921875 C 64.820312 -34.035156 65.675781 -35.039062 66.71875 -35.9375 C 67.769531 -36.832031 68.898438 -37.523438 70.109375 -38.015625 C 71.316406 -38.515625 72.570312 -38.75 73.875 -38.71875 C 75.175781 -38.695312 76.425781 -38.332031 77.625 -37.625 C 79.269531 -36.632812 80.378906 -35.179688 80.953125 -33.265625 C 81.535156 -31.359375 81.707031 -29.226562 81.46875 -26.875 C 81.226562 -24.53125 80.703125 -22.050781 79.890625 -19.4375 C 79.085938 -16.832031 78.191406 -14.328125 77.203125 -11.921875 C 76.222656 -9.515625 75.207031 -7.304688 74.15625 -5.296875 C 73.101562 -3.296875 72.242188 -1.738281 71.578125 -0.625 Z M 71.578125 -0.625 "/></g></g></g><g fill="#fbde8a" fill-opacity="1"><g transform="translate(718.159745, 306.753586)"><g><path d="M 60.15625 18.875 C 58.289062 21.175781 55.738281 22.832031 52.5 23.84375 C 49.269531 24.863281 45.859375 25.34375 42.265625 25.28125 C 38.671875 25.226562 35.195312 24.707031 31.84375 23.71875 C 28.488281 22.738281 25.765625 21.398438 23.671875 19.703125 C 20.085938 16.796875 17.617188 13.304688 16.265625 9.234375 C 14.910156 5.171875 14.414062 0.988281 14.78125 -3.3125 C 15.144531 -7.613281 16.191406 -11.832031 17.921875 -15.96875 C 19.648438 -20.113281 21.800781 -23.769531 24.375 -26.9375 C 27.113281 -30.320312 30.519531 -33.554688 34.59375 -36.640625 C 38.664062 -39.722656 42.976562 -42.101562 47.53125 -43.78125 C 52.082031 -45.46875 56.707031 -46.203125 61.40625 -45.984375 C 66.101562 -45.765625 70.476562 -44.007812 74.53125 -40.71875 C 76.832031 -38.863281 78.710938 -36.695312 80.171875 -34.21875 C 81.640625 -31.738281 82.578125 -29.15625 82.984375 -26.46875 C 83.390625 -23.789062 83.265625 -21.085938 82.609375 -18.359375 C 81.960938 -15.628906 80.65625 -13.050781 78.6875 -10.625 C 76.113281 -7.445312 73.023438 -5.019531 69.421875 -3.34375 C 65.828125 -1.664062 62.09375 -0.71875 58.21875 -0.5 C 54.351562 -0.28125 50.457031 -0.722656 46.53125 -1.828125 C 42.613281 -2.941406 39.078125 -4.664062 35.921875 -7 C 34.609375 -4.820312 34.253906 -2.753906 34.859375 -0.796875 C 35.460938 1.148438 36.675781 2.859375 38.5 4.328125 C 39.84375 5.429688 41.429688 6.164062 43.265625 6.53125 C 45.097656 6.894531 46.960938 7.144531 48.859375 7.28125 C 50.765625 7.425781 52.582031 7.640625 54.3125 7.921875 C 56.050781 8.203125 57.523438 8.835938 58.734375 9.828125 C 60.085938 10.921875 60.945312 12.347656 61.3125 14.109375 C 61.6875 15.867188 61.300781 17.457031 60.15625 18.875 Z M 63.875 -19.296875 C 64.582031 -20.160156 65.082031 -21.253906 65.375 -22.578125 C 65.675781 -23.910156 65.320312 -24.988281 64.3125 -25.8125 C 62.820312 -27.019531 61.253906 -27.644531 59.609375 -27.6875 C 57.972656 -27.738281 56.335938 -27.445312 54.703125 -26.8125 C 53.066406 -26.175781 51.507812 -25.332031 50.03125 -24.28125 C 48.5625 -23.226562 47.328125 -22.15625 46.328125 -21.0625 C 47.429688 -20.5 48.78125 -19.851562 50.375 -19.125 C 51.96875 -18.40625 53.585938 -17.847656 55.234375 -17.453125 C 56.890625 -17.066406 58.492188 -16.96875 60.046875 -17.15625 C 61.609375 -17.351562 62.882812 -18.066406 63.875 -19.296875 Z M 63.875 -19.296875 "/></g></g></g></svg>