<svg xmlns="http://www.w3.org/2000/svg" xmlns:xlink="http://www.w3.org/1999/xlink" width="1280" zoomAndPan="magnify" viewBox="0 0 960 540.000001" height="720" preserveAspectRatio="xMidYMid meet" version="1.0"><defs><g/><clipPath id="ac1b3d5186"><path d="M 0.886719 0 L 959.113281 0 L 959.113281 539 L 0.886719 539 Z M 0.886719 0 " clip-rule="nonzero"/></clipPath><clipPath id="3f6f88bc0a"><path d="M 21.703125 263.515625 L 123.703125 263.515625 L 123.703125 274.511719 L 21.703125 274.511719 Z M 21.703125 263.515625 " clip-rule="nonzero"/></clipPath><clipPath id="c631d9a88c"><path d="M 836.28125 263.515625 L 938.28125 263.515625 L 938.28125 274.511719 L 836.28125 274.511719 Z M 836.28125 263.515625 " clip-rule="nonzero"/></clipPath><clipPath id="73422ecc7c"><path d="M 88 22 L 181 22 L 181 86 L 88 86 Z M 88 22 " clip-rule="nonzero"/></clipPath><clipPath id="c09f0c5943"><path d="M 174.910156 85.390625 L 88.332031 31.46875 L 94.144531 22.132812 L 180.726562 76.058594 Z M 174.910156 85.390625 " clip-rule="nonzero"/></clipPath><clipPath id="c259ad616b"><path d="M 779 452 L 873 452 L 873 517 L 779 517 Z M 779 452 " clip-rule="nonzero"/></clipPath><clipPath id="924b88cbb2"><path d="M 866.347656 516.035156 L 779.765625 462.109375 L 785.582031 452.773438 L 872.160156 506.699219 Z M 866.347656 516.035156 " clip-rule="nonzero"/></clipPath><clipPath id="21ed88aa6b"><path d="M 77 438 L 172 438 L 172 499 L 77 499 Z M 77 438 " clip-rule="nonzero"/></clipPath><clipPath id="24a4564cda"><path d="M 171.679688 448.136719 L 82.714844 498.023438 L 77.335938 488.433594 L 166.300781 438.542969 Z M 171.679688 448.136719 " clip-rule="nonzero"/></clipPath><clipPath id="1d2d1f1791"><path d="M 787 40 L 883 40 L 883 100 L 787 100 Z M 787 40 " clip-rule="nonzero"/></clipPath><clipPath id="9ffbfb91c9"><path d="M 882.175781 49.722656 L 793.210938 99.609375 L 787.832031 90.019531 L 876.796875 40.128906 Z M 882.175781 49.722656 " clip-rule="nonzero"/></clipPath></defs><g clip-path="url(#ac1b3d5186)"><path fill="#ffffff" d="M 0.886719 0 L 959.113281 0 L 959.113281 539 L 0.886719 539 Z M 0.886719 0 " fill-opacity="1" fill-rule="nonzero"/><path fill="#fbde8a" d="M 0.886719 0 L 959.113281 0 L 959.113281 539 L 0.886719 539 Z M 0.886719 0 " fill-opacity="1" fill-rule="nonzero"/></g><g clip-path="url(#3f6f88bc0a)"><path fill="#38b6ff" d="M 123.703125 305.671875 L 21.746094 305.671875 L 21.746094 232.355469 L 123.703125 232.355469 Z M 123.703125 305.671875 " fill-opacity="1" fill-rule="nonzero"/></g><g clip-path="url(#c631d9a88c)"><path fill="#38b6ff" d="M 938.28125 305.671875 L 836.324219 305.671875 L 836.324219 232.355469 L 938.28125 232.355469 Z M 938.28125 305.671875 " fill-opacity="1" fill-rule="nonzero"/></g><g clip-path="url(#73422ecc7c)"><g clip-path="url(#c09f0c5943)"><path fill="#ffbd59" d="M 158.4375 111.839844 L 71.894531 57.941406 L 110.65625 -4.292969 L 197.199219 49.609375 Z M 158.4375 111.839844 " fill-opacity="1" fill-rule="nonzero"/></g></g><g clip-path="url(#c259ad616b)"><g clip-path="url(#924b88cbb2)"><path fill="#ffbd59" d="M 849.875 542.484375 L 763.332031 488.582031 L 802.09375 426.351562 L 888.636719 480.25 Z M 849.875 542.484375 " fill-opacity="1" fill-rule="nonzero"/></g></g><g clip-path="url(#21ed88aa6b)"><g clip-path="url(#24a4564cda)"><path fill="#ffbd59" d="M 186.921875 475.3125 L 97.992188 525.179688 L 62.136719 461.230469 L 151.0625 411.363281 Z M 186.921875 475.3125 " fill-opacity="1" fill-rule="nonzero"/></g></g><g clip-path="url(#1d2d1f1791)"><g clip-path="url(#9ffbfb91c9)"><path fill="#ffbd59" d="M 897.417969 76.898438 L 808.488281 126.765625 L 772.628906 62.816406 L 861.558594 12.949219 Z M 897.417969 76.898438 " fill-opacity="1" fill-rule="nonzero"/></g></g><g fill="#315f92" fill-opacity="1"><g transform="translate(325.263196, 209.250758)"><g><path d="M 52.9375 -97.265625 C 53.4375 -95.304688 53.726562 -93.1875 53.8125 -90.90625 C 53.90625 -88.625 53.671875 -86.425781 53.109375 -84.3125 C 52.546875 -82.195312 51.597656 -80.304688 50.265625 -78.640625 C 48.929688 -76.984375 47.082031 -75.851562 44.71875 -75.25 C 41.113281 -74.332031 38.269531 -74.296875 36.1875 -75.140625 C 34.101562 -75.984375 32.453125 -77.289062 31.234375 -79.0625 C 30.015625 -80.84375 29.097656 -82.832031 28.484375 -85.03125 C 27.867188 -87.238281 27.257812 -89.304688 26.65625 -91.234375 C 26.050781 -93.160156 25.300781 -94.695312 24.40625 -95.84375 C 23.507812 -96.988281 22.132812 -97.320312 20.28125 -96.84375 C 18.21875 -96.320312 16.601562 -95.117188 15.4375 -93.234375 C 14.28125 -91.347656 13.4375 -89.070312 12.90625 -86.40625 C 12.375 -83.75 12.097656 -80.828125 12.078125 -77.640625 C 12.066406 -74.453125 12.203125 -71.332031 12.484375 -68.28125 C 12.773438 -65.226562 13.148438 -62.359375 13.609375 -59.671875 C 14.066406 -56.992188 14.503906 -54.832031 14.921875 -53.1875 C 15.472656 -51.03125 16.207031 -48.472656 17.125 -45.515625 C 18.050781 -42.554688 19.269531 -39.816406 20.78125 -37.296875 C 22.300781 -34.773438 24.128906 -32.773438 26.265625 -31.296875 C 28.398438 -29.816406 31.015625 -29.472656 34.109375 -30.265625 C 36.179688 -30.785156 38.128906 -31.550781 39.953125 -32.5625 C 41.785156 -33.570312 43.59375 -34.65625 45.375 -35.8125 C 47.15625 -36.976562 48.984375 -38.078125 50.859375 -39.109375 C 52.742188 -40.140625 54.71875 -40.914062 56.78125 -41.4375 C 59.15625 -42.039062 61.351562 -41.585938 63.375 -40.078125 C 65.40625 -38.566406 66.722656 -36.625 67.328125 -34.25 C 68.171875 -30.945312 67.921875 -27.617188 66.578125 -24.265625 C 65.242188 -20.921875 63.328125 -17.773438 60.828125 -14.828125 C 58.335938 -11.890625 55.472656 -9.347656 52.234375 -7.203125 C 48.992188 -5.054688 45.929688 -3.617188 43.046875 -2.890625 C 35.628906 -1.003906 28.914062 -1.078125 22.90625 -3.109375 C 16.90625 -5.148438 11.628906 -8.414062 7.078125 -12.90625 C 2.535156 -17.40625 -1.265625 -22.75 -4.328125 -28.9375 C -7.390625 -35.132812 -9.742188 -41.476562 -11.390625 -47.96875 C -12.492188 -52.300781 -13.289062 -57.148438 -13.78125 -62.515625 C -14.269531 -67.878906 -14.347656 -73.367188 -14.015625 -78.984375 C -13.691406 -84.609375 -12.882812 -90.164062 -11.59375 -95.65625 C -10.300781 -101.144531 -8.425781 -106.175781 -5.96875 -110.75 C -3.507812 -115.320312 -0.429688 -119.285156 3.265625 -122.640625 C 6.972656 -125.992188 11.398438 -128.328125 16.546875 -129.640625 C 21.597656 -130.921875 26.144531 -130.734375 30.1875 -129.078125 C 34.226562 -127.429688 37.769531 -124.9375 40.8125 -121.59375 C 43.863281 -118.25 46.382812 -114.390625 48.375 -110.015625 C 50.363281 -105.640625 51.882812 -101.390625 52.9375 -97.265625 Z M 52.9375 -97.265625 "/></g></g></g><g fill="#315f92" fill-opacity="1"><g transform="translate(392.814651, 191.676996)"><g><path d="M 68.0625 -36.09375 C 68.457031 -32.5 67.707031 -28.859375 65.8125 -25.171875 C 63.925781 -21.492188 61.414062 -18.113281 58.28125 -15.03125 C 55.15625 -11.957031 51.722656 -9.382812 47.984375 -7.3125 C 44.242188 -5.238281 40.738281 -4.019531 37.46875 -3.65625 C 31.863281 -3.03125 26.710938 -3.875 22.015625 -6.1875 C 17.328125 -8.507812 13.257812 -11.675781 9.8125 -15.6875 C 6.375 -19.695312 3.597656 -24.234375 1.484375 -29.296875 C -0.617188 -34.367188 -1.945312 -39.382812 -2.5 -44.34375 C -3.082031 -49.632812 -2.96875 -55.375 -2.15625 -61.5625 C -1.34375 -67.75 0.285156 -73.546875 2.734375 -78.953125 C 5.191406 -84.359375 8.53125 -89.003906 12.75 -92.890625 C 16.96875 -96.785156 22.253906 -99.082031 28.609375 -99.78125 C 32.203125 -100.175781 35.703125 -99.945312 39.109375 -99.09375 C 42.523438 -98.25 45.570312 -96.851562 48.25 -94.90625 C 50.925781 -92.957031 53.171875 -90.53125 54.984375 -87.625 C 56.804688 -84.71875 57.929688 -81.363281 58.359375 -77.5625 C 58.910156 -72.582031 58.367188 -67.8125 56.734375 -63.25 C 55.097656 -58.6875 52.707031 -54.625 49.5625 -51.0625 C 46.425781 -47.5 42.691406 -44.492188 38.359375 -42.046875 C 34.023438 -39.597656 29.5 -38 24.78125 -37.25 C 25.539062 -34.226562 27.023438 -32.144531 29.234375 -31 C 31.441406 -29.851562 33.972656 -29.441406 36.828125 -29.765625 C 38.941406 -29.992188 40.945312 -30.75 42.84375 -32.03125 C 44.738281 -33.3125 46.5625 -34.710938 48.3125 -36.234375 C 50.070312 -37.765625 51.816406 -39.160156 53.546875 -40.421875 C 55.273438 -41.679688 57.085938 -42.421875 58.984375 -42.640625 C 61.109375 -42.867188 63.09375 -42.390625 64.9375 -41.203125 C 66.78125 -40.023438 67.820312 -38.320312 68.0625 -36.09375 Z M 38.078125 -72.109375 C 37.929688 -73.484375 37.40625 -74.863281 36.5 -76.25 C 35.59375 -77.644531 34.347656 -78.257812 32.765625 -78.09375 C 30.441406 -77.832031 28.550781 -77.007812 27.09375 -75.625 C 25.644531 -74.238281 24.492188 -72.5625 23.640625 -70.59375 C 22.785156 -68.625 22.1875 -66.546875 21.84375 -64.359375 C 21.5 -62.179688 21.375 -60.1875 21.46875 -58.375 C 22.90625 -58.863281 24.628906 -59.488281 26.640625 -60.25 C 28.648438 -61.007812 30.53125 -61.9375 32.28125 -63.03125 C 34.03125 -64.132812 35.484375 -65.445312 36.640625 -66.96875 C 37.804688 -68.488281 38.285156 -70.203125 38.078125 -72.109375 Z M 38.078125 -72.109375 "/></g></g></g><g fill="#315f92" fill-opacity="1"><g transform="translate(459.249783, 184.30303)"><g><path d="M 41.875 6.359375 C 34.320312 6.242188 28.457031 5.171875 24.28125 3.140625 C 20.113281 1.117188 17.019531 -1.710938 15 -5.359375 C 12.976562 -9.003906 11.789062 -13.382812 11.4375 -18.5 C 11.082031 -23.613281 10.953125 -29.304688 11.046875 -35.578125 C 11.117188 -40.578125 11.347656 -45.597656 11.734375 -50.640625 C 12.128906 -55.691406 12.6875 -61.082031 13.40625 -66.8125 C 11.914062 -66.84375 10.742188 -66.835938 9.890625 -66.796875 C 9.046875 -66.753906 8.359375 -66.738281 7.828125 -66.75 C 4.421875 -66.789062 1.476562 -67.570312 -1 -69.09375 C -3.476562 -70.625 -4.695312 -72.925781 -4.65625 -76 C -4.625 -77.914062 -3.878906 -79.609375 -2.421875 -81.078125 C -0.960938 -82.546875 0.890625 -83.796875 3.140625 -84.828125 C 5.390625 -85.859375 7.820312 -86.671875 10.4375 -87.265625 C 13.050781 -87.867188 15.53125 -88.265625 17.875 -88.453125 C 17.914062 -91.429688 18.175781 -94.722656 18.65625 -98.328125 C 19.132812 -101.929688 19.953125 -105.289062 21.109375 -108.40625 C 22.273438 -111.53125 23.828125 -114.144531 25.765625 -116.25 C 27.710938 -118.351562 30.175781 -119.382812 33.15625 -119.34375 C 34.863281 -119.320312 36.375 -118.796875 37.6875 -117.765625 C 39 -116.734375 40.066406 -115.441406 40.890625 -113.890625 C 41.722656 -112.335938 42.335938 -110.597656 42.734375 -108.671875 C 43.128906 -106.742188 43.316406 -104.875 43.296875 -103.0625 C 43.265625 -100.9375 43.070312 -98.757812 42.71875 -96.53125 C 42.375 -94.300781 41.75 -91.546875 40.84375 -88.265625 C 42.65625 -88.453125 43.878906 -88.566406 44.515625 -88.609375 C 45.160156 -88.660156 45.75 -88.679688 46.28125 -88.671875 C 48.09375 -88.648438 49.976562 -88.460938 51.9375 -88.109375 C 53.90625 -87.753906 55.707031 -87.191406 57.34375 -86.421875 C 58.976562 -85.660156 60.316406 -84.660156 61.359375 -83.421875 C 62.398438 -82.191406 62.910156 -80.722656 62.890625 -79.015625 C 62.859375 -77.097656 62.0625 -75.410156 60.5 -73.953125 C 58.9375 -72.492188 56.976562 -71.25 54.625 -70.21875 C 52.269531 -69.1875 49.757812 -68.394531 47.09375 -67.84375 C 44.425781 -67.300781 41.921875 -66.941406 39.578125 -66.765625 C 38.878906 -62.410156 38.367188 -58.398438 38.046875 -54.734375 C 37.734375 -51.078125 37.390625 -47.382812 37.015625 -43.65625 C 36.765625 -41.863281 36.546875 -40.035156 36.359375 -38.171875 C 36.179688 -36.304688 36.082031 -34.414062 36.0625 -32.5 C 36.039062 -31.125 36.066406 -29.503906 36.140625 -27.640625 C 36.210938 -25.773438 36.554688 -23.988281 37.171875 -22.28125 C 37.796875 -20.570312 38.785156 -19.09375 40.140625 -17.84375 C 41.503906 -16.601562 43.410156 -15.96875 45.859375 -15.9375 C 47.347656 -15.914062 48.890625 -16.023438 50.484375 -16.265625 C 52.085938 -16.503906 53.6875 -16.613281 55.28125 -16.59375 C 58.050781 -16.550781 60.035156 -15.5625 61.234375 -13.625 C 62.429688 -11.695312 63.007812 -9.242188 62.96875 -6.265625 C 62.9375 -4.035156 62.238281 -2.109375 60.875 -0.484375 C 59.519531 1.140625 57.820312 2.441406 55.78125 3.421875 C 53.75 4.410156 51.484375 5.15625 48.984375 5.65625 C 46.484375 6.15625 44.113281 6.390625 41.875 6.359375 Z M 41.875 6.359375 "/></g></g></g><g fill="#315f92" fill-opacity="1"><g transform="translate(514.713226, 184.774958)"><g><path d="M 40.875 11.0625 C 33.382812 10.09375 27.679688 8.363281 23.765625 5.875 C 19.859375 3.382812 17.109375 0.21875 15.515625 -3.625 C 13.921875 -7.46875 13.234375 -11.953125 13.453125 -17.078125 C 13.679688 -22.203125 14.195312 -27.875 15 -34.09375 C 15.632812 -39.050781 16.429688 -44.015625 17.390625 -48.984375 C 18.359375 -53.953125 19.519531 -59.242188 20.875 -64.859375 C 19.40625 -65.054688 18.242188 -65.179688 17.390625 -65.234375 C 16.546875 -65.285156 15.859375 -65.347656 15.328125 -65.421875 C 11.953125 -65.859375 9.117188 -66.972656 6.828125 -68.765625 C 4.546875 -70.566406 3.597656 -72.992188 3.984375 -76.046875 C 4.234375 -77.953125 5.164062 -79.550781 6.78125 -80.84375 C 8.394531 -82.132812 10.375 -83.164062 12.71875 -83.9375 C 15.070312 -84.707031 17.582031 -85.238281 20.25 -85.53125 C 22.914062 -85.832031 25.425781 -85.9375 27.78125 -85.84375 C 28.15625 -88.800781 28.785156 -92.046875 29.671875 -95.578125 C 30.566406 -99.109375 31.765625 -102.359375 33.265625 -105.328125 C 34.773438 -108.304688 36.613281 -110.726562 38.78125 -112.59375 C 40.945312 -114.457031 43.507812 -115.195312 46.46875 -114.8125 C 48.15625 -114.59375 49.59375 -113.898438 50.78125 -112.734375 C 51.96875 -111.566406 52.882812 -110.160156 53.53125 -108.515625 C 54.175781 -106.878906 54.585938 -105.082031 54.765625 -103.125 C 54.941406 -101.175781 54.914062 -99.304688 54.6875 -97.515625 C 54.414062 -95.398438 53.976562 -93.253906 53.375 -91.078125 C 52.78125 -88.898438 51.847656 -86.234375 50.578125 -83.078125 C 52.410156 -83.054688 53.644531 -83.03125 54.28125 -83 C 54.914062 -82.976562 55.492188 -82.929688 56.015625 -82.859375 C 57.816406 -82.628906 59.671875 -82.226562 61.578125 -81.65625 C 63.492188 -81.09375 65.21875 -80.335938 66.75 -79.390625 C 68.289062 -78.441406 69.507812 -77.296875 70.40625 -75.953125 C 71.3125 -74.609375 71.65625 -73.085938 71.4375 -71.390625 C 71.1875 -69.492188 70.203125 -67.90625 68.484375 -66.625 C 66.765625 -65.34375 64.675781 -64.320312 62.21875 -63.5625 C 59.769531 -62.8125 57.1875 -62.316406 54.46875 -62.078125 C 51.757812 -61.835938 49.234375 -61.765625 46.890625 -61.859375 C 45.703125 -57.597656 44.742188 -53.664062 44.015625 -50.0625 C 43.285156 -46.46875 42.519531 -42.84375 41.71875 -39.1875 C 41.269531 -37.414062 40.847656 -35.613281 40.453125 -33.78125 C 40.054688 -31.957031 39.738281 -30.097656 39.5 -28.203125 C 39.320312 -26.835938 39.164062 -25.222656 39.03125 -23.359375 C 38.894531 -21.503906 39.035156 -19.691406 39.453125 -17.921875 C 39.878906 -16.148438 40.695312 -14.566406 41.90625 -13.171875 C 43.125 -11.785156 44.945312 -10.9375 47.375 -10.625 C 48.851562 -10.4375 50.394531 -10.375 52 -10.4375 C 53.613281 -10.5 55.210938 -10.425781 56.796875 -10.21875 C 59.546875 -9.863281 61.40625 -8.65625 62.375 -6.59375 C 63.34375 -4.539062 63.640625 -2.035156 63.265625 0.921875 C 62.972656 3.128906 62.0625 4.960938 60.53125 6.421875 C 59 7.878906 57.164062 8.976562 55.03125 9.71875 C 52.894531 10.46875 50.554688 10.945312 48.015625 11.15625 C 45.472656 11.375 43.09375 11.34375 40.875 11.0625 Z M 40.875 11.0625 "/></g></g></g><g fill="#315f92" fill-opacity="1"><g transform="translate(569.286902, 191.025112)"><g><path d="M 76.4375 -9.578125 C 75.53125 -6.078125 73.539062 -2.941406 70.46875 -0.171875 C 67.394531 2.597656 63.84375 4.863281 59.8125 6.625 C 55.789062 8.382812 51.664062 9.570312 47.4375 10.1875 C 43.21875 10.800781 39.515625 10.695312 36.328125 9.875 C 30.867188 8.46875 26.351562 5.847656 22.78125 2.015625 C 19.21875 -1.816406 16.539062 -6.21875 14.75 -11.1875 C 12.957031 -16.15625 11.972656 -21.378906 11.796875 -26.859375 C 11.617188 -32.347656 12.148438 -37.507812 13.390625 -42.34375 C 14.722656 -47.5 16.867188 -52.820312 19.828125 -58.3125 C 22.785156 -63.8125 26.367188 -68.65625 30.578125 -72.84375 C 34.796875 -77.03125 39.566406 -80.191406 44.890625 -82.328125 C 50.210938 -84.460938 55.96875 -84.734375 62.15625 -83.140625 C 65.65625 -82.234375 68.847656 -80.773438 71.734375 -78.765625 C 74.628906 -76.765625 76.976562 -74.375 78.78125 -71.59375 C 80.59375 -68.820312 81.835938 -65.757812 82.515625 -62.40625 C 83.191406 -59.050781 83.050781 -55.515625 82.09375 -51.796875 C 80.84375 -46.960938 78.640625 -42.695312 75.484375 -39 C 72.328125 -35.3125 68.648438 -32.359375 64.453125 -30.140625 C 60.253906 -27.929688 55.695312 -26.445312 50.78125 -25.6875 C 45.863281 -24.9375 41.066406 -25.050781 36.390625 -26.03125 C 36.023438 -22.9375 36.671875 -20.460938 38.328125 -18.609375 C 39.992188 -16.753906 42.210938 -15.46875 44.984375 -14.75 C 47.046875 -14.21875 49.1875 -14.210938 51.40625 -14.734375 C 53.632812 -15.265625 55.835938 -15.929688 58.015625 -16.734375 C 60.203125 -17.546875 62.332031 -18.234375 64.40625 -18.796875 C 66.476562 -19.359375 68.4375 -19.398438 70.28125 -18.921875 C 72.351562 -18.390625 74.035156 -17.238281 75.328125 -15.46875 C 76.628906 -13.707031 77 -11.742188 76.4375 -9.578125 Z M 61.203125 -53.90625 C 61.546875 -55.25 61.539062 -56.726562 61.1875 -58.34375 C 60.84375 -59.96875 59.894531 -60.984375 58.34375 -61.390625 C 56.082031 -61.972656 54.023438 -61.867188 52.171875 -61.078125 C 50.328125 -60.296875 48.65625 -59.132812 47.15625 -57.59375 C 45.664062 -56.050781 44.367188 -54.320312 43.265625 -52.40625 C 42.171875 -50.5 41.351562 -48.6875 40.8125 -46.96875 C 42.3125 -46.90625 44.132812 -46.875 46.28125 -46.875 C 48.425781 -46.875 50.507812 -47.078125 52.53125 -47.484375 C 54.5625 -47.890625 56.394531 -48.597656 58.03125 -49.609375 C 59.664062 -50.617188 60.722656 -52.050781 61.203125 -53.90625 Z M 61.203125 -53.90625 "/></g></g></g><g fill="#315f92" fill-opacity="1"><g transform="translate(270.293357, 427.740566)"><g><path d="M 7.15625 -125.4375 C 8.132812 -123.207031 8.28125 -120.953125 7.59375 -118.671875 C 6.914062 -116.390625 5.835938 -114.285156 4.359375 -112.359375 C 3.066406 -110.523438 1.757812 -108.59375 0.4375 -106.5625 C -0.875 -104.53125 -1.972656 -102.414062 -2.859375 -100.21875 C -3.753906 -98.03125 -4.28125 -95.796875 -4.4375 -93.515625 C -4.601562 -91.242188 -4.175781 -88.9375 -3.15625 -86.59375 C -2.257812 -84.550781 -0.960938 -82.914062 0.734375 -81.6875 C 2.441406 -80.457031 4.351562 -79.347656 6.46875 -78.359375 C 8.582031 -77.367188 10.867188 -76.394531 13.328125 -75.4375 C 15.785156 -74.476562 18.175781 -73.257812 20.5 -71.78125 C 22.832031 -70.3125 25.0625 -68.476562 27.1875 -66.28125 C 29.3125 -64.082031 31.144531 -61.226562 32.6875 -57.71875 C 33.75 -55.28125 34.441406 -52.300781 34.765625 -48.78125 C 35.085938 -45.269531 35.054688 -41.570312 34.671875 -37.6875 C 34.285156 -33.800781 33.539062 -29.875 32.4375 -25.90625 C 31.34375 -21.9375 29.957031 -18.222656 28.28125 -14.765625 C 26.601562 -11.304688 24.613281 -8.226562 22.3125 -5.53125 C 20.019531 -2.84375 17.507812 -0.898438 14.78125 0.296875 C 11.75 1.628906 8.703125 1.984375 5.640625 1.359375 C 2.578125 0.734375 0.320312 -1.234375 -1.125 -4.546875 C -2.101562 -6.785156 -2.472656 -9.09375 -2.234375 -11.46875 C -1.992188 -13.84375 -1.484375 -16.25 -0.703125 -18.6875 C 0.078125 -21.125 1.054688 -23.582031 2.234375 -26.0625 C 3.410156 -28.550781 4.410156 -30.960938 5.234375 -33.296875 C 6.066406 -35.640625 6.625 -37.945312 6.90625 -40.21875 C 7.1875 -42.5 6.878906 -44.660156 5.984375 -46.703125 C 4.742188 -49.523438 2.472656 -51.984375 -0.828125 -54.078125 C -4.128906 -56.171875 -7.691406 -58.265625 -11.515625 -60.359375 C -15.335938 -62.460938 -18.972656 -64.726562 -22.421875 -67.15625 C -25.867188 -69.59375 -28.335938 -72.515625 -29.828125 -75.921875 C -31.671875 -80.109375 -32.488281 -85.003906 -32.28125 -90.609375 C -32.070312 -96.222656 -31.054688 -101.722656 -29.234375 -107.109375 C -27.421875 -112.492188 -24.875 -117.414062 -21.59375 -121.875 C -18.320312 -126.332031 -14.546875 -129.503906 -10.265625 -131.390625 C -6.859375 -132.878906 -3.488281 -133.132812 -0.15625 -132.15625 C 3.175781 -131.1875 5.613281 -128.945312 7.15625 -125.4375 Z M 7.15625 -125.4375 "/></g></g></g><g fill="#315f92" fill-opacity="1"><g transform="translate(317.190394, 406.235698)"><g><path d="M 60.421875 -47.8125 C 61.460938 -44.351562 61.382812 -40.640625 60.1875 -36.671875 C 58.988281 -32.710938 57.125 -28.9375 54.59375 -25.34375 C 52.070312 -21.75 49.160156 -18.59375 45.859375 -15.875 C 42.566406 -13.15625 39.347656 -11.320312 36.203125 -10.375 C 30.796875 -8.75 25.570312 -8.648438 20.53125 -10.078125 C 15.5 -11.503906 10.925781 -13.878906 6.8125 -17.203125 C 2.707031 -20.523438 -0.835938 -24.484375 -3.828125 -29.078125 C -6.816406 -33.679688 -9.03125 -38.375 -10.46875 -43.15625 C -12.007812 -48.25 -12.941406 -53.910156 -13.265625 -60.140625 C -13.585938 -66.378906 -13.03125 -72.378906 -11.59375 -78.140625 C -10.15625 -83.898438 -7.710938 -89.070312 -4.265625 -93.65625 C -0.816406 -98.25 3.960938 -101.460938 10.078125 -103.296875 C 13.535156 -104.335938 17.019531 -104.75 20.53125 -104.53125 C 24.039062 -104.320312 27.289062 -103.5 30.28125 -102.0625 C 33.269531 -100.632812 35.921875 -98.65625 38.234375 -96.125 C 40.546875 -93.601562 42.253906 -90.503906 43.359375 -86.828125 C 44.804688 -82.046875 45.132812 -77.257812 44.34375 -72.46875 C 43.5625 -67.6875 41.945312 -63.257812 39.5 -59.1875 C 37.050781 -55.113281 33.921875 -51.476562 30.109375 -48.28125 C 26.304688 -45.09375 22.144531 -42.703125 17.625 -41.109375 C 18.914062 -38.285156 20.75 -36.507812 23.125 -35.78125 C 25.507812 -35.0625 28.078125 -35.113281 30.828125 -35.9375 C 32.867188 -36.550781 34.707031 -37.65625 36.34375 -39.25 C 37.976562 -40.851562 39.515625 -42.5625 40.953125 -44.375 C 42.398438 -46.195312 43.863281 -47.890625 45.34375 -49.453125 C 46.820312 -51.015625 48.472656 -52.066406 50.296875 -52.609375 C 52.347656 -53.222656 54.382812 -53.113281 56.40625 -52.28125 C 58.4375 -51.445312 59.773438 -49.957031 60.421875 -47.8125 Z M 24.40625 -77.8125 C 24.007812 -79.132812 23.238281 -80.398438 22.09375 -81.609375 C 20.957031 -82.816406 19.625 -83.191406 18.09375 -82.734375 C 15.863281 -82.054688 14.15625 -80.90625 12.96875 -79.28125 C 11.789062 -77.65625 10.960938 -75.796875 10.484375 -73.703125 C 10.003906 -71.609375 9.789062 -69.460938 9.84375 -67.265625 C 9.894531 -65.066406 10.132812 -63.082031 10.5625 -61.3125 C 11.882812 -62.050781 13.460938 -62.972656 15.296875 -64.078125 C 17.140625 -65.179688 18.816406 -66.429688 20.328125 -67.828125 C 21.847656 -69.234375 23.046875 -70.789062 23.921875 -72.5 C 24.796875 -74.207031 24.957031 -75.976562 24.40625 -77.8125 Z M 24.40625 -77.8125 "/></g></g></g><g fill="#315f92" fill-opacity="1"><g transform="translate(378.694732, 385.511784)"><g><path d="M 94.265625 -64.890625 C 94.515625 -62.878906 94.851562 -60.160156 95.28125 -56.734375 C 95.71875 -53.304688 96.109375 -49.578125 96.453125 -45.546875 C 96.804688 -41.515625 96.972656 -37.4375 96.953125 -33.3125 C 96.929688 -29.195312 96.570312 -25.429688 95.875 -22.015625 C 95.1875 -18.609375 94.128906 -15.738281 92.703125 -13.40625 C 91.273438 -11.082031 89.242188 -9.757812 86.609375 -9.4375 C 84.273438 -9.144531 82.378906 -9.894531 80.921875 -11.6875 C 79.460938 -13.488281 78.304688 -15.675781 77.453125 -18.25 C 76.597656 -20.820312 75.972656 -23.472656 75.578125 -26.203125 C 75.179688 -28.941406 74.882812 -31.097656 74.6875 -32.671875 C 74.082031 -37.429688 73.65625 -42.097656 73.40625 -46.671875 C 73.15625 -51.253906 72.734375 -55.914062 72.140625 -60.65625 C 72.066406 -61.1875 71.941406 -62.140625 71.765625 -63.515625 C 71.597656 -64.890625 71.320312 -66.25 70.9375 -67.59375 C 70.550781 -68.9375 70.054688 -70.101562 69.453125 -71.09375 C 68.847656 -72.09375 68.070312 -72.535156 67.125 -72.421875 C 65.226562 -72.179688 63.816406 -71.007812 62.890625 -68.90625 C 61.972656 -66.8125 61.3125 -64.394531 60.90625 -61.65625 C 60.5 -58.925781 60.300781 -56.25 60.3125 -53.625 C 60.320312 -51.007812 60.351562 -49.054688 60.40625 -47.765625 C 60.351562 -46.378906 60.425781 -44.300781 60.625 -41.53125 C 60.820312 -38.769531 60.992188 -35.738281 61.140625 -32.4375 C 61.285156 -29.132812 61.28125 -25.726562 61.125 -22.21875 C 60.96875 -18.71875 60.617188 -15.515625 60.078125 -12.609375 C 59.535156 -9.703125 58.6875 -7.265625 57.53125 -5.296875 C 56.382812 -3.328125 54.8125 -2.21875 52.8125 -1.96875 C 50.28125 -1.644531 48.1875 -2.503906 46.53125 -4.546875 C 44.882812 -6.597656 43.554688 -9.0625 42.546875 -11.9375 C 41.546875 -14.8125 40.773438 -17.769531 40.234375 -20.8125 C 39.691406 -23.851562 39.316406 -26.21875 39.109375 -27.90625 C 38.878906 -29.695312 38.6875 -31.4375 38.53125 -33.125 C 38.375 -34.820312 38.179688 -36.566406 37.953125 -38.359375 C 37.859375 -39.097656 37.707031 -40.3125 37.5 -42 C 37.289062 -43.6875 37.03125 -45.554688 36.71875 -47.609375 C 36.40625 -49.660156 36.03125 -51.785156 35.59375 -53.984375 C 35.15625 -56.179688 34.660156 -58.179688 34.109375 -59.984375 C 33.566406 -61.796875 32.90625 -63.238281 32.125 -64.3125 C 31.34375 -65.394531 30.53125 -65.882812 29.6875 -65.78125 C 28.3125 -65.613281 27.148438 -64.585938 26.203125 -62.703125 C 25.265625 -60.816406 24.519531 -58.628906 23.96875 -56.140625 C 23.425781 -53.660156 23.0625 -51.226562 22.875 -48.84375 C 22.695312 -46.46875 22.675781 -44.753906 22.8125 -43.703125 L 22.9375 -42.75 C 23.570312 -37.6875 24.507812 -32.765625 25.75 -27.984375 C 26.988281 -23.210938 27.925781 -18.296875 28.5625 -13.234375 C 28.925781 -10.273438 28.316406 -7.4375 26.734375 -4.71875 C 25.148438 -2 22.664062 -0.429688 19.28125 -0.015625 C 16.851562 0.296875 14.734375 -0.367188 12.921875 -2.015625 C 11.117188 -3.660156 9.5 -5.894531 8.0625 -8.71875 C 6.632812 -11.550781 5.410156 -14.695312 4.390625 -18.15625 C 3.367188 -21.625 2.535156 -25.054688 1.890625 -28.453125 C 1.242188 -31.859375 0.722656 -34.953125 0.328125 -37.734375 C -0.0664062 -40.523438 -0.351562 -42.609375 -0.53125 -43.984375 C -0.726562 -45.566406 -1.046875 -47.882812 -1.484375 -50.9375 C -1.921875 -53.988281 -2.285156 -57.316406 -2.578125 -60.921875 C -2.878906 -64.535156 -3.050781 -68.238281 -3.09375 -72.03125 C -3.132812 -75.832031 -2.875 -79.320312 -2.3125 -82.5 C -1.757812 -85.6875 -0.84375 -88.351562 0.4375 -90.5 C 1.726562 -92.644531 3.585938 -93.867188 6.015625 -94.171875 C 8.765625 -94.515625 11.101562 -94.054688 13.03125 -92.796875 C 14.957031 -91.535156 16.101562 -89.425781 16.46875 -86.46875 C 16.550781 -85.84375 16.601562 -85.207031 16.625 -84.5625 C 16.65625 -83.925781 16.648438 -83.335938 16.609375 -82.796875 C 17.566406 -84.640625 18.773438 -86.535156 20.234375 -88.484375 C 21.703125 -90.429688 23.320312 -92.238281 25.09375 -93.90625 C 26.875 -95.570312 28.816406 -96.992188 30.921875 -98.171875 C 33.023438 -99.359375 35.179688 -100.09375 37.390625 -100.375 C 39.503906 -100.632812 41.476562 -100.285156 43.3125 -99.328125 C 45.144531 -98.378906 46.800781 -97.113281 48.28125 -95.53125 C 49.769531 -93.945312 51.0625 -92.207031 52.15625 -90.3125 C 53.257812 -88.414062 54.082031 -86.585938 54.625 -84.828125 C 55.4375 -86.867188 56.484375 -88.957031 57.765625 -91.09375 C 59.054688 -93.238281 60.507812 -95.160156 62.125 -96.859375 C 63.738281 -98.566406 65.566406 -100.03125 67.609375 -101.25 C 69.648438 -102.46875 71.832031 -103.222656 74.15625 -103.515625 C 76.363281 -103.796875 78.359375 -103.242188 80.140625 -101.859375 C 81.929688 -100.484375 83.5625 -98.625 85.03125 -96.28125 C 86.5 -93.945312 87.742188 -91.265625 88.765625 -88.234375 C 89.796875 -85.203125 90.707031 -82.210938 91.5 -79.265625 C 92.289062 -76.316406 92.898438 -73.550781 93.328125 -70.96875 C 93.765625 -68.394531 94.078125 -66.367188 94.265625 -64.890625 Z M 94.265625 -64.890625 "/></g></g></g><g fill="#315f92" fill-opacity="1"><g transform="translate(476.583879, 373.757534)"><g><path d="M 73.546875 -19.125 C 73.460938 -17.21875 73.269531 -14.722656 72.96875 -11.640625 C 72.664062 -8.566406 72.070312 -5.585938 71.1875 -2.703125 C 70.3125 0.179688 69.03125 2.648438 67.34375 4.703125 C 65.65625 6.753906 63.375 7.710938 60.5 7.578125 C 56.5625 7.398438 53.585938 5.984375 51.578125 3.328125 C 49.578125 0.679688 48.71875 -2.539062 49 -6.34375 C 45.457031 -3.53125 41.492188 -1.378906 37.109375 0.109375 C 32.734375 1.609375 28.3125 2.257812 23.84375 2.0625 C 20.769531 1.914062 17.882812 1.035156 15.1875 -0.578125 C 12.488281 -2.203125 10.132812 -4.226562 8.125 -6.65625 C 6.113281 -9.082031 4.535156 -11.785156 3.390625 -14.765625 C 2.253906 -17.753906 1.753906 -20.679688 1.890625 -23.546875 C 2.117188 -28.648438 3.882812 -33.039062 7.1875 -36.71875 C 10.5 -40.394531 14.5 -43.484375 19.1875 -45.984375 C 23.882812 -48.484375 28.847656 -50.410156 34.078125 -51.765625 C 39.304688 -53.117188 43.957031 -53.96875 48.03125 -54.3125 C 48.050781 -54.84375 48.097656 -55.316406 48.171875 -55.734375 C 48.242188 -56.160156 48.289062 -56.640625 48.3125 -57.171875 C 48.46875 -60.472656 47.6875 -63.171875 45.96875 -65.265625 C 44.257812 -67.367188 41.757812 -68.5 38.46875 -68.65625 C 35.8125 -68.78125 33.503906 -68.429688 31.546875 -67.609375 C 29.597656 -66.796875 27.75 -65.875 26 -64.84375 C 24.25 -63.8125 22.5 -62.878906 20.75 -62.046875 C 19.007812 -61.222656 17.078125 -60.859375 14.953125 -60.953125 C 12.609375 -61.066406 10.648438 -61.898438 9.078125 -63.453125 C 7.503906 -65.015625 6.769531 -66.96875 6.875 -69.3125 C 7.039062 -72.8125 8.222656 -75.945312 10.421875 -78.71875 C 12.617188 -81.5 15.332031 -83.800781 18.5625 -85.625 C 21.789062 -87.445312 25.265625 -88.828125 28.984375 -89.765625 C 32.703125 -90.710938 36.101562 -91.117188 39.1875 -90.984375 C 42.050781 -90.847656 44.898438 -90.367188 47.734375 -89.546875 C 50.578125 -88.722656 53.238281 -87.535156 55.71875 -85.984375 C 58.195312 -84.429688 60.421875 -82.570312 62.390625 -80.40625 C 64.367188 -78.238281 65.9375 -75.742188 67.09375 -72.921875 C 68.820312 -68.898438 70.164062 -64.65625 71.125 -60.1875 C 72.09375 -55.726562 72.789062 -51.171875 73.21875 -46.515625 C 73.644531 -41.867188 73.859375 -37.226562 73.859375 -32.59375 C 73.859375 -27.96875 73.753906 -23.476562 73.546875 -19.125 Z M 48.28125 -25.390625 L 48.3125 -36.25 C 48.101562 -36.257812 47.890625 -36.296875 47.671875 -36.359375 C 47.460938 -36.421875 47.253906 -36.457031 47.046875 -36.46875 C 45.660156 -36.53125 43.914062 -36.265625 41.8125 -35.671875 C 39.707031 -35.085938 37.671875 -34.226562 35.703125 -33.09375 C 33.734375 -31.957031 32.050781 -30.671875 30.65625 -29.234375 C 29.257812 -27.804688 28.523438 -26.296875 28.453125 -24.703125 C 28.378906 -23.210938 28.859375 -22.175781 29.890625 -21.59375 C 30.929688 -21.019531 32.144531 -20.703125 33.53125 -20.640625 C 35.863281 -20.535156 38.382812 -21.03125 41.09375 -22.125 C 43.8125 -23.226562 46.207031 -24.316406 48.28125 -25.390625 Z M 48.28125 -25.390625 "/></g></g></g><g fill="#315f92" fill-opacity="1"><g transform="translate(548.288554, 377.807166)"><g><path d="M 47.8125 -105.28125 C 47.582031 -103.800781 46.984375 -102.539062 46.015625 -101.5 C 45.046875 -100.46875 43.863281 -99.601562 42.46875 -98.90625 C 41.070312 -98.207031 39.601562 -97.738281 38.0625 -97.5 C 36.519531 -97.257812 35.113281 -97.234375 33.84375 -97.421875 C 31.738281 -97.753906 29.976562 -98.566406 28.5625 -99.859375 C 27.15625 -101.160156 26.625 -102.910156 26.96875 -105.109375 C 27.207031 -106.679688 27.8125 -108.007812 28.78125 -109.09375 C 29.757812 -110.1875 30.890625 -111.035156 32.171875 -111.640625 C 33.460938 -112.253906 34.875 -112.65625 36.40625 -112.84375 C 37.9375 -113.039062 39.382812 -113.035156 40.75 -112.828125 C 42.738281 -112.515625 44.5 -111.753906 46.03125 -110.546875 C 47.570312 -109.335938 48.164062 -107.582031 47.8125 -105.28125 Z M 40.75 -51.46875 C 40.53125 -49.988281 40.289062 -48.4375 40.03125 -46.8125 C 39.78125 -45.1875 39.488281 -43.648438 39.15625 -42.203125 C 38.769531 -40.421875 38.34375 -38.03125 37.875 -35.03125 C 37.414062 -32.039062 36.8125 -28.828125 36.0625 -25.390625 C 35.3125 -21.960938 34.421875 -18.5 33.390625 -15 C 32.359375 -11.5 31.09375 -8.359375 29.59375 -5.578125 C 28.09375 -2.796875 26.332031 -0.625 24.3125 0.9375 C 22.289062 2.507812 19.957031 3.144531 17.3125 2.84375 C 15.300781 2.632812 13.742188 1.585938 12.640625 -0.296875 C 11.535156 -2.179688 10.742188 -4.535156 10.265625 -7.359375 C 9.785156 -10.179688 9.585938 -13.28125 9.671875 -16.65625 C 9.765625 -20.03125 9.953125 -23.285156 10.234375 -26.421875 C 10.515625 -29.554688 10.859375 -32.4375 11.265625 -35.0625 C 11.671875 -37.6875 11.972656 -39.632812 12.171875 -40.90625 C 12.429688 -42.582031 12.800781 -44.96875 13.28125 -48.0625 C 13.757812 -51.164062 14.378906 -54.488281 15.140625 -58.03125 C 15.898438 -61.570312 16.851562 -65.132812 18 -68.71875 C 19.15625 -72.300781 20.519531 -75.53125 22.09375 -78.40625 C 23.664062 -81.289062 25.492188 -83.539062 27.578125 -85.15625 C 29.660156 -86.769531 32.070312 -87.363281 34.8125 -86.9375 C 37.644531 -86.5 39.570312 -84.742188 40.59375 -81.671875 C 41.625 -78.609375 42.210938 -75.128906 42.359375 -71.234375 C 42.515625 -67.335938 42.351562 -63.515625 41.875 -59.765625 C 41.40625 -56.023438 41.03125 -53.257812 40.75 -51.46875 Z M 40.75 -51.46875 "/></g></g></g><g fill="#315f92" fill-opacity="1"><g transform="translate(581.620236, 381.67963)"><g><path d="M 47.25 17.21875 C 45.488281 16.757812 44.304688 15.59375 43.703125 13.71875 C 43.109375 11.851562 42.828125 9.828125 42.859375 7.640625 C 42.898438 5.453125 43.125 3.28125 43.53125 1.125 C 43.9375 -1.019531 44.289062 -2.65625 44.59375 -3.78125 C 45.414062 -6.863281 46.414062 -9.898438 47.59375 -12.890625 C 48.78125 -15.878906 50.015625 -18.847656 51.296875 -21.796875 C 52.585938 -24.753906 53.820312 -27.726562 55 -30.71875 C 56.1875 -33.71875 57.191406 -36.753906 58.015625 -39.828125 C 58.335938 -41.066406 58.640625 -42.421875 58.921875 -43.890625 C 59.210938 -45.359375 59.347656 -46.78125 59.328125 -48.15625 C 59.304688 -49.53125 58.992188 -50.734375 58.390625 -51.765625 C 57.796875 -52.804688 56.828125 -53.507812 55.484375 -53.875 C 54.554688 -54.113281 53.332031 -53.640625 51.8125 -52.453125 C 50.289062 -51.265625 48.785156 -49.847656 47.296875 -48.203125 C 45.804688 -46.566406 44.472656 -44.890625 43.296875 -43.171875 C 42.128906 -41.453125 41.421875 -40.128906 41.171875 -39.203125 C 40.566406 -36.941406 39.976562 -34.648438 39.40625 -32.328125 C 38.84375 -30.003906 38.242188 -27.660156 37.609375 -25.296875 L 35.234375 -16.359375 C 34.640625 -14.523438 33.976562 -12.660156 33.25 -10.765625 C 32.519531 -8.867188 31.707031 -7.054688 30.8125 -5.328125 C 30.007812 -3.546875 29.070312 -1.890625 28 -0.359375 C 26.9375 1.160156 25.742188 2.429688 24.421875 3.453125 C 23.097656 4.484375 21.660156 5.234375 20.109375 5.703125 C 18.554688 6.171875 16.851562 6.15625 15 5.65625 C 12.945312 5.113281 11.425781 3.992188 10.4375 2.296875 C 9.457031 0.609375 8.835938 -1.394531 8.578125 -3.71875 C 8.328125 -6.050781 8.367188 -8.578125 8.703125 -11.296875 C 9.046875 -14.015625 9.472656 -16.648438 9.984375 -19.203125 C 10.503906 -21.765625 11.070312 -24.09375 11.6875 -26.1875 C 12.300781 -28.289062 12.773438 -29.957031 13.109375 -31.1875 L 15.03125 -38.421875 C 16.070312 -42.328125 17.019531 -46.203125 17.875 -50.046875 C 18.738281 -53.890625 19.679688 -57.710938 20.703125 -61.515625 C 21.242188 -63.566406 21.96875 -66.175781 22.875 -69.34375 C 23.78125 -72.519531 25 -75.523438 26.53125 -78.359375 C 28.0625 -81.203125 29.929688 -83.484375 32.140625 -85.203125 C 34.359375 -86.929688 37.0625 -87.367188 40.25 -86.515625 C 41.6875 -86.128906 42.847656 -85.320312 43.734375 -84.09375 C 44.617188 -82.875 45.316406 -81.476562 45.828125 -79.90625 C 46.347656 -78.332031 46.679688 -76.695312 46.828125 -75 C 46.984375 -73.3125 47.070312 -71.863281 47.09375 -70.65625 C 48.5 -71.820312 50.070312 -72.882812 51.8125 -73.84375 C 53.5625 -74.800781 55.441406 -75.5625 57.453125 -76.125 C 59.472656 -76.6875 61.644531 -76.988281 63.96875 -77.03125 C 66.300781 -77.070312 68.851562 -76.722656 71.625 -75.984375 C 76.863281 -74.585938 80.609375 -72.238281 82.859375 -68.9375 C 85.117188 -65.644531 86.441406 -61.9375 86.828125 -57.8125 C 87.222656 -53.6875 87 -49.425781 86.15625 -45.03125 C 85.3125 -40.632812 84.425781 -36.691406 83.5 -33.203125 C 83.03125 -31.453125 82.179688 -28.894531 80.953125 -25.53125 C 79.722656 -22.175781 78.21875 -18.503906 76.4375 -14.515625 C 74.664062 -10.535156 72.628906 -6.507812 70.328125 -2.4375 C 68.023438 1.625 65.625 5.25 63.125 8.4375 C 60.625 11.625 58.019531 14.0625 55.3125 15.75 C 52.601562 17.445312 49.914062 17.9375 47.25 17.21875 Z M 47.25 17.21875 "/></g></g></g><g fill="#315f92" fill-opacity="1"><g transform="translate(648.572385, 399.146084)"><g><path d="M 77.015625 1.6875 C 75.609375 5.019531 73.179688 7.828125 69.734375 10.109375 C 66.296875 12.398438 62.457031 14.125 58.21875 15.28125 C 53.976562 16.4375 49.722656 17.015625 45.453125 17.015625 C 41.191406 17.015625 37.539062 16.375 34.5 15.09375 C 29.300781 12.894531 25.21875 9.640625 22.25 5.328125 C 19.28125 1.015625 17.269531 -3.726562 16.21875 -8.90625 C 15.175781 -14.082031 14.96875 -19.394531 15.59375 -24.84375 C 16.21875 -30.300781 17.5 -35.332031 19.4375 -39.9375 C 21.507812 -44.84375 24.40625 -49.796875 28.125 -54.796875 C 31.851562 -59.796875 36.109375 -64.054688 40.890625 -67.578125 C 45.671875 -71.109375 50.851562 -73.539062 56.4375 -74.875 C 62.019531 -76.21875 67.753906 -75.648438 73.640625 -73.171875 C 76.960938 -71.765625 79.90625 -69.859375 82.46875 -67.453125 C 85.039062 -65.046875 87.019531 -62.335938 88.40625 -59.328125 C 89.789062 -56.316406 90.566406 -53.097656 90.734375 -49.671875 C 90.910156 -46.253906 90.253906 -42.78125 88.765625 -39.25 C 86.828125 -34.644531 84.023438 -30.75 80.359375 -27.5625 C 76.703125 -24.375 72.632812 -21.988281 68.15625 -20.40625 C 63.6875 -18.832031 58.960938 -18.03125 53.984375 -18 C 49.003906 -17.96875 44.269531 -18.78125 39.78125 -20.4375 C 38.976562 -17.4375 39.265625 -14.894531 40.640625 -12.8125 C 42.015625 -10.726562 44.019531 -9.128906 46.65625 -8.015625 C 48.625 -7.179688 50.742188 -6.863281 53.015625 -7.0625 C 55.296875 -7.257812 57.578125 -7.597656 59.859375 -8.078125 C 62.140625 -8.554688 64.34375 -8.921875 66.46875 -9.171875 C 68.601562 -9.429688 70.546875 -9.191406 72.296875 -8.453125 C 74.265625 -7.617188 75.757812 -6.234375 76.78125 -4.296875 C 77.8125 -2.367188 77.890625 -0.375 77.015625 1.6875 Z M 68.421875 -44.375 C 68.960938 -45.65625 69.175781 -47.125 69.0625 -48.78125 C 68.945312 -50.4375 68.15625 -51.570312 66.6875 -52.1875 C 64.53125 -53.09375 62.476562 -53.296875 60.53125 -52.796875 C 58.59375 -52.304688 56.769531 -51.40625 55.0625 -50.09375 C 53.363281 -48.789062 51.832031 -47.269531 50.46875 -45.53125 C 49.101562 -43.800781 48.019531 -42.125 47.21875 -40.5 C 48.707031 -40.21875 50.515625 -39.914062 52.640625 -39.59375 C 54.765625 -39.28125 56.859375 -39.179688 58.921875 -39.296875 C 60.984375 -39.410156 62.894531 -39.84375 64.65625 -40.59375 C 66.414062 -41.351562 67.671875 -42.613281 68.421875 -44.375 Z M 68.421875 -44.375 "/></g></g></g></svg>