<svg width="27" height="26" viewBox="0 0 27 26" fill="none" xmlns="http://www.w3.org/2000/svg">
<line x1="11" y1="1" x2="27" y2="1" stroke="#DE0000" stroke-width="2"/>
<line x1="12" y1="25" x2="27" y2="25" stroke="#DE0000" stroke-width="2"/>
<line x1="26" y1="26" x2="26" y2="1" stroke="#DE0000" stroke-width="2"/>
<line x1="12" y1="26" x2="12" y2="15" stroke="#DE0000" stroke-width="2"/>
<line x1="12" y1="11" x2="12" y2="1" stroke="#DE0000" stroke-width="2"/>
<path d="M0.292893 12.2929C-0.0976311 12.6834 -0.0976311 13.3166 0.292893 13.7071L6.65685 20.0711C7.04738 20.4616 7.68054 20.4616 8.07107 20.0711C8.46159 19.6805 8.46159 19.0474 8.07107 18.6569L2.41421 13L8.07107 7.34315C8.46159 6.95262 8.46159 6.31946 8.07107 5.92893C7.68054 5.53841 7.04738 5.53841 6.65685 5.92893L0.292893 12.2929ZM17 13V12L1 12V13V14L17 14V13Z" fill="#DE0000"/>
</svg>
