<svg xmlns="http://www.w3.org/2000/svg" xmlns:xlink="http://www.w3.org/1999/xlink" width="1280" zoomAndPan="magnify" viewBox="0 0 960 540.000001" height="720" preserveAspectRatio="xMidYMid meet" version="1.0"><defs><g/><clipPath id="f5c7e88b2c"><path d="M 0.886719 0 L 959.113281 0 L 959.113281 539 L 0.886719 539 Z M 0.886719 0 " clip-rule="nonzero"/></clipPath><clipPath id="b967d7f117"><path d="M 22.855469 263.921875 L 124.601562 263.921875 L 124.601562 274.890625 L 22.855469 274.890625 Z M 22.855469 263.921875 " clip-rule="nonzero"/></clipPath><clipPath id="a259480bb0"><path d="M 835.398438 263.921875 L 937.144531 263.921875 L 937.144531 274.890625 L 835.398438 274.890625 Z M 835.398438 263.921875 " clip-rule="nonzero"/></clipPath><clipPath id="79ddb244e8"><path d="M 89 23 L 182 23 L 182 87 L 89 87 Z M 89 23 " clip-rule="nonzero"/></clipPath><clipPath id="18ab9e83f0"><path d="M 175.476562 86.1875 L 89.113281 32.398438 L 94.910156 23.085938 L 181.277344 76.875 Z M 175.476562 86.1875 " clip-rule="nonzero"/></clipPath><clipPath id="67a9cafb82"><path d="M 778 452 L 871 452 L 871 516 L 778 516 Z M 778 452 " clip-rule="nonzero"/></clipPath><clipPath id="62cc7126c9"><path d="M 865.183594 515.75 L 778.820312 461.960938 L 784.621094 452.652344 L 870.984375 506.441406 Z M 865.183594 515.75 " clip-rule="nonzero"/></clipPath><clipPath id="e81bc5f087"><path d="M 78 438 L 173 438 L 173 498 L 78 498 Z M 78 438 " clip-rule="nonzero"/></clipPath><clipPath id="947906dc0d"><path d="M 172.652344 448.027344 L 83.90625 497.792969 L 78.539062 488.222656 L 167.285156 438.460938 Z M 172.652344 448.027344 " clip-rule="nonzero"/></clipPath><clipPath id="06a5f361b0"><path d="M 787 41 L 882 41 L 882 101 L 787 101 Z M 787 41 " clip-rule="nonzero"/></clipPath><clipPath id="7af904b29f"><path d="M 881.371094 50.609375 L 792.625 100.375 L 787.257812 90.804688 L 876.003906 41.042969 Z M 881.371094 50.609375 " clip-rule="nonzero"/></clipPath></defs><g clip-path="url(#f5c7e88b2c)"><path fill="#ffffff" d="M 0.886719 0 L 959.113281 0 L 959.113281 539 L 0.886719 539 Z M 0.886719 0 " fill-opacity="1" fill-rule="nonzero"/><path fill="#98e179" d="M 0.886719 0 L 959.113281 0 L 959.113281 539 L 0.886719 539 Z M 0.886719 0 " fill-opacity="1" fill-rule="nonzero"/></g><g clip-path="url(#b967d7f117)"><path fill="#38b6ff" d="M 124.601562 305.972656 L 22.902344 305.972656 L 22.902344 232.839844 L 124.601562 232.839844 Z M 124.601562 305.972656 " fill-opacity="1" fill-rule="nonzero"/></g><g clip-path="url(#a259480bb0)"><path fill="#38b6ff" d="M 937.144531 305.972656 L 835.441406 305.972656 L 835.441406 232.839844 L 937.144531 232.839844 Z M 937.144531 305.972656 " fill-opacity="1" fill-rule="nonzero"/></g><g clip-path="url(#79ddb244e8)"><g clip-path="url(#18ab9e83f0)"><path fill="#ffbd59" d="M 159.042969 112.570312 L 72.71875 58.804688 L 111.382812 -3.273438 L 197.707031 50.492188 Z M 159.042969 112.570312 " fill-opacity="1" fill-rule="nonzero"/></g></g><g clip-path="url(#67a9cafb82)"><g clip-path="url(#62cc7126c9)"><path fill="#ffbd59" d="M 848.753906 542.132812 L 762.425781 488.367188 L 801.089844 426.292969 L 887.414062 480.058594 Z M 848.753906 542.132812 " fill-opacity="1" fill-rule="nonzero"/></g></g><g clip-path="url(#e81bc5f087)"><g clip-path="url(#947906dc0d)"><path fill="#ffbd59" d="M 187.851562 475.136719 L 99.148438 524.878906 L 63.378906 461.089844 L 152.082031 411.351562 Z M 187.851562 475.136719 " fill-opacity="1" fill-rule="nonzero"/></g></g><g clip-path="url(#06a5f361b0)"><g clip-path="url(#7af904b29f)"><path fill="#ffbd59" d="M 896.570312 77.71875 L 807.867188 127.460938 L 772.097656 63.671875 L 860.800781 13.933594 Z M 896.570312 77.71875 " fill-opacity="1" fill-rule="nonzero"/></g></g><g fill="#315f92" fill-opacity="1"><g transform="translate(371.687175, 171.720863)"><g><path d="M 55.5 -87.890625 C 56.425781 -82.835938 56.234375 -77.675781 54.921875 -72.40625 C 53.617188 -67.132812 51.5 -62.222656 48.5625 -57.671875 C 45.632812 -53.128906 42.0625 -49.1875 37.84375 -45.84375 C 33.625 -42.507812 29.0625 -40.25 24.15625 -39.0625 C 24.363281 -37.375 24.679688 -35.238281 25.109375 -32.65625 C 25.535156 -30.070312 25.863281 -27.347656 26.09375 -24.484375 C 26.332031 -21.628906 26.453125 -18.753906 26.453125 -15.859375 C 26.453125 -12.960938 26.164062 -10.300781 25.59375 -7.875 C 25.019531 -5.445312 24.09375 -3.390625 22.8125 -1.703125 C 21.53125 -0.0234375 19.765625 1.015625 17.515625 1.421875 C 14.890625 1.898438 12.644531 1.421875 10.78125 -0.015625 C 8.925781 -1.460938 7.378906 -3.328125 6.140625 -5.609375 C 4.898438 -7.890625 3.894531 -10.335938 3.125 -12.953125 C 2.363281 -15.566406 1.765625 -17.804688 1.328125 -19.671875 C 0.640625 -22.359375 0.0351562 -25.003906 -0.484375 -27.609375 C -1.015625 -30.210938 -1.53125 -32.867188 -2.03125 -35.578125 C -2.25 -36.796875 -2.660156 -39.0625 -3.265625 -42.375 C -3.878906 -45.695312 -4.550781 -49.488281 -5.28125 -53.75 C -6.019531 -58.019531 -6.765625 -62.476562 -7.515625 -67.125 C -8.273438 -71.769531 -8.921875 -76.09375 -9.453125 -80.09375 C -9.992188 -84.101562 -10.40625 -87.53125 -10.6875 -90.375 C -10.96875 -93.226562 -10.960938 -94.921875 -10.671875 -95.453125 C -10.597656 -95.566406 -10.359375 -95.828125 -9.953125 -96.234375 C -9.554688 -96.648438 -9.101562 -97.070312 -8.59375 -97.5 C -8.082031 -97.9375 -7.617188 -98.335938 -7.203125 -98.703125 C -6.796875 -99.066406 -6.503906 -99.3125 -6.328125 -99.4375 C -2.472656 -102.664062 1.859375 -105.632812 6.671875 -108.34375 C 11.484375 -111.0625 16.414062 -112.882812 21.46875 -113.8125 C 25.769531 -114.601562 29.832031 -114.453125 33.65625 -113.359375 C 37.476562 -112.273438 40.890625 -110.535156 43.890625 -108.140625 C 46.890625 -105.742188 49.390625 -102.769531 51.390625 -99.21875 C 53.398438 -95.675781 54.769531 -91.898438 55.5 -87.890625 Z M 31.828125 -80.203125 C 31.484375 -82.066406 30.738281 -83.617188 29.59375 -84.859375 C 28.457031 -86.109375 26.859375 -86.546875 24.796875 -86.171875 C 23.023438 -85.835938 21.316406 -85.15625 19.671875 -84.125 C 18.023438 -83.101562 16.519531 -82.078125 15.15625 -81.046875 C 16.03125 -77.828125 16.867188 -74.695312 17.671875 -71.65625 C 18.472656 -68.613281 19.078125 -65.441406 19.484375 -62.140625 C 20.847656 -63.160156 22.328125 -64.320312 23.921875 -65.625 C 25.523438 -66.9375 26.960938 -68.335938 28.234375 -69.828125 C 29.503906 -71.316406 30.507812 -72.925781 31.25 -74.65625 C 32 -76.382812 32.191406 -78.234375 31.828125 -80.203125 Z M 31.828125 -80.203125 "/></g></g></g><g fill="#315f92" fill-opacity="1"><g transform="translate(435.055696, 160.716044)"><g><path d="M 24.796875 -88.359375 C 25.160156 -83.253906 25.304688 -78.097656 25.234375 -72.890625 C 25.171875 -67.691406 25.328125 -62.484375 25.703125 -57.265625 C 26.171875 -50.535156 26.851562 -43.816406 27.75 -37.109375 C 28.65625 -30.410156 29.347656 -23.648438 29.828125 -16.828125 C 29.953125 -15.117188 29.992188 -13.1875 29.953125 -11.03125 C 29.910156 -8.882812 29.597656 -6.882812 29.015625 -5.03125 C 28.441406 -3.1875 27.484375 -1.597656 26.140625 -0.265625 C 24.796875 1.054688 22.941406 1.800781 20.578125 1.96875 C 18.296875 2.132812 16.25 1.164062 14.4375 -0.9375 C 12.625 -3.050781 11.050781 -5.800781 9.71875 -9.1875 C 8.394531 -12.570312 7.222656 -16.367188 6.203125 -20.578125 C 5.191406 -24.796875 4.378906 -28.910156 3.765625 -32.921875 C 3.148438 -36.929688 2.648438 -40.613281 2.265625 -43.96875 C 1.890625 -47.320312 1.644531 -49.804688 1.53125 -51.421875 C 1.40625 -53.222656 1.289062 -55.835938 1.1875 -59.265625 C 1.09375 -62.691406 1.140625 -66.410156 1.328125 -70.421875 C 1.523438 -74.429688 1.882812 -78.523438 2.40625 -82.703125 C 2.925781 -86.890625 3.726562 -90.710938 4.8125 -94.171875 C 5.90625 -97.628906 7.300781 -100.488281 9 -102.75 C 10.695312 -105.019531 12.820312 -106.242188 15.375 -106.421875 C 17.46875 -106.566406 19.109375 -105.988281 20.296875 -104.6875 C 21.484375 -103.394531 22.378906 -101.796875 22.984375 -99.890625 C 23.597656 -97.984375 24.023438 -95.960938 24.265625 -93.828125 C 24.515625 -91.703125 24.691406 -89.878906 24.796875 -88.359375 Z M 24.796875 -88.359375 "/></g></g></g><g fill="#315f92" fill-opacity="1"><g transform="translate(467.245708, 157.288318)"><g><path d="M 65.640625 -17.46875 C 65.566406 -15.75 65.40625 -13.515625 65.15625 -10.765625 C 64.90625 -8.023438 64.394531 -5.363281 63.625 -2.78125 C 62.851562 -0.195312 61.710938 2.015625 60.203125 3.859375 C 58.703125 5.703125 56.671875 6.570312 54.109375 6.46875 C 50.585938 6.332031 47.925781 5.082031 46.125 2.71875 C 44.320312 0.363281 43.535156 -2.523438 43.765625 -5.953125 C 40.617188 -3.398438 37.09375 -1.441406 33.1875 -0.078125 C 29.28125 1.285156 25.332031 1.882812 21.34375 1.71875 C 18.582031 1.613281 15.992188 0.84375 13.578125 -0.59375 C 11.160156 -2.03125 9.046875 -3.828125 7.234375 -5.984375 C 5.421875 -8.148438 4 -10.5625 2.96875 -13.21875 C 1.9375 -15.875 1.472656 -18.488281 1.578125 -21.0625 C 1.753906 -25.625 3.3125 -29.554688 6.25 -32.859375 C 9.195312 -36.160156 12.757812 -38.941406 16.9375 -41.203125 C 21.125 -43.460938 25.546875 -45.207031 30.203125 -46.4375 C 34.867188 -47.675781 39.019531 -48.460938 42.65625 -48.796875 C 42.664062 -49.265625 42.703125 -49.6875 42.765625 -50.0625 C 42.828125 -50.445312 42.867188 -50.878906 42.890625 -51.359375 C 43.015625 -54.304688 42.304688 -56.710938 40.765625 -58.578125 C 39.222656 -60.453125 36.976562 -61.453125 34.03125 -61.578125 C 31.664062 -61.671875 29.609375 -61.34375 27.859375 -60.59375 C 26.109375 -59.851562 24.453125 -59.015625 22.890625 -58.078125 C 21.335938 -57.148438 19.78125 -56.3125 18.21875 -55.5625 C 16.664062 -54.820312 14.941406 -54.488281 13.046875 -54.5625 C 10.960938 -54.644531 9.210938 -55.378906 7.796875 -56.765625 C 6.378906 -58.160156 5.710938 -59.90625 5.796875 -62 C 5.921875 -65.125 6.960938 -67.929688 8.921875 -70.421875 C 10.878906 -72.910156 13.289062 -74.976562 16.15625 -76.625 C 19.019531 -78.269531 22.113281 -79.523438 25.4375 -80.390625 C 28.757812 -81.253906 31.796875 -81.628906 34.546875 -81.515625 C 37.109375 -81.410156 39.660156 -81 42.203125 -80.28125 C 44.742188 -79.5625 47.125 -78.515625 49.34375 -77.140625 C 51.570312 -75.765625 53.578125 -74.109375 55.359375 -72.171875 C 57.140625 -70.242188 58.546875 -68.023438 59.578125 -65.515625 C 61.160156 -61.929688 62.390625 -58.144531 63.265625 -54.15625 C 64.148438 -50.175781 64.796875 -46.109375 65.203125 -41.953125 C 65.609375 -37.804688 65.820312 -33.660156 65.84375 -29.515625 C 65.863281 -25.378906 65.796875 -21.363281 65.640625 -17.46875 Z M 43.03125 -22.953125 L 43 -32.640625 C 42.8125 -32.648438 42.617188 -32.679688 42.421875 -32.734375 C 42.234375 -32.796875 42.046875 -32.828125 41.859375 -32.828125 C 40.617188 -32.878906 39.054688 -32.632812 37.171875 -32.09375 C 35.296875 -31.550781 33.484375 -30.769531 31.734375 -29.75 C 29.992188 -28.726562 28.503906 -27.578125 27.265625 -26.296875 C 26.023438 -25.015625 25.375 -23.664062 25.3125 -22.25 C 25.257812 -20.914062 25.695312 -19.992188 26.625 -19.484375 C 27.550781 -18.972656 28.628906 -18.691406 29.859375 -18.640625 C 31.941406 -18.554688 34.195312 -19.007812 36.625 -20 C 39.050781 -20.988281 41.1875 -21.972656 43.03125 -22.953125 Z M 43.03125 -22.953125 "/></g></g></g><g fill="#315f92" fill-opacity="1"><g transform="translate(529.690013, 159.370503)"><g><path d="M 43.296875 12.078125 C 41.703125 11.773438 40.570312 10.8125 39.90625 9.1875 C 39.25 7.5625 38.859375 5.773438 38.734375 3.828125 C 38.609375 1.878906 38.648438 -0.0664062 38.859375 -2.015625 C 39.078125 -3.960938 39.285156 -5.453125 39.484375 -6.484375 C 39.992188 -9.285156 40.671875 -12.054688 41.515625 -14.796875 C 42.367188 -17.546875 43.257812 -20.285156 44.1875 -23.015625 C 45.125 -25.742188 46.015625 -28.476562 46.859375 -31.21875 C 47.710938 -33.957031 48.394531 -36.726562 48.90625 -39.53125 C 49.113281 -40.65625 49.296875 -41.878906 49.453125 -43.203125 C 49.609375 -44.523438 49.628906 -45.800781 49.515625 -47.03125 C 49.398438 -48.257812 49.035156 -49.316406 48.421875 -50.203125 C 47.816406 -51.097656 46.90625 -51.65625 45.6875 -51.875 C 44.851562 -52.03125 43.796875 -51.523438 42.515625 -50.359375 C 41.234375 -49.203125 39.988281 -47.835938 38.78125 -46.265625 C 37.570312 -44.703125 36.503906 -43.109375 35.578125 -41.484375 C 34.648438 -39.867188 34.109375 -38.644531 33.953125 -37.8125 C 33.578125 -35.757812 33.21875 -33.675781 32.875 -31.5625 C 32.539062 -29.445312 32.175781 -27.3125 31.78125 -25.15625 L 30.28125 -17.03125 C 29.863281 -15.363281 29.394531 -13.660156 28.875 -11.921875 C 28.363281 -10.179688 27.765625 -8.503906 27.078125 -6.890625 C 26.484375 -5.253906 25.765625 -3.71875 24.921875 -2.28125 C 24.078125 -0.84375 23.101562 0.375 22 1.375 C 20.894531 2.382812 19.664062 3.148438 18.3125 3.671875 C 16.957031 4.191406 15.441406 4.296875 13.765625 3.984375 C 11.890625 3.640625 10.457031 2.75 9.46875 1.3125 C 8.488281 -0.125 7.796875 -1.867188 7.390625 -3.921875 C 6.992188 -5.972656 6.851562 -8.222656 6.96875 -10.671875 C 7.082031 -13.128906 7.28125 -15.507812 7.5625 -17.8125 C 7.851562 -20.125 8.195312 -22.234375 8.59375 -24.140625 C 9 -26.054688 9.304688 -27.570312 9.515625 -28.6875 L 10.734375 -35.28125 C 11.390625 -38.832031 11.960938 -42.347656 12.453125 -45.828125 C 12.953125 -49.316406 13.519531 -52.789062 14.15625 -56.25 C 14.5 -58.125 14.960938 -60.503906 15.546875 -63.390625 C 16.128906 -66.273438 17.003906 -69.035156 18.171875 -71.671875 C 19.335938 -74.316406 20.847656 -76.484375 22.703125 -78.171875 C 24.566406 -79.859375 26.945312 -80.4375 29.84375 -79.90625 C 31.15625 -79.65625 32.25 -79.015625 33.125 -77.984375 C 34 -76.953125 34.71875 -75.753906 35.28125 -74.390625 C 35.851562 -73.035156 36.265625 -71.609375 36.515625 -70.109375 C 36.765625 -68.609375 36.941406 -67.3125 37.046875 -66.21875 C 38.210938 -67.363281 39.535156 -68.425781 41.015625 -69.40625 C 42.503906 -70.394531 44.128906 -71.207031 45.890625 -71.84375 C 47.648438 -72.488281 49.566406 -72.910156 51.640625 -73.109375 C 53.710938 -73.304688 56.007812 -73.171875 58.53125 -72.703125 C 63.300781 -71.828125 66.804688 -69.992188 69.046875 -67.203125 C 71.285156 -64.421875 72.71875 -61.207031 73.34375 -57.5625 C 73.976562 -53.914062 74.070312 -50.101562 73.625 -46.125 C 73.1875 -42.15625 72.671875 -38.578125 72.078125 -35.390625 C 71.785156 -33.804688 71.207031 -31.472656 70.34375 -28.390625 C 69.488281 -25.316406 68.410156 -21.941406 67.109375 -18.265625 C 65.804688 -14.597656 64.273438 -10.867188 62.515625 -7.078125 C 60.753906 -3.296875 58.867188 0.0976562 56.859375 3.109375 C 54.847656 6.117188 52.691406 8.476562 50.390625 10.1875 C 48.085938 11.894531 45.722656 12.523438 43.296875 12.078125 Z M 43.296875 12.078125 "/></g></g></g><g fill="#315f92" fill-opacity="1"><g transform="translate(228.15458, 405.790021)"><g><path d="M 47.5625 -57.421875 C 48.582031 -55.960938 49.679688 -54.113281 50.859375 -51.875 C 52.046875 -49.644531 52.921875 -47.335938 53.484375 -44.953125 C 54.054688 -42.566406 54.164062 -40.296875 53.8125 -38.140625 C 53.46875 -35.984375 52.269531 -34.191406 50.21875 -32.765625 C 47.488281 -30.859375 44.753906 -30.421875 42.015625 -31.453125 C 39.273438 -32.484375 36.648438 -34.171875 34.140625 -36.515625 C 31.628906 -38.867188 29.320312 -41.4375 27.21875 -44.21875 C 25.113281 -47.007812 23.429688 -49.222656 22.171875 -50.859375 C 17.492188 -46.273438 12.816406 -41.863281 8.140625 -37.625 C 9.171875 -35.832031 10.316406 -33.519531 11.578125 -30.6875 C 12.847656 -27.863281 13.789062 -24.945312 14.40625 -21.9375 C 15.03125 -18.925781 15.144531 -16.023438 14.75 -13.234375 C 14.363281 -10.453125 13.03125 -8.265625 10.75 -6.671875 C 8.988281 -5.441406 7.160156 -5.125 5.265625 -5.71875 C 3.367188 -6.320312 1.550781 -7.320312 -0.1875 -8.71875 C -1.9375 -10.113281 -3.515625 -11.707031 -4.921875 -13.5 C -6.335938 -15.300781 -7.476562 -16.828125 -8.34375 -18.078125 C -11.269531 -22.265625 -13.828125 -26.625 -16.015625 -31.15625 C -18.203125 -35.695312 -20.269531 -40.296875 -22.21875 -44.953125 C -23.25 -47.390625 -24.394531 -50.296875 -25.65625 -53.671875 C -26.925781 -57.046875 -28.09375 -60.628906 -29.15625 -64.421875 C -30.21875 -68.210938 -31.066406 -72.097656 -31.703125 -76.078125 C -32.347656 -80.054688 -32.570312 -83.859375 -32.375 -87.484375 C -32.175781 -91.117188 -31.414062 -94.488281 -30.09375 -97.59375 C -28.769531 -100.707031 -26.679688 -103.265625 -23.828125 -105.265625 C -21.035156 -107.210938 -18.171875 -108.273438 -15.234375 -108.453125 C -12.304688 -108.640625 -9.351562 -108.242188 -6.375 -107.265625 C -3.40625 -106.285156 -0.492188 -104.847656 2.359375 -102.953125 C 5.210938 -101.066406 7.921875 -99.023438 10.484375 -96.828125 C 13.046875 -94.640625 15.460938 -92.425781 17.734375 -90.1875 C 20.003906 -87.945312 22.015625 -85.960938 23.765625 -84.234375 C 28.054688 -80.140625 32.238281 -75.878906 36.3125 -71.453125 C 40.382812 -67.023438 44.132812 -62.347656 47.5625 -57.421875 Z M 7.609375 -69.359375 C 6.992188 -70.242188 5.929688 -71.65625 4.421875 -73.59375 C 2.910156 -75.539062 1.265625 -77.394531 -0.515625 -79.15625 C -2.296875 -80.925781 -4.117188 -82.328125 -5.984375 -83.359375 C -7.859375 -84.398438 -9.460938 -84.460938 -10.796875 -83.546875 C -11.523438 -83.023438 -11.875 -82.039062 -11.84375 -80.59375 C -11.8125 -79.144531 -11.53125 -77.488281 -11 -75.625 C -10.46875 -73.757812 -9.757812 -71.765625 -8.875 -69.640625 C -8 -67.523438 -7.113281 -65.519531 -6.21875 -63.625 C -5.332031 -61.738281 -4.488281 -60.0625 -3.6875 -58.59375 C -2.894531 -57.132812 -2.332031 -56.082031 -2 -55.4375 C 2.15625 -58.882812 6.101562 -62.457031 9.84375 -66.15625 Z M 7.609375 -69.359375 "/></g></g></g><g fill="#315f92" fill-opacity="1"><g transform="translate(287.112686, 365.796083)"><g><path d="M -12.25 -85.59375 C -9.988281 -81.320312 -7.894531 -76.929688 -5.96875 -72.421875 C -4.050781 -67.921875 -1.941406 -63.492188 0.359375 -59.140625 C 3.328125 -53.503906 6.472656 -47.972656 9.796875 -42.546875 C 13.128906 -37.128906 16.300781 -31.566406 19.3125 -25.859375 C 20.070312 -24.429688 20.835938 -22.78125 21.609375 -20.90625 C 22.390625 -19.039062 22.878906 -17.195312 23.078125 -15.375 C 23.285156 -13.5625 23.066406 -11.828125 22.421875 -10.171875 C 21.773438 -8.523438 20.460938 -7.175781 18.484375 -6.125 C 16.578125 -5.125 14.441406 -5.1875 12.078125 -6.3125 C 9.710938 -7.4375 7.3125 -9.203125 4.875 -11.609375 C 2.4375 -14.015625 -0.0195312 -16.84375 -2.5 -20.09375 C -4.976562 -23.351562 -7.242188 -26.585938 -9.296875 -29.796875 C -11.347656 -33.015625 -13.171875 -36 -14.765625 -38.75 C -16.367188 -41.5 -17.53125 -43.550781 -18.25 -44.90625 C -19.039062 -46.414062 -20.128906 -48.625 -21.515625 -51.53125 C -22.910156 -54.4375 -24.289062 -57.65625 -25.65625 -61.1875 C -27.019531 -64.726562 -28.273438 -68.398438 -29.421875 -72.203125 C -30.566406 -76.003906 -31.328125 -79.601562 -31.703125 -83 C -32.085938 -86.394531 -31.972656 -89.390625 -31.359375 -91.984375 C -30.753906 -94.578125 -29.378906 -96.441406 -27.234375 -97.578125 C -25.492188 -98.492188 -23.863281 -98.617188 -22.34375 -97.953125 C -20.832031 -97.296875 -19.453125 -96.257812 -18.203125 -94.84375 C -16.953125 -93.425781 -15.8125 -91.847656 -14.78125 -90.109375 C -13.757812 -88.367188 -12.914062 -86.863281 -12.25 -85.59375 Z M -12.25 -85.59375 "/></g></g></g><g fill="#315f92" fill-opacity="1"><g transform="translate(315.50138, 350.714143)"><g><path d="M -13.453125 -96.421875 C -12.953125 -95.273438 -12.8125 -94.113281 -13.03125 -92.9375 C -13.25 -91.769531 -13.695312 -90.617188 -14.375 -89.484375 C -15.0625 -88.359375 -15.898438 -87.363281 -16.890625 -86.5 C -17.878906 -85.632812 -18.867188 -84.984375 -19.859375 -84.546875 C -21.503906 -83.835938 -23.117188 -83.625 -24.703125 -83.90625 C -26.285156 -84.1875 -27.457031 -85.191406 -28.21875 -86.921875 C -28.75 -88.148438 -28.910156 -89.367188 -28.703125 -90.578125 C -28.503906 -91.785156 -28.082031 -92.894531 -27.4375 -93.90625 C -26.800781 -94.914062 -25.984375 -95.832031 -24.984375 -96.65625 C -23.984375 -97.488281 -22.945312 -98.140625 -21.875 -98.609375 C -20.320312 -99.285156 -18.722656 -99.539062 -17.078125 -99.375 C -15.441406 -99.207031 -14.234375 -98.222656 -13.453125 -96.421875 Z M 5.78125 -54.984375 C 6.28125 -53.835938 6.804688 -52.625 7.359375 -51.34375 C 7.921875 -50.070312 8.410156 -48.847656 8.828125 -47.671875 C 9.347656 -46.234375 10.117188 -44.34375 11.140625 -42 C 12.160156 -39.65625 13.179688 -37.09375 14.203125 -34.3125 C 15.222656 -31.539062 16.15625 -28.675781 17 -25.71875 C 17.84375 -22.769531 18.351562 -19.96875 18.53125 -17.3125 C 18.71875 -14.65625 18.445312 -12.3125 17.71875 -10.28125 C 16.988281 -8.257812 15.617188 -6.757812 13.609375 -5.78125 C 12.078125 -5.007812 10.488281 -5.050781 8.84375 -5.90625 C 7.207031 -6.757812 5.585938 -8.078125 3.984375 -9.859375 C 2.378906 -11.648438 0.847656 -13.765625 -0.609375 -16.203125 C -2.078125 -18.648438 -3.414062 -21.050781 -4.625 -23.40625 C -5.84375 -25.757812 -6.898438 -27.960938 -7.796875 -30.015625 C -8.691406 -32.066406 -9.351562 -33.582031 -9.78125 -34.5625 C -10.351562 -35.882812 -11.164062 -37.753906 -12.21875 -40.171875 C -13.28125 -42.597656 -14.335938 -45.238281 -15.390625 -48.09375 C -16.453125 -50.957031 -17.378906 -53.925781 -18.171875 -57 C -18.972656 -60.070312 -19.460938 -62.984375 -19.640625 -65.734375 C -19.816406 -68.484375 -19.53125 -70.898438 -18.78125 -72.984375 C -18.03125 -75.078125 -16.585938 -76.585938 -14.453125 -77.515625 C -12.234375 -78.484375 -10.066406 -78.109375 -7.953125 -76.390625 C -5.835938 -74.679688 -3.847656 -72.472656 -1.984375 -69.765625 C -0.117188 -67.066406 1.488281 -64.273438 2.84375 -61.390625 C 4.195312 -58.503906 5.175781 -56.367188 5.78125 -54.984375 Z M 5.78125 -54.984375 "/></g></g></g><g fill="#315f92" fill-opacity="1"><g transform="translate(339.440279, 337.726998)"><g><path d="M 70.28125 -65.9375 C 70.75 -64.300781 71.378906 -62.082031 72.171875 -59.28125 C 72.960938 -56.476562 73.753906 -53.421875 74.546875 -50.109375 C 75.335938 -46.804688 75.988281 -43.429688 76.5 -39.984375 C 77.007812 -36.546875 77.1875 -33.363281 77.03125 -30.4375 C 76.875 -27.507812 76.351562 -24.988281 75.46875 -22.875 C 74.582031 -20.757812 73.0625 -19.398438 70.90625 -18.796875 C 69.007812 -18.253906 67.335938 -18.640625 65.890625 -19.953125 C 64.453125 -21.273438 63.210938 -22.953125 62.171875 -24.984375 C 61.128906 -27.015625 60.269531 -29.144531 59.59375 -31.375 C 58.925781 -33.601562 58.410156 -35.363281 58.046875 -36.65625 C 56.953125 -40.53125 56.007812 -44.351562 55.21875 -48.125 C 54.425781 -51.90625 53.476562 -55.738281 52.375 -59.625 C 52.257812 -60.050781 52.039062 -60.820312 51.71875 -61.9375 C 51.40625 -63.0625 51.003906 -64.160156 50.515625 -65.234375 C 50.023438 -66.304688 49.460938 -67.21875 48.828125 -67.96875 C 48.203125 -68.726562 47.5 -68.992188 46.71875 -68.765625 C 45.175781 -68.335938 44.15625 -67.191406 43.65625 -65.328125 C 43.15625 -63.460938 42.910156 -61.363281 42.921875 -59.03125 C 42.929688 -56.707031 43.101562 -54.453125 43.4375 -52.265625 C 43.769531 -50.085938 44.039062 -48.46875 44.25 -47.40625 C 44.40625 -46.238281 44.734375 -44.515625 45.234375 -42.234375 C 45.734375 -39.960938 46.25 -37.457031 46.78125 -34.71875 C 47.320312 -31.988281 47.75 -29.15625 48.0625 -26.21875 C 48.382812 -23.289062 48.5 -20.578125 48.40625 -18.078125 C 48.320312 -15.585938 47.929688 -13.453125 47.234375 -11.671875 C 46.535156 -9.890625 45.363281 -8.769531 43.71875 -8.3125 C 41.65625 -7.726562 39.804688 -8.179688 38.171875 -9.671875 C 36.535156 -11.171875 35.117188 -13.050781 33.921875 -15.3125 C 32.722656 -17.582031 31.703125 -19.945312 30.859375 -22.40625 C 30.023438 -24.875 29.414062 -26.796875 29.03125 -28.171875 C 28.613281 -29.640625 28.234375 -31.066406 27.890625 -32.453125 C 27.546875 -33.847656 27.164062 -35.273438 26.75 -36.734375 C 26.582031 -37.335938 26.300781 -38.328125 25.90625 -39.703125 C 25.519531 -41.085938 25.066406 -42.613281 24.546875 -44.28125 C 24.023438 -45.957031 23.445312 -47.679688 22.8125 -49.453125 C 22.175781 -51.222656 21.515625 -52.828125 20.828125 -54.265625 C 20.140625 -55.703125 19.398438 -56.820312 18.609375 -57.625 C 17.828125 -58.425781 17.085938 -58.726562 16.390625 -58.53125 C 15.273438 -58.207031 14.441406 -57.203125 13.890625 -55.515625 C 13.347656 -53.828125 13.007812 -51.914062 12.875 -49.78125 C 12.738281 -47.644531 12.742188 -45.570312 12.890625 -43.5625 C 13.035156 -41.5625 13.226562 -40.132812 13.46875 -39.28125 L 13.6875 -38.5 C 14.851562 -34.363281 16.253906 -30.382812 17.890625 -26.5625 C 19.523438 -22.75 20.929688 -18.773438 22.109375 -14.640625 C 22.785156 -12.222656 22.632812 -9.78125 21.65625 -7.3125 C 20.6875 -4.851562 18.820312 -3.234375 16.0625 -2.453125 C 14.082031 -1.890625 12.226562 -2.179688 10.5 -3.328125 C 8.78125 -4.472656 7.148438 -6.125 5.609375 -8.28125 C 4.066406 -10.445312 2.648438 -12.90625 1.359375 -15.65625 C 0.078125 -18.414062 -1.039062 -21.171875 -2 -23.921875 C -2.96875 -26.679688 -3.796875 -29.195312 -4.484375 -31.46875 C -5.171875 -33.738281 -5.675781 -35.4375 -6 -36.5625 C -6.363281 -37.851562 -6.921875 -39.738281 -7.671875 -42.21875 C -8.421875 -44.695312 -9.144531 -47.421875 -9.84375 -50.390625 C -10.550781 -53.359375 -11.160156 -56.421875 -11.671875 -59.578125 C -12.179688 -62.734375 -12.40625 -65.671875 -12.34375 -68.390625 C -12.28125 -71.117188 -11.847656 -73.457031 -11.046875 -75.40625 C -10.253906 -77.351562 -8.867188 -78.601562 -6.890625 -79.15625 C -4.640625 -79.789062 -2.628906 -79.707031 -0.859375 -78.90625 C 0.898438 -78.113281 2.117188 -76.507812 2.796875 -74.09375 C 2.941406 -73.570312 3.0625 -73.046875 3.15625 -72.515625 C 3.257812 -71.984375 3.332031 -71.488281 3.375 -71.03125 C 3.925781 -72.6875 4.691406 -74.414062 5.671875 -76.21875 C 6.660156 -78.019531 7.785156 -79.726562 9.046875 -81.34375 C 10.304688 -82.96875 11.734375 -84.398438 13.328125 -85.640625 C 14.929688 -86.890625 16.640625 -87.769531 18.453125 -88.28125 C 20.179688 -88.769531 21.867188 -88.734375 23.515625 -88.171875 C 25.160156 -87.609375 26.703125 -86.765625 28.140625 -85.640625 C 29.578125 -84.515625 30.867188 -83.226562 32.015625 -81.78125 C 33.171875 -80.332031 34.085938 -78.921875 34.765625 -77.546875 C 35.191406 -79.335938 35.800781 -81.207031 36.59375 -83.15625 C 37.394531 -85.101562 38.359375 -86.882812 39.484375 -88.5 C 40.609375 -90.113281 41.941406 -91.554688 43.484375 -92.828125 C 45.035156 -94.109375 46.757812 -95.019531 48.65625 -95.5625 C 50.457031 -96.0625 52.1875 -95.847656 53.84375 -94.921875 C 55.507812 -94.003906 57.101562 -92.664062 58.625 -90.90625 C 60.15625 -89.144531 61.535156 -87.066406 62.765625 -84.671875 C 64.003906 -82.273438 65.140625 -79.898438 66.171875 -77.546875 C 67.210938 -75.191406 68.070312 -72.96875 68.75 -70.875 C 69.425781 -68.789062 69.9375 -67.144531 70.28125 -65.9375 Z M 70.28125 -65.9375 "/></g></g></g><g fill="#315f92" fill-opacity="1"><g transform="translate(419.68253, 315.670503)"><g><path d="M 57.375 -30.28125 C 57.695312 -27.257812 57.0625 -24.195312 55.46875 -21.09375 C 53.882812 -17.988281 51.765625 -15.144531 49.109375 -12.5625 C 46.460938 -9.988281 43.566406 -7.828125 40.421875 -6.078125 C 37.285156 -4.335938 34.332031 -3.316406 31.5625 -3.015625 C 26.84375 -2.503906 22.507812 -3.226562 18.5625 -5.1875 C 14.613281 -7.144531 11.191406 -9.8125 8.296875 -13.1875 C 5.398438 -16.570312 3.066406 -20.394531 1.296875 -24.65625 C -0.472656 -28.925781 -1.582031 -33.15625 -2.03125 -37.34375 C -2.519531 -41.789062 -2.414062 -46.617188 -1.71875 -51.828125 C -1.019531 -57.046875 0.363281 -61.929688 2.4375 -66.484375 C 4.507812 -71.035156 7.328125 -74.945312 10.890625 -78.21875 C 14.460938 -81.488281 18.921875 -83.410156 24.265625 -83.984375 C 27.285156 -84.316406 30.226562 -84.117188 33.09375 -83.390625 C 35.96875 -82.671875 38.523438 -81.484375 40.765625 -79.828125 C 43.015625 -78.179688 44.90625 -76.132812 46.4375 -73.6875 C 47.96875 -71.238281 48.910156 -68.414062 49.265625 -65.21875 C 49.710938 -61.03125 49.242188 -57.015625 47.859375 -53.171875 C 46.472656 -49.328125 44.457031 -45.910156 41.8125 -42.921875 C 39.164062 -39.929688 36.015625 -37.40625 32.359375 -35.34375 C 28.710938 -33.28125 24.898438 -31.9375 20.921875 -31.3125 C 21.554688 -28.78125 22.800781 -27.03125 24.65625 -26.0625 C 26.519531 -25.09375 28.648438 -24.738281 31.046875 -25 C 32.828125 -25.195312 34.515625 -25.832031 36.109375 -26.90625 C 37.710938 -27.976562 39.257812 -29.160156 40.75 -30.453125 C 42.238281 -31.742188 43.710938 -32.914062 45.171875 -33.96875 C 46.628906 -35.019531 48.15625 -35.632812 49.75 -35.8125 C 51.53125 -36 53.191406 -35.59375 54.734375 -34.59375 C 56.285156 -33.59375 57.164062 -32.15625 57.375 -30.28125 Z M 32.203125 -60.671875 C 32.078125 -61.828125 31.628906 -62.992188 30.859375 -64.171875 C 30.097656 -65.347656 29.050781 -65.863281 27.71875 -65.71875 C 25.757812 -65.5 24.164062 -64.804688 22.9375 -63.640625 C 21.71875 -62.472656 20.75 -61.0625 20.03125 -59.40625 C 19.3125 -57.757812 18.800781 -56.019531 18.5 -54.1875 C 18.207031 -52.351562 18.097656 -50.671875 18.171875 -49.140625 C 19.390625 -49.535156 20.84375 -50.050781 22.53125 -50.6875 C 24.226562 -51.320312 25.8125 -52.101562 27.28125 -53.03125 C 28.757812 -53.957031 29.992188 -55.0625 30.984375 -56.34375 C 31.972656 -57.625 32.378906 -59.066406 32.203125 -60.671875 Z M 32.203125 -60.671875 "/></g></g></g><g fill="#315f92" fill-opacity="1"><g transform="translate(475.066434, 309.151515)"><g><path d="M 42.0625 5.046875 C 40.539062 4.992188 39.351562 4.257812 38.5 2.84375 C 37.644531 1.425781 37.019531 -0.179688 36.625 -1.984375 C 36.226562 -3.796875 35.988281 -5.617188 35.90625 -7.453125 C 35.832031 -9.285156 35.8125 -10.695312 35.84375 -11.6875 C 35.914062 -14.375 36.148438 -17.054688 36.546875 -19.734375 C 36.941406 -22.410156 37.378906 -25.082031 37.859375 -27.75 C 38.347656 -30.414062 38.789062 -33.085938 39.1875 -35.765625 C 39.582031 -38.441406 39.820312 -41.125 39.90625 -43.8125 C 39.9375 -44.882812 39.921875 -46.050781 39.859375 -47.3125 C 39.804688 -48.570312 39.640625 -49.765625 39.359375 -50.890625 C 39.085938 -52.015625 38.601562 -52.945312 37.90625 -53.6875 C 37.21875 -54.425781 36.289062 -54.8125 35.125 -54.84375 C 34.3125 -54.875 33.394531 -54.25 32.375 -52.96875 C 31.351562 -51.695312 30.390625 -50.25 29.484375 -48.625 C 28.585938 -47 27.820312 -45.367188 27.1875 -43.734375 C 26.550781 -42.097656 26.222656 -40.878906 26.203125 -40.078125 C 26.140625 -38.109375 26.101562 -36.113281 26.09375 -34.09375 C 26.082031 -32.070312 26.046875 -30.03125 25.984375 -27.96875 L 25.75 -20.171875 C 25.601562 -18.566406 25.414062 -16.921875 25.1875 -15.234375 C 24.957031 -13.546875 24.632812 -11.898438 24.21875 -10.296875 C 23.914062 -8.691406 23.46875 -7.160156 22.875 -5.703125 C 22.289062 -4.242188 21.554688 -2.96875 20.671875 -1.875 C 19.796875 -0.78125 18.765625 0.109375 17.578125 0.796875 C 16.398438 1.484375 15.003906 1.800781 13.390625 1.75 C 11.597656 1.695312 10.132812 1.070312 9 -0.125 C 7.875 -1.332031 6.984375 -2.863281 6.328125 -4.71875 C 5.671875 -6.570312 5.21875 -8.644531 4.96875 -10.9375 C 4.726562 -13.238281 4.570312 -15.484375 4.5 -17.671875 C 4.4375 -19.867188 4.453125 -21.878906 4.546875 -23.703125 C 4.640625 -25.535156 4.707031 -26.992188 4.75 -28.078125 L 4.9375 -34.390625 C 5.039062 -37.785156 5.078125 -41.144531 5.046875 -44.46875 C 5.015625 -47.789062 5.046875 -51.101562 5.140625 -54.40625 C 5.203125 -56.195312 5.296875 -58.476562 5.421875 -61.25 C 5.546875 -64.03125 5.960938 -66.726562 6.671875 -69.34375 C 7.378906 -71.96875 8.476562 -74.195312 9.96875 -76.03125 C 11.457031 -77.875 13.585938 -78.753906 16.359375 -78.671875 C 17.617188 -78.628906 18.722656 -78.191406 19.671875 -77.359375 C 20.628906 -76.523438 21.472656 -75.515625 22.203125 -74.328125 C 22.929688 -73.140625 23.519531 -71.863281 23.96875 -70.5 C 24.414062 -69.144531 24.757812 -67.972656 25 -66.984375 C 25.9375 -68.210938 27.023438 -69.390625 28.265625 -70.515625 C 29.503906 -71.640625 30.898438 -72.625 32.453125 -73.46875 C 34.003906 -74.320312 35.726562 -74.988281 37.625 -75.46875 C 39.53125 -75.945312 41.691406 -76.148438 44.109375 -76.078125 C 48.671875 -75.941406 52.191406 -74.738281 54.671875 -72.46875 C 57.148438 -70.195312 58.945312 -67.40625 60.0625 -64.09375 C 61.175781 -60.789062 61.804688 -57.257812 61.953125 -53.5 C 62.109375 -49.738281 62.140625 -46.335938 62.046875 -43.296875 C 62.003906 -41.773438 61.800781 -39.515625 61.4375 -36.515625 C 61.082031 -33.523438 60.554688 -30.222656 59.859375 -26.609375 C 59.171875 -23.003906 58.273438 -19.3125 57.171875 -15.53125 C 56.078125 -11.757812 54.8125 -8.328125 53.375 -5.234375 C 51.945312 -2.148438 50.285156 0.347656 48.390625 2.265625 C 46.492188 4.179688 44.382812 5.109375 42.0625 5.046875 Z M 42.0625 5.046875 "/></g></g></g><g fill="#315f92" fill-opacity="1"><g transform="translate(533.787595, 310.981422)"><g><path d="M 34.125 10.328125 C 27.851562 9.328125 23.097656 7.726562 19.859375 5.53125 C 16.628906 3.34375 14.390625 0.609375 13.140625 -2.671875 C 11.890625 -5.953125 11.425781 -9.742188 11.75 -14.046875 C 12.070312 -18.347656 12.644531 -23.109375 13.46875 -28.328125 C 14.132812 -32.484375 14.929688 -36.640625 15.859375 -40.796875 C 16.796875 -44.960938 17.914062 -49.390625 19.21875 -54.078125 C 17.96875 -54.273438 16.988281 -54.40625 16.28125 -54.46875 C 15.570312 -54.53125 14.992188 -54.597656 14.546875 -54.671875 C 11.722656 -55.117188 9.363281 -56.128906 7.46875 -57.703125 C 5.582031 -59.273438 4.84375 -61.34375 5.25 -63.90625 C 5.507812 -65.5 6.335938 -66.816406 7.734375 -67.859375 C 9.128906 -68.910156 10.820312 -69.726562 12.8125 -70.3125 C 14.8125 -70.90625 16.9375 -71.296875 19.1875 -71.484375 C 21.4375 -71.671875 23.546875 -71.703125 25.515625 -71.578125 C 25.910156 -74.054688 26.523438 -76.769531 27.359375 -79.71875 C 28.191406 -82.664062 29.28125 -85.367188 30.625 -87.828125 C 31.96875 -90.296875 33.578125 -92.285156 35.453125 -93.796875 C 37.328125 -95.316406 39.503906 -95.878906 41.984375 -95.484375 C 43.390625 -95.265625 44.578125 -94.644531 45.546875 -93.625 C 46.523438 -92.601562 47.265625 -91.394531 47.765625 -90 C 48.273438 -88.601562 48.578125 -87.082031 48.671875 -85.4375 C 48.773438 -83.789062 48.707031 -82.210938 48.46875 -80.703125 C 48.1875 -78.941406 47.765625 -77.148438 47.203125 -75.328125 C 46.648438 -73.503906 45.800781 -71.285156 44.65625 -68.671875 C 46.1875 -68.597656 47.21875 -68.539062 47.75 -68.5 C 48.289062 -68.46875 48.785156 -68.414062 49.234375 -68.34375 C 50.734375 -68.101562 52.28125 -67.71875 53.875 -67.1875 C 55.46875 -66.664062 56.898438 -65.988281 58.171875 -65.15625 C 59.441406 -64.320312 60.4375 -63.328125 61.15625 -62.171875 C 61.882812 -61.015625 62.132812 -59.726562 61.90625 -58.3125 C 61.65625 -56.71875 60.789062 -55.398438 59.3125 -54.359375 C 57.832031 -53.328125 56.050781 -52.523438 53.96875 -51.953125 C 51.882812 -51.378906 49.695312 -51.023438 47.40625 -50.890625 C 45.113281 -50.753906 42.984375 -50.75 41.015625 -50.875 C 39.898438 -47.332031 38.988281 -44.050781 38.28125 -41.03125 C 37.570312 -38.019531 36.84375 -34.988281 36.09375 -31.9375 C 35.675781 -30.457031 35.273438 -28.953125 34.890625 -27.421875 C 34.515625 -25.898438 34.195312 -24.347656 33.9375 -22.765625 C 33.757812 -21.609375 33.59375 -20.25 33.4375 -18.6875 C 33.28125 -17.125 33.351562 -15.59375 33.65625 -14.09375 C 33.96875 -12.59375 34.613281 -11.242188 35.59375 -10.046875 C 36.582031 -8.847656 38.09375 -8.085938 40.125 -7.765625 C 41.363281 -7.566406 42.664062 -7.472656 44.03125 -7.484375 C 45.394531 -7.492188 46.738281 -7.390625 48.0625 -7.171875 C 50.363281 -6.804688 51.894531 -5.75 52.65625 -4 C 53.425781 -2.25 53.613281 -0.132812 53.21875 2.34375 C 52.914062 4.207031 52.109375 5.734375 50.796875 6.921875 C 49.484375 8.109375 47.914062 8.988281 46.09375 9.5625 C 44.28125 10.144531 42.296875 10.488281 40.140625 10.59375 C 37.992188 10.707031 35.988281 10.617188 34.125 10.328125 Z M 34.125 10.328125 "/></g></g></g><g fill="#315f92" fill-opacity="1"><g transform="translate(579.472091, 317.44708)"><g><path d="M 63.984375 -0.921875 C 63.535156 0.617188 62.878906 2.617188 62.015625 5.078125 C 61.148438 7.535156 60.066406 9.851562 58.765625 12.03125 C 57.472656 14.21875 55.925781 15.984375 54.125 17.328125 C 52.332031 18.671875 50.28125 19.003906 47.96875 18.328125 C 44.789062 17.390625 42.644531 15.632812 41.53125 13.0625 C 40.425781 10.488281 40.363281 7.671875 41.34375 4.609375 C 37.894531 6.191406 34.226562 7.160156 30.34375 7.515625 C 26.457031 7.878906 22.710938 7.53125 19.109375 6.46875 C 16.609375 5.726562 14.414062 4.425781 12.53125 2.5625 C 10.65625 0.707031 9.132812 -1.414062 7.96875 -3.8125 C 6.8125 -6.207031 6.0625 -8.738281 5.71875 -11.40625 C 5.382812 -14.070312 5.5625 -16.5625 6.25 -18.875 C 7.46875 -23 9.796875 -26.234375 13.234375 -28.578125 C 16.679688 -30.929688 20.578125 -32.660156 24.921875 -33.765625 C 29.265625 -34.867188 33.707031 -35.453125 38.25 -35.515625 C 42.800781 -35.585938 46.765625 -35.359375 50.140625 -34.828125 C 50.265625 -35.253906 50.398438 -35.628906 50.546875 -35.953125 C 50.691406 -36.285156 50.832031 -36.664062 50.96875 -37.09375 C 51.75 -39.757812 51.648438 -42.125 50.671875 -44.1875 C 49.691406 -46.25 47.867188 -47.675781 45.203125 -48.46875 C 43.046875 -49.09375 41.085938 -49.265625 39.328125 -48.984375 C 37.578125 -48.710938 35.878906 -48.328125 34.234375 -47.828125 C 32.597656 -47.328125 30.984375 -46.914062 29.390625 -46.59375 C 27.796875 -46.269531 26.140625 -46.363281 24.421875 -46.875 C 22.535156 -47.425781 21.101562 -48.492188 20.125 -50.078125 C 19.144531 -51.671875 18.9375 -53.421875 19.5 -55.328125 C 20.332031 -58.148438 21.925781 -60.476562 24.28125 -62.3125 C 26.632812 -64.144531 29.3125 -65.484375 32.3125 -66.328125 C 35.320312 -67.171875 38.441406 -67.601562 41.671875 -67.625 C 44.910156 -67.65625 47.769531 -67.304688 50.25 -66.578125 C 52.570312 -65.890625 54.804688 -64.921875 56.953125 -63.671875 C 59.109375 -62.429688 61.046875 -60.929688 62.765625 -59.171875 C 64.492188 -57.410156 65.945312 -55.441406 67.125 -53.265625 C 68.3125 -51.097656 69.09375 -48.75 69.46875 -46.21875 C 70.070312 -42.582031 70.320312 -38.84375 70.21875 -35 C 70.125 -31.164062 69.785156 -27.300781 69.203125 -23.40625 C 68.617188 -19.519531 67.863281 -15.679688 66.9375 -11.890625 C 66.007812 -8.097656 65.023438 -4.441406 63.984375 -0.921875 Z M 44.578125 -11.109375 L 46.78125 -19.984375 C 46.601562 -20.035156 46.429688 -20.109375 46.265625 -20.203125 C 46.109375 -20.296875 45.945312 -20.367188 45.78125 -20.421875 C 44.65625 -20.742188 43.175781 -20.875 41.34375 -20.8125 C 39.507812 -20.75 37.671875 -20.445312 35.828125 -19.90625 C 33.984375 -19.375 32.347656 -18.664062 30.921875 -17.78125 C 29.492188 -16.894531 28.585938 -15.804688 28.203125 -14.515625 C 27.859375 -13.316406 28.050781 -12.375 28.78125 -11.6875 C 29.507812 -11.007812 30.4375 -10.503906 31.5625 -10.171875 C 33.445312 -9.617188 35.609375 -9.519531 38.046875 -9.875 C 40.492188 -10.226562 42.671875 -10.640625 44.578125 -11.109375 Z M 44.578125 -11.109375 "/></g></g></g><g fill="#315f92" fill-opacity="1"><g transform="translate(637.340741, 335.118238)"><g><path d="M 60.1875 -76.515625 C 59.707031 -75.367188 58.96875 -74.46875 57.96875 -73.8125 C 56.96875 -73.164062 55.820312 -72.691406 54.53125 -72.390625 C 53.238281 -72.097656 51.941406 -72.003906 50.640625 -72.109375 C 49.335938 -72.222656 48.1875 -72.488281 47.1875 -72.90625 C 45.53125 -73.59375 44.253906 -74.609375 43.359375 -75.953125 C 42.460938 -77.296875 42.375 -78.835938 43.09375 -80.578125 C 43.613281 -81.816406 44.378906 -82.78125 45.390625 -83.46875 C 46.398438 -84.164062 47.488281 -84.632812 48.65625 -84.875 C 49.832031 -85.113281 51.066406 -85.160156 52.359375 -85.015625 C 53.648438 -84.867188 54.832031 -84.570312 55.90625 -84.125 C 57.476562 -83.46875 58.773438 -82.488281 59.796875 -81.1875 C 60.816406 -79.894531 60.945312 -78.335938 60.1875 -76.515625 Z M 43.625 -33.9375 C 43.144531 -32.78125 42.640625 -31.5625 42.109375 -30.28125 C 41.578125 -29 41.035156 -27.796875 40.484375 -26.671875 C 39.816406 -25.304688 38.988281 -23.441406 38 -21.078125 C 37.019531 -18.722656 35.878906 -16.210938 34.578125 -13.546875 C 33.285156 -10.890625 31.863281 -8.234375 30.3125 -5.578125 C 28.769531 -2.921875 27.101562 -0.609375 25.3125 1.359375 C 23.53125 3.328125 21.65625 4.753906 19.6875 5.640625 C 17.726562 6.523438 15.703125 6.578125 13.609375 5.796875 C 11.984375 5.222656 10.910156 4.050781 10.390625 2.28125 C 9.867188 0.519531 9.691406 -1.554688 9.859375 -3.953125 C 10.035156 -6.359375 10.5 -8.929688 11.25 -11.671875 C 12.007812 -14.421875 12.8125 -17.046875 13.65625 -19.546875 C 14.507812 -22.054688 15.363281 -24.34375 16.21875 -26.40625 C 17.082031 -28.476562 17.71875 -30.015625 18.125 -31.015625 C 18.675781 -32.335938 19.457031 -34.21875 20.46875 -36.65625 C 21.488281 -39.09375 22.664062 -41.679688 24 -44.421875 C 25.332031 -47.171875 26.820312 -49.898438 28.46875 -52.609375 C 30.125 -55.316406 31.890625 -57.6875 33.765625 -59.71875 C 35.640625 -61.75 37.585938 -63.21875 39.609375 -64.125 C 41.628906 -65.03125 43.71875 -65.035156 45.875 -64.140625 C 48.101562 -63.210938 49.332031 -61.394531 49.5625 -58.6875 C 49.789062 -55.976562 49.578125 -53.015625 48.921875 -49.796875 C 48.265625 -46.578125 47.363281 -43.476562 46.21875 -40.5 C 45.070312 -37.53125 44.207031 -35.34375 43.625 -33.9375 Z M 43.625 -33.9375 "/></g></g></g><g fill="#315f92" fill-opacity="1"><g transform="translate(664.023674, 345.29592)"><g><path d="M 68.421875 -20.25 C 67.265625 -20.75 66.367188 -21.347656 65.734375 -22.046875 C 65.097656 -22.753906 64.46875 -23.476562 63.84375 -24.21875 C 63.300781 -24.90625 62.75 -25.578125 62.1875 -26.234375 C 61.632812 -26.898438 60.898438 -27.425781 59.984375 -27.8125 C 58.359375 -28.582031 56.722656 -28.898438 55.078125 -28.765625 C 53.429688 -28.640625 51.796875 -28.25 50.171875 -27.59375 C 48.554688 -26.945312 47 -26.085938 45.5 -25.015625 C 44 -23.941406 42.675781 -22.796875 41.53125 -21.578125 C 40.78125 -20.765625 39.828125 -19.421875 38.671875 -17.546875 C 37.515625 -15.679688 36.34375 -13.640625 35.15625 -11.421875 C 33.84375 -9.191406 32.632812 -7.050781 31.53125 -5 C 30.425781 -2.957031 29.476562 -1.382812 28.6875 -0.28125 C 27.925781 0.9375 26.925781 2.304688 25.6875 3.828125 C 24.457031 5.359375 23.109375 6.691406 21.640625 7.828125 C 20.171875 8.960938 18.601562 9.742188 16.9375 10.171875 C 15.269531 10.609375 13.570312 10.359375 11.84375 9.421875 C 10.5 8.703125 9.546875 7.679688 8.984375 6.359375 C 8.429688 5.046875 8.171875 3.554688 8.203125 1.890625 C 8.242188 0.234375 8.515625 -1.578125 9.015625 -3.546875 C 9.515625 -5.515625 10.132812 -7.46875 10.875 -9.40625 C 11.644531 -11.425781 12.476562 -13.414062 13.375 -15.375 C 14.28125 -17.332031 15.171875 -19.164062 16.046875 -20.875 C 16.921875 -22.582031 17.757812 -24.140625 18.5625 -25.546875 C 19.363281 -26.953125 20 -28.09375 20.46875 -28.96875 C 21.882812 -31.757812 23.242188 -34.609375 24.546875 -37.515625 C 25.859375 -40.421875 27.257812 -43.253906 28.75 -46.015625 C 29.675781 -47.742188 30.789062 -49.628906 32.09375 -51.671875 C 33.394531 -53.722656 34.898438 -55.484375 36.609375 -56.953125 C 38.328125 -58.421875 40.210938 -59.414062 42.265625 -59.9375 C 44.328125 -60.457031 46.578125 -60.054688 49.015625 -58.734375 C 50.347656 -58.015625 51.253906 -56.960938 51.734375 -55.578125 C 52.222656 -54.203125 52.421875 -52.722656 52.328125 -51.140625 C 52.242188 -49.566406 51.976562 -47.988281 51.53125 -46.40625 C 51.082031 -44.820312 50.578125 -43.410156 50.015625 -42.171875 C 53.554688 -44.234375 57.03125 -45.59375 60.4375 -46.25 C 63.851562 -46.90625 67.492188 -46.296875 71.359375 -44.421875 C 73.296875 -43.484375 75.070312 -42.296875 76.6875 -40.859375 C 78.3125 -39.429688 79.628906 -37.8125 80.640625 -36 C 81.648438 -34.1875 82.222656 -32.222656 82.359375 -30.109375 C 82.503906 -28.003906 82.039062 -25.867188 80.96875 -23.703125 C 79.757812 -21.085938 77.960938 -19.554688 75.578125 -19.109375 C 73.203125 -18.660156 70.816406 -19.039062 68.421875 -20.25 Z M 68.421875 -20.25 "/></g></g></g><g fill="#315f92" fill-opacity="1"><g transform="translate(710.413775, 369.718856)"><g><path d="M 62.890625 15.9375 C 61.109375 18.394531 58.585938 20.242188 55.328125 21.484375 C 52.066406 22.722656 48.585938 23.414062 44.890625 23.5625 C 41.191406 23.707031 37.59375 23.367188 34.09375 22.546875 C 30.59375 21.734375 27.71875 20.515625 25.46875 18.890625 C 21.613281 16.109375 18.875 12.664062 17.25 8.5625 C 15.632812 4.46875 14.882812 0.195312 15 -4.25 C 15.113281 -8.695312 15.941406 -13.09375 17.484375 -17.4375 C 19.035156 -21.789062 21.046875 -25.671875 23.515625 -29.078125 C 26.128906 -32.710938 29.4375 -36.226562 33.4375 -39.625 C 37.445312 -43.03125 41.742188 -45.726562 46.328125 -47.71875 C 50.921875 -49.71875 55.632812 -50.738281 60.46875 -50.78125 C 65.300781 -50.820312 69.898438 -49.269531 74.265625 -46.125 C 76.722656 -44.34375 78.773438 -42.21875 80.421875 -39.75 C 82.066406 -37.289062 83.175781 -34.695312 83.75 -31.96875 C 84.320312 -29.25 84.351562 -26.46875 83.84375 -23.625 C 83.332031 -20.78125 82.132812 -18.054688 80.25 -15.453125 C 77.789062 -12.035156 74.757812 -9.363281 71.15625 -7.4375 C 67.550781 -5.507812 63.765625 -4.316406 59.796875 -3.859375 C 55.835938 -3.410156 51.8125 -3.644531 47.71875 -4.5625 C 43.625 -5.488281 39.890625 -7.050781 36.515625 -9.25 C 35.273438 -6.9375 35.023438 -4.796875 35.765625 -2.828125 C 36.503906 -0.859375 37.851562 0.828125 39.8125 2.234375 C 41.257812 3.285156 42.929688 3.945312 44.828125 4.21875 C 46.734375 4.488281 48.671875 4.640625 50.640625 4.671875 C 52.609375 4.710938 54.488281 4.828125 56.28125 5.015625 C 58.070312 5.210938 59.617188 5.785156 60.921875 6.734375 C 62.367188 7.773438 63.332031 9.1875 63.8125 10.96875 C 64.300781 12.75 63.992188 14.40625 62.890625 15.9375 Z M 64.546875 -23.484375 C 65.222656 -24.429688 65.671875 -25.597656 65.890625 -26.984375 C 66.109375 -28.367188 65.675781 -29.453125 64.59375 -30.234375 C 63 -31.390625 61.351562 -31.941406 59.65625 -31.890625 C 57.96875 -31.847656 56.300781 -31.453125 54.65625 -30.703125 C 53.007812 -29.960938 51.460938 -29.007812 50.015625 -27.84375 C 48.578125 -26.675781 47.375 -25.503906 46.40625 -24.328125 C 47.570312 -23.804688 48.992188 -23.210938 50.671875 -22.546875 C 52.347656 -21.890625 54.046875 -21.410156 55.765625 -21.109375 C 57.484375 -20.816406 59.140625 -20.8125 60.734375 -21.09375 C 62.328125 -21.382812 63.597656 -22.179688 64.546875 -23.484375 Z M 64.546875 -23.484375 "/></g></g></g></svg>