<svg xmlns="http://www.w3.org/2000/svg" xmlns:xlink="http://www.w3.org/1999/xlink" width="1280" zoomAndPan="magnify" viewBox="0 0 960 540.000001" height="720" preserveAspectRatio="xMidYMid meet" version="1.0"><defs><g/><clipPath id="cebe9becdc"><path d="M 0.886719 0 L 959.113281 0 L 959.113281 539 L 0.886719 539 Z M 0.886719 0 " clip-rule="nonzero"/></clipPath><clipPath id="d926e81524"><path d="M 21.03125 263.503906 L 123.179688 263.503906 L 123.179688 274.519531 L 21.03125 274.519531 Z M 21.03125 263.503906 " clip-rule="nonzero"/></clipPath><clipPath id="e20e7d9a0f"><path d="M 836.800781 263.503906 L 938.949219 263.503906 L 938.949219 274.519531 L 836.800781 274.519531 Z M 836.800781 263.503906 " clip-rule="nonzero"/></clipPath><clipPath id="3c904bc63f"><path d="M 87 21 L 181 21 L 181 86 L 87 86 Z M 87 21 " clip-rule="nonzero"/></clipPath><clipPath id="479acc4a0c"><path d="M 174.464844 85.121094 L 87.757812 31.121094 L 93.578125 21.769531 L 180.285156 75.773438 Z M 174.464844 85.121094 " clip-rule="nonzero"/></clipPath><clipPath id="0d17331ccc"><path d="M 780 453 L 873 453 L 873 517 L 780 517 Z M 780 453 " clip-rule="nonzero"/></clipPath><clipPath id="1a1fa7eb6c"><path d="M 866.914062 516.394531 L 780.207031 462.390625 L 786.027344 453.042969 L 872.734375 507.046875 Z M 866.914062 516.394531 " clip-rule="nonzero"/></clipPath><clipPath id="4928c92874"><path d="M 76 438 L 172 438 L 172 499 L 76 499 Z M 76 438 " clip-rule="nonzero"/></clipPath><clipPath id="6dae70aa70"><path d="M 171.230469 448.398438 L 82.132812 498.359375 L 76.746094 488.753906 L 165.84375 438.789062 Z M 171.230469 448.398438 " clip-rule="nonzero"/></clipPath><clipPath id="b6e6c32d20"><path d="M 788 39 L 883 39 L 883 100 L 788 100 Z M 788 39 " clip-rule="nonzero"/></clipPath><clipPath id="eab2699131"><path d="M 882.765625 49.398438 L 793.667969 99.363281 L 788.28125 89.753906 L 877.378906 39.792969 Z M 882.765625 49.398438 " clip-rule="nonzero"/></clipPath></defs><g clip-path="url(#cebe9becdc)"><path fill="#ffffff" d="M 0.886719 0 L 959.113281 0 L 959.113281 539 L 0.886719 539 Z M 0.886719 0 " fill-opacity="1" fill-rule="nonzero"/><path fill="#15a7c2" d="M 0.886719 0 L 959.113281 0 L 959.113281 539 L 0.886719 539 Z M 0.886719 0 " fill-opacity="1" fill-rule="nonzero"/></g><g clip-path="url(#d926e81524)"><path fill="#38b6ff" d="M 123.179688 305.722656 L 21.078125 305.722656 L 21.078125 232.300781 L 123.179688 232.300781 Z M 123.179688 305.722656 " fill-opacity="1" fill-rule="nonzero"/></g><g clip-path="url(#e20e7d9a0f)"><path fill="#38b6ff" d="M 938.949219 305.722656 L 836.847656 305.722656 L 836.847656 232.300781 L 938.949219 232.300781 Z M 938.949219 305.722656 " fill-opacity="1" fill-rule="nonzero"/></g><g clip-path="url(#3c904bc63f)"><g clip-path="url(#479acc4a0c)"><path fill="#ffbd59" d="M 157.96875 111.609375 L 71.296875 57.632812 L 110.117188 -4.691406 L 196.785156 49.285156 Z M 157.96875 111.609375 " fill-opacity="1" fill-rule="nonzero"/></g></g><g clip-path="url(#0d17331ccc)"><g clip-path="url(#1a1fa7eb6c)"><path fill="#ffbd59" d="M 850.417969 542.882812 L 763.746094 488.902344 L 802.5625 426.578125 L 889.234375 480.558594 Z M 850.417969 542.882812 " fill-opacity="1" fill-rule="nonzero"/></g></g><g clip-path="url(#4928c92874)"><g clip-path="url(#6dae70aa70)"><path fill="#ffbd59" d="M 186.492188 475.613281 L 97.433594 525.554688 L 61.523438 461.511719 L 150.582031 411.574219 Z M 186.492188 475.613281 " fill-opacity="1" fill-rule="nonzero"/></g></g><g clip-path="url(#b6e6c32d20)"><g clip-path="url(#eab2699131)"><path fill="#ffbd59" d="M 898.027344 76.617188 L 808.96875 126.558594 L 773.058594 62.515625 L 862.117188 12.574219 Z M 898.027344 76.617188 " fill-opacity="1" fill-rule="nonzero"/></g></g><g fill="#315f92" fill-opacity="1"><g transform="translate(204.345215, 340.488568)"><g><path d="M 19.03125 -103.953125 C 22.726562 -98.515625 24.789062 -92.765625 25.21875 -86.703125 C 25.644531 -80.640625 24.890625 -74.523438 22.953125 -68.359375 C 25.503906 -67.335938 28.304688 -66.015625 31.359375 -64.390625 C 34.421875 -62.773438 37.429688 -60.929688 40.390625 -58.859375 C 43.359375 -56.785156 46.128906 -54.570312 48.703125 -52.21875 C 51.285156 -49.863281 53.382812 -47.503906 55 -45.140625 C 56.707031 -42.609375 57.632812 -39.921875 57.78125 -37.078125 C 57.925781 -34.242188 56.539062 -31.832031 53.625 -29.84375 C 51.175781 -28.1875 48.253906 -27.9375 44.859375 -29.09375 C 41.472656 -30.257812 37.976562 -32.007812 34.375 -34.34375 C 30.769531 -36.6875 27.242188 -39.164062 23.796875 -41.78125 C 20.359375 -44.40625 17.421875 -46.382812 14.984375 -47.71875 C 13.898438 -46.289062 12.882812 -44.828125 11.9375 -43.328125 C 11 -41.828125 10.003906 -40.316406 8.953125 -38.796875 C 10.054688 -37.003906 11.539062 -34.519531 13.40625 -31.34375 C 15.269531 -28.164062 16.882812 -24.847656 18.25 -21.390625 C 19.625 -17.941406 20.390625 -14.65625 20.546875 -11.53125 C 20.703125 -8.414062 19.597656 -6.050781 17.234375 -4.4375 C 14.628906 -2.675781 11.890625 -2.375 9.015625 -3.53125 C 6.148438 -4.695312 3.425781 -6.539062 0.84375 -9.0625 C -1.726562 -11.582031 -4.082031 -14.332031 -6.21875 -17.3125 C -8.363281 -20.300781 -10.023438 -22.664062 -11.203125 -24.40625 C -13.734375 -28.125 -16.132812 -31.828125 -18.40625 -35.515625 C -20.6875 -39.210938 -23.085938 -42.914062 -25.609375 -46.625 C -27.910156 -50.019531 -30.273438 -53.375 -32.703125 -56.6875 C -35.140625 -60.007812 -37.535156 -63.40625 -39.890625 -66.875 C -40.429688 -67.664062 -41.117188 -68.671875 -41.953125 -69.890625 C -42.785156 -71.117188 -43.578125 -72.421875 -44.328125 -73.796875 C -45.085938 -75.179688 -45.796875 -76.519531 -46.453125 -77.8125 C -47.109375 -79.113281 -47.476562 -80.25 -47.5625 -81.21875 C -47.894531 -83.414062 -47.171875 -86.210938 -45.390625 -89.609375 C -43.609375 -93.015625 -41.425781 -96.429688 -38.84375 -99.859375 C -36.257812 -103.285156 -33.597656 -106.414062 -30.859375 -109.25 C -28.117188 -112.09375 -25.957031 -114.050781 -24.375 -115.125 C -20.34375 -117.863281 -16.28125 -119.523438 -12.1875 -120.109375 C -8.101562 -120.703125 -4.160156 -120.414062 -0.359375 -119.25 C 3.429688 -118.082031 6.976562 -116.171875 10.28125 -113.515625 C 13.59375 -110.859375 16.507812 -107.671875 19.03125 -103.953125 Z M -1.75 -87.40625 C -3.144531 -89.457031 -4.675781 -90.695312 -6.34375 -91.125 C -8.019531 -91.550781 -9.921875 -91.039062 -12.046875 -89.59375 C -13.640625 -88.519531 -15.050781 -87.15625 -16.28125 -85.5 C -17.519531 -83.851562 -18.570312 -82.21875 -19.4375 -80.59375 C -14.882812 -74.570312 -10.554688 -68.457031 -6.453125 -62.25 C -5.171875 -63.925781 -3.957031 -65.785156 -2.8125 -67.828125 C -1.664062 -69.878906 -0.789062 -72.03125 -0.1875 -74.28125 C 0.414062 -76.539062 0.65625 -78.78125 0.53125 -81 C 0.40625 -83.226562 -0.351562 -85.363281 -1.75 -87.40625 Z M -1.75 -87.40625 "/></g></g></g><g fill="#315f92" fill-opacity="1"><g transform="translate(260.514551, 302.13437)"><g><path d="M 46.71875 -50.984375 C 48.132812 -48.054688 48.59375 -44.75 48.09375 -41.0625 C 47.601562 -37.375 46.492188 -33.757812 44.765625 -30.21875 C 43.035156 -26.675781 40.90625 -23.46875 38.375 -20.59375 C 35.84375 -17.726562 33.242188 -15.648438 30.578125 -14.359375 C 26.035156 -12.160156 21.425781 -11.332031 16.75 -11.875 C 12.082031 -12.414062 7.691406 -13.863281 3.578125 -16.21875 C -0.523438 -18.570312 -4.226562 -21.570312 -7.53125 -25.21875 C -10.84375 -28.863281 -13.476562 -32.707031 -15.4375 -36.75 C -17.519531 -41.039062 -19.144531 -45.925781 -20.3125 -51.40625 C -21.476562 -56.882812 -21.835938 -62.273438 -21.390625 -67.578125 C -20.953125 -72.890625 -19.53125 -77.820312 -17.125 -82.375 C -14.726562 -86.9375 -10.953125 -90.46875 -5.796875 -92.96875 C -2.867188 -94.394531 0.160156 -95.253906 3.296875 -95.546875 C 6.441406 -95.847656 9.4375 -95.578125 12.28125 -94.734375 C 15.132812 -93.890625 17.765625 -92.515625 20.171875 -90.609375 C 22.585938 -88.703125 24.546875 -86.203125 26.046875 -83.109375 C 28.003906 -79.066406 28.976562 -74.867188 28.96875 -70.515625 C 28.957031 -66.171875 28.15625 -62.019531 26.5625 -58.0625 C 24.976562 -54.113281 22.722656 -50.445312 19.796875 -47.0625 C 16.878906 -43.6875 13.53125 -40.984375 9.75 -38.953125 C 11.300781 -36.617188 13.179688 -35.296875 15.390625 -34.984375 C 17.609375 -34.679688 19.878906 -35.097656 22.203125 -36.234375 C 23.921875 -37.066406 25.382812 -38.304688 26.59375 -39.953125 C 27.8125 -41.597656 28.9375 -43.332031 29.96875 -45.15625 C 31 -46.976562 32.054688 -48.679688 33.140625 -50.265625 C 34.222656 -51.847656 35.535156 -53.015625 37.078125 -53.765625 C 38.804688 -54.597656 40.628906 -54.789062 42.546875 -54.34375 C 44.460938 -53.894531 45.851562 -52.773438 46.71875 -50.984375 Z M 10.546875 -72.421875 C 10.003906 -73.546875 9.140625 -74.554688 7.953125 -75.453125 C 6.765625 -76.359375 5.53125 -76.503906 4.25 -75.890625 C 2.351562 -74.960938 1 -73.691406 0.1875 -72.078125 C -0.613281 -70.460938 -1.078125 -68.695312 -1.203125 -66.78125 C -1.335938 -64.875 -1.222656 -62.941406 -0.859375 -60.984375 C -0.503906 -59.035156 -0.015625 -57.316406 0.609375 -55.828125 C 1.679688 -56.660156 2.953125 -57.703125 4.421875 -58.953125 C 5.898438 -60.203125 7.207031 -61.550781 8.34375 -63 C 9.488281 -64.445312 10.328125 -65.992188 10.859375 -67.640625 C 11.398438 -69.285156 11.296875 -70.878906 10.546875 -72.421875 Z M 10.546875 -72.421875 "/></g></g></g><g fill="#315f92" fill-opacity="1"><g transform="translate(314.725692, 276.069952)"><g><path d="M 17.828125 -89.546875 C 18.734375 -86.921875 18.523438 -84.675781 17.203125 -82.8125 C 15.890625 -80.945312 14.34375 -79.070312 12.5625 -77.1875 C 10.789062 -75.3125 9.296875 -73.300781 8.078125 -71.15625 C 6.859375 -69.019531 6.78125 -66.421875 7.84375 -63.359375 C 8.40625 -61.734375 9.269531 -60.46875 10.4375 -59.5625 C 11.613281 -58.65625 12.929688 -57.921875 14.390625 -57.359375 C 15.859375 -56.804688 17.4375 -56.269531 19.125 -55.75 C 20.820312 -55.226562 22.453125 -54.53125 24.015625 -53.65625 C 25.585938 -52.78125 27.066406 -51.578125 28.453125 -50.046875 C 29.835938 -48.515625 30.984375 -46.4375 31.890625 -43.8125 C 33.210938 -40.03125 33.535156 -35.976562 32.859375 -31.65625 C 32.191406 -27.332031 30.84375 -23.226562 28.8125 -19.34375 C 26.789062 -15.457031 24.179688 -12 20.984375 -8.96875 C 17.796875 -5.9375 14.347656 -3.773438 10.640625 -2.484375 C 9.117188 -1.960938 7.550781 -1.546875 5.9375 -1.234375 C 4.320312 -0.921875 2.796875 -0.867188 1.359375 -1.078125 C -0.0664062 -1.285156 -1.378906 -1.8125 -2.578125 -2.65625 C -3.785156 -3.507812 -4.703125 -4.835938 -5.328125 -6.640625 C -6.210938 -9.160156 -6.398438 -11.289062 -5.890625 -13.03125 C -5.390625 -14.78125 -4.507812 -16.320312 -3.25 -17.65625 C -2 -19 -0.578125 -20.203125 1.015625 -21.265625 C 2.617188 -22.328125 4.070312 -23.460938 5.375 -24.671875 C 6.675781 -25.890625 7.628906 -27.210938 8.234375 -28.640625 C 8.835938 -30.066406 8.796875 -31.765625 8.109375 -33.734375 C 7.453125 -35.628906 6.03125 -37.332031 3.84375 -38.84375 C 1.65625 -40.363281 -0.734375 -41.957031 -3.328125 -43.625 C -5.929688 -45.289062 -8.429688 -47.171875 -10.828125 -49.265625 C -13.234375 -51.367188 -14.984375 -54 -16.078125 -57.15625 C -17.421875 -61.03125 -17.875 -64.890625 -17.4375 -68.734375 C -17 -72.578125 -15.875 -76.175781 -14.0625 -79.53125 C -12.257812 -82.882812 -9.882812 -85.859375 -6.9375 -88.453125 C -4 -91.046875 -0.640625 -93 3.140625 -94.3125 C 4.585938 -94.8125 6.054688 -95.164062 7.546875 -95.375 C 9.035156 -95.59375 10.441406 -95.546875 11.765625 -95.234375 C 13.085938 -94.929688 14.28125 -94.332031 15.34375 -93.4375 C 16.40625 -92.550781 17.234375 -91.253906 17.828125 -89.546875 Z M 17.828125 -89.546875 "/></g></g></g><g fill="#315f92" fill-opacity="1"><g transform="translate(353.795259, 261.208925)"><g><path d="M 59.515625 -56.203125 C 60.378906 -52.097656 60.882812 -47.5 61.03125 -42.40625 C 61.1875 -37.3125 60.660156 -32.441406 59.453125 -27.796875 C 58.242188 -23.148438 56.226562 -19.066406 53.40625 -15.546875 C 50.59375 -12.023438 46.617188 -9.71875 41.484375 -8.625 C 40.179688 -8.351562 38.804688 -8.160156 37.359375 -8.046875 C 35.921875 -7.929688 34.519531 -7.972656 33.15625 -8.171875 C 31.789062 -8.378906 30.515625 -8.769531 29.328125 -9.34375 C 28.140625 -9.925781 27.128906 -10.8125 26.296875 -12 L 29.296875 8.4375 C 29.648438 10.601562 30.117188 13.179688 30.703125 16.171875 C 31.296875 19.171875 31.53125 22.097656 31.40625 24.953125 C 31.28125 27.816406 30.597656 30.375 29.359375 32.625 C 28.128906 34.882812 25.976562 36.34375 22.90625 37 C 21.125 37.375 19.429688 36.78125 17.828125 35.21875 C 16.222656 33.65625 14.773438 31.546875 13.484375 28.890625 C 12.203125 26.234375 11.007812 23.21875 9.90625 19.84375 C 8.800781 16.476562 7.863281 13.210938 7.09375 10.046875 C 6.320312 6.890625 5.660156 4.003906 5.109375 1.390625 C 4.554688 -1.222656 4.148438 -3.132812 3.890625 -4.34375 C 2.566406 -10.601562 1.207031 -16.828125 -0.1875 -23.015625 C -1.59375 -29.203125 -2.957031 -35.421875 -4.28125 -41.671875 C -4.519531 -42.796875 -4.890625 -44.546875 -5.390625 -46.921875 C -5.890625 -49.304688 -6.34375 -51.914062 -6.75 -54.75 C -7.15625 -57.59375 -7.46875 -60.550781 -7.6875 -63.625 C -7.90625 -66.695312 -7.851562 -69.5625 -7.53125 -72.21875 C -7.207031 -74.882812 -6.554688 -77.125 -5.578125 -78.9375 C -4.597656 -80.75 -3.175781 -81.851562 -1.3125 -82.25 C -0.09375 -82.5 1.078125 -82.378906 2.203125 -81.890625 C 3.328125 -81.398438 4.351562 -80.691406 5.28125 -79.765625 C 6.207031 -78.847656 7.03125 -77.828125 7.75 -76.703125 C 8.476562 -75.585938 9.097656 -74.546875 9.609375 -73.578125 C 11.804688 -77.460938 14.617188 -80.644531 18.046875 -83.125 C 21.472656 -85.613281 25.328125 -87.3125 29.609375 -88.21875 C 34.097656 -89.164062 38.03125 -88.679688 41.40625 -86.765625 C 44.789062 -84.847656 47.695312 -82.191406 50.125 -78.796875 C 52.550781 -75.398438 54.539062 -71.648438 56.09375 -67.546875 C 57.644531 -63.441406 58.785156 -59.660156 59.515625 -56.203125 Z M 39.265625 -53.078125 C 38.960938 -54.472656 38.539062 -55.867188 38 -57.265625 C 37.457031 -58.671875 36.75 -59.9375 35.875 -61.0625 C 35 -62.195312 33.914062 -63.039062 32.625 -63.59375 C 31.34375 -64.15625 29.859375 -64.257812 28.171875 -63.90625 C 25.929688 -63.425781 23.726562 -62.203125 21.5625 -60.234375 C 19.40625 -58.273438 17.914062 -56.234375 17.09375 -54.109375 C 16.78125 -53.253906 16.753906 -51.972656 17.015625 -50.265625 C 17.273438 -48.566406 17.492188 -47.296875 17.671875 -46.453125 C 17.804688 -45.796875 18.007812 -44.9375 18.28125 -43.875 C 18.5625 -42.820312 18.863281 -41.742188 19.1875 -40.640625 C 19.519531 -39.546875 19.863281 -38.5 20.21875 -37.5 C 20.570312 -36.5 20.957031 -35.75 21.375 -35.25 C 21.820312 -34.46875 22.585938 -33.820312 23.671875 -33.3125 C 24.753906 -32.8125 25.914062 -32.398438 27.15625 -32.078125 C 28.40625 -31.753906 29.640625 -31.578125 30.859375 -31.546875 C 32.085938 -31.515625 33.117188 -31.585938 33.953125 -31.765625 C 35.910156 -32.179688 37.335938 -33.257812 38.234375 -35 C 39.140625 -36.75 39.722656 -38.726562 39.984375 -40.9375 C 40.253906 -43.15625 40.273438 -45.378906 40.046875 -47.609375 C 39.816406 -49.847656 39.554688 -51.671875 39.265625 -53.078125 Z M 39.265625 -53.078125 "/></g></g></g><g fill="#315f92" fill-opacity="1"><g transform="translate(421.380252, 247.732632)"><g><path d="M 18.25 -102.140625 C 18.375 -100.804688 18.125 -99.582031 17.5 -98.46875 C 16.882812 -97.351562 16.046875 -96.335938 14.984375 -95.421875 C 13.921875 -94.515625 12.75 -93.78125 11.46875 -93.21875 C 10.1875 -92.65625 8.972656 -92.320312 7.828125 -92.21875 C 5.929688 -92.03125 4.222656 -92.34375 2.703125 -93.15625 C 1.191406 -93.96875 0.335938 -95.378906 0.140625 -97.390625 C 0.00390625 -98.804688 0.238281 -100.09375 0.84375 -101.25 C 1.457031 -102.414062 2.253906 -103.398438 3.234375 -104.203125 C 4.210938 -105.015625 5.347656 -105.675781 6.640625 -106.1875 C 7.929688 -106.707031 9.191406 -107.023438 10.421875 -107.140625 C 12.222656 -107.316406 13.925781 -107.050781 15.53125 -106.34375 C 17.144531 -105.632812 18.050781 -104.234375 18.25 -102.140625 Z M 24.03125 -53.796875 C 24.15625 -52.472656 24.285156 -51.070312 24.421875 -49.59375 C 24.566406 -48.125 24.660156 -46.710938 24.703125 -45.359375 C 24.765625 -43.742188 24.925781 -41.582031 25.1875 -38.875 C 25.445312 -36.164062 25.628906 -33.234375 25.734375 -30.078125 C 25.847656 -26.921875 25.84375 -23.707031 25.71875 -20.4375 C 25.59375 -17.175781 25.179688 -14.171875 24.484375 -11.421875 C 23.796875 -8.671875 22.75 -6.382812 21.34375 -4.5625 C 19.9375 -2.75 18.050781 -1.679688 15.6875 -1.359375 C 13.894531 -1.097656 12.304688 -1.664062 10.921875 -3.0625 C 9.546875 -4.46875 8.335938 -6.34375 7.296875 -8.6875 C 6.253906 -11.03125 5.394531 -13.675781 4.71875 -16.625 C 4.050781 -19.582031 3.488281 -22.453125 3.03125 -25.234375 C 2.570312 -28.023438 2.226562 -30.609375 2 -32.984375 C 1.78125 -35.359375 1.613281 -37.117188 1.5 -38.265625 C 1.351562 -39.785156 1.144531 -41.945312 0.875 -44.75 C 0.601562 -47.550781 0.40625 -50.570312 0.28125 -53.8125 C 0.164062 -57.0625 0.210938 -60.375 0.421875 -63.75 C 0.628906 -67.125 1.097656 -70.238281 1.828125 -73.09375 C 2.566406 -75.945312 3.660156 -78.304688 5.109375 -80.171875 C 6.554688 -82.035156 8.507812 -83.085938 10.96875 -83.328125 C 13.539062 -83.566406 15.613281 -82.46875 17.1875 -80.03125 C 18.769531 -77.59375 20.0625 -74.691406 21.0625 -71.328125 C 22.0625 -67.972656 22.765625 -64.613281 23.171875 -61.25 C 23.585938 -57.894531 23.875 -55.410156 24.03125 -53.796875 Z M 24.03125 -53.796875 "/></g></g></g><g fill="#315f92" fill-opacity="1"><g transform="translate(451.404008, 243.938351)"><g><path d="M 54.203125 -53.3125 C 52.867188 -53.21875 51.722656 -53.34375 50.765625 -53.6875 C 49.816406 -54.03125 48.863281 -54.390625 47.90625 -54.765625 C 47.050781 -55.148438 46.191406 -55.507812 45.328125 -55.84375 C 44.472656 -56.1875 43.519531 -56.3125 42.46875 -56.21875 C 40.5625 -56.132812 38.867188 -55.613281 37.390625 -54.65625 C 35.910156 -53.707031 34.566406 -52.519531 33.359375 -51.09375 C 32.160156 -49.675781 31.128906 -48.085938 30.265625 -46.328125 C 29.398438 -44.566406 28.722656 -42.828125 28.234375 -41.109375 C 27.941406 -39.960938 27.71875 -38.222656 27.5625 -35.890625 C 27.414062 -33.554688 27.335938 -31.050781 27.328125 -28.375 C 27.222656 -25.613281 27.164062 -22.988281 27.15625 -20.5 C 27.144531 -18.019531 27.035156 -16.066406 26.828125 -14.640625 C 26.722656 -13.109375 26.476562 -11.316406 26.09375 -9.265625 C 25.707031 -7.210938 25.101562 -5.28125 24.28125 -3.46875 C 23.457031 -1.664062 22.375 -0.148438 21.03125 1.078125 C 19.695312 2.316406 17.976562 2.929688 15.875 2.921875 C 14.25 2.921875 12.84375 2.441406 11.65625 1.484375 C 10.46875 0.523438 9.46875 -0.738281 8.65625 -2.3125 C 7.851562 -3.894531 7.195312 -5.734375 6.6875 -7.828125 C 6.175781 -9.929688 5.78125 -12.085938 5.5 -14.296875 C 5.226562 -16.585938 5.023438 -18.878906 4.890625 -21.171875 C 4.753906 -23.460938 4.664062 -25.632812 4.625 -27.6875 C 4.582031 -29.738281 4.585938 -31.625 4.640625 -33.34375 C 4.703125 -35.0625 4.734375 -36.441406 4.734375 -37.484375 C 4.660156 -40.828125 4.507812 -44.191406 4.28125 -47.578125 C 4.050781 -50.972656 3.945312 -54.335938 3.96875 -57.671875 C 3.976562 -59.773438 4.082031 -62.113281 4.28125 -64.6875 C 4.488281 -67.269531 5.023438 -69.675781 5.890625 -71.90625 C 6.765625 -74.144531 8.035156 -76.023438 9.703125 -77.546875 C 11.378906 -79.066406 13.695312 -79.820312 16.65625 -79.8125 C 18.28125 -79.800781 19.660156 -79.269531 20.796875 -78.21875 C 21.941406 -77.164062 22.867188 -75.875 23.578125 -74.34375 C 24.296875 -72.8125 24.835938 -71.1875 25.203125 -69.46875 C 25.578125 -67.75 25.8125 -66.171875 25.90625 -64.734375 C 28.207031 -68.453125 30.796875 -71.472656 33.671875 -73.796875 C 36.546875 -76.128906 40.269531 -77.378906 44.84375 -77.546875 C 47.132812 -77.628906 49.398438 -77.398438 51.640625 -76.859375 C 53.890625 -76.328125 55.941406 -75.460938 57.796875 -74.265625 C 59.648438 -73.066406 61.164062 -71.507812 62.34375 -69.59375 C 63.53125 -67.6875 64.164062 -65.441406 64.25 -62.859375 C 64.4375 -59.796875 63.523438 -57.457031 61.515625 -55.84375 C 59.503906 -54.238281 57.066406 -53.394531 54.203125 -53.3125 Z M 54.203125 -53.3125 "/></g></g></g><g fill="#315f92" fill-opacity="1"><g transform="translate(506.879109, 243.484625)"><g><path d="M 67.3125 -10.90625 C 67.070312 -9.207031 66.6875 -7 66.15625 -4.28125 C 65.632812 -1.5625 64.859375 1.046875 63.828125 3.546875 C 62.804688 6.054688 61.453125 8.15625 59.765625 9.84375 C 58.078125 11.539062 55.960938 12.207031 53.421875 11.84375 C 49.921875 11.351562 47.382812 9.84375 45.8125 7.3125 C 44.238281 4.78125 43.738281 1.816406 44.3125 -1.578125 C 40.914062 0.640625 37.195312 2.234375 33.15625 3.203125 C 29.113281 4.179688 25.109375 4.390625 21.140625 3.828125 C 18.398438 3.453125 15.894531 2.425781 13.625 0.75 C 11.351562 -0.914062 9.414062 -2.921875 7.8125 -5.265625 C 6.21875 -7.609375 5.039062 -10.160156 4.28125 -12.921875 C 3.519531 -15.679688 3.316406 -18.335938 3.671875 -20.890625 C 4.304688 -25.421875 6.253906 -29.1875 9.515625 -32.1875 C 12.773438 -35.195312 16.609375 -37.625 21.015625 -39.46875 C 25.421875 -41.3125 30.015625 -42.617188 34.796875 -43.390625 C 39.585938 -44.171875 43.8125 -44.535156 47.46875 -44.484375 C 47.53125 -44.960938 47.609375 -45.382812 47.703125 -45.75 C 47.796875 -46.125 47.878906 -46.550781 47.953125 -47.03125 C 48.359375 -49.957031 47.882812 -52.429688 46.53125 -54.453125 C 45.1875 -56.472656 43.050781 -57.691406 40.125 -58.109375 C 37.757812 -58.441406 35.671875 -58.328125 33.859375 -57.765625 C 32.046875 -57.203125 30.3125 -56.53125 28.65625 -55.75 C 27.007812 -54.96875 25.375 -54.28125 23.75 -53.6875 C 22.125 -53.09375 20.363281 -52.929688 18.46875 -53.203125 C 16.394531 -53.492188 14.71875 -54.40625 13.4375 -55.9375 C 12.164062 -57.46875 11.675781 -59.273438 11.96875 -61.359375 C 12.40625 -64.472656 13.722656 -67.175781 15.921875 -69.46875 C 18.117188 -71.757812 20.734375 -73.582031 23.765625 -74.9375 C 26.804688 -76.289062 30.023438 -77.234375 33.421875 -77.765625 C 36.828125 -78.296875 39.898438 -78.367188 42.640625 -77.984375 C 45.191406 -77.628906 47.695312 -76.960938 50.15625 -75.984375 C 52.625 -75.015625 54.898438 -73.734375 56.984375 -72.140625 C 59.078125 -70.554688 60.914062 -68.707031 62.5 -66.59375 C 64.082031 -64.488281 65.269531 -62.128906 66.0625 -59.515625 C 67.269531 -55.785156 68.117188 -51.882812 68.609375 -47.8125 C 69.097656 -43.75 69.332031 -39.617188 69.3125 -35.421875 C 69.300781 -31.234375 69.097656 -27.070312 68.703125 -22.9375 C 68.316406 -18.800781 67.851562 -14.789062 67.3125 -10.90625 Z M 45.28125 -18.640625 L 46.203125 -28.328125 C 46.015625 -28.359375 45.828125 -28.410156 45.640625 -28.484375 C 45.453125 -28.554688 45.269531 -28.601562 45.09375 -28.625 C 43.863281 -28.800781 42.28125 -28.710938 40.34375 -28.359375 C 38.414062 -28.015625 36.523438 -27.414062 34.671875 -26.5625 C 32.816406 -25.71875 31.207031 -24.71875 29.84375 -23.5625 C 28.476562 -22.40625 27.695312 -21.113281 27.5 -19.6875 C 27.3125 -18.375 27.65625 -17.414062 28.53125 -16.8125 C 29.414062 -16.207031 30.472656 -15.820312 31.703125 -15.65625 C 33.785156 -15.351562 36.082031 -15.578125 38.59375 -16.328125 C 41.101562 -17.085938 43.332031 -17.859375 45.28125 -18.640625 Z M 45.28125 -18.640625 "/></g></g></g><g fill="#315f92" fill-opacity="1"><g transform="translate(569.592934, 252.38393)"><g><path d="M 34.953125 14.953125 C 28.410156 13.148438 23.550781 10.894531 20.375 8.1875 C 17.207031 5.488281 15.15625 2.332031 14.21875 -1.28125 C 13.289062 -4.894531 13.25 -8.960938 14.09375 -13.484375 C 14.945312 -18.015625 16.117188 -22.992188 17.609375 -28.421875 C 18.796875 -32.742188 20.128906 -37.050781 21.609375 -41.34375 C 23.085938 -45.632812 24.785156 -50.191406 26.703125 -55.015625 C 25.410156 -55.367188 24.390625 -55.625 23.640625 -55.78125 C 22.890625 -55.9375 22.285156 -56.082031 21.828125 -56.21875 C 18.878906 -57.019531 16.5 -58.359375 14.6875 -60.234375 C 12.882812 -62.117188 12.351562 -64.394531 13.09375 -67.0625 C 13.550781 -68.71875 14.578125 -70.019531 16.171875 -70.96875 C 17.773438 -71.925781 19.664062 -72.597656 21.84375 -72.984375 C 24.019531 -73.367188 26.3125 -73.523438 28.71875 -73.453125 C 31.125 -73.390625 33.367188 -73.171875 35.453125 -72.796875 C 36.160156 -75.378906 37.125 -78.179688 38.34375 -81.203125 C 39.570312 -84.234375 41.039062 -86.972656 42.75 -89.421875 C 44.46875 -91.867188 46.410156 -93.785156 48.578125 -95.171875 C 50.742188 -96.566406 53.113281 -96.910156 55.6875 -96.203125 C 57.164062 -95.796875 58.359375 -94.992188 59.265625 -93.796875 C 60.179688 -92.609375 60.820312 -91.242188 61.1875 -89.703125 C 61.550781 -88.171875 61.6875 -86.523438 61.59375 -84.765625 C 61.507812 -83.003906 61.25 -81.34375 60.8125 -79.78125 C 60.3125 -77.945312 59.660156 -76.097656 58.859375 -74.234375 C 58.054688 -72.367188 56.890625 -70.113281 55.359375 -67.46875 C 56.972656 -67.238281 58.0625 -67.066406 58.625 -66.953125 C 59.195312 -66.835938 59.71875 -66.71875 60.1875 -66.59375 C 61.738281 -66.164062 63.328125 -65.578125 64.953125 -64.828125 C 66.578125 -64.085938 68.015625 -63.203125 69.265625 -62.171875 C 70.515625 -61.140625 71.453125 -59.96875 72.078125 -58.65625 C 72.710938 -57.34375 72.828125 -55.945312 72.421875 -54.46875 C 71.972656 -52.8125 70.90625 -51.523438 69.21875 -50.609375 C 67.53125 -49.691406 65.546875 -49.050781 63.265625 -48.6875 C 60.984375 -48.320312 58.625 -48.203125 56.1875 -48.328125 C 53.75 -48.453125 51.492188 -48.695312 49.421875 -49.0625 C 47.828125 -45.445312 46.476562 -42.082031 45.375 -38.96875 C 44.269531 -35.863281 43.140625 -32.734375 41.984375 -29.578125 C 41.367188 -28.066406 40.769531 -26.523438 40.1875 -24.953125 C 39.601562 -23.378906 39.085938 -21.769531 38.640625 -20.125 C 38.304688 -18.914062 37.960938 -17.492188 37.609375 -15.859375 C 37.253906 -14.234375 37.148438 -12.609375 37.296875 -10.984375 C 37.441406 -9.359375 37.972656 -7.847656 38.890625 -6.453125 C 39.804688 -5.066406 41.316406 -4.085938 43.421875 -3.515625 C 44.722656 -3.148438 46.09375 -2.894531 47.53125 -2.75 C 48.96875 -2.601562 50.378906 -2.335938 51.765625 -1.953125 C 54.148438 -1.296875 55.644531 0.00390625 56.25 1.953125 C 56.851562 3.898438 56.800781 6.164062 56.09375 8.75 C 55.5625 10.675781 54.523438 12.191406 52.984375 13.296875 C 51.441406 14.410156 49.675781 15.160156 47.6875 15.546875 C 45.707031 15.941406 43.570312 16.070312 41.28125 15.9375 C 38.988281 15.8125 36.878906 15.484375 34.953125 14.953125 Z M 34.953125 14.953125 "/></g></g></g><g fill="#315f92" fill-opacity="1"><g transform="translate(618.287881, 266.04021)"><g><path d="M 61.4375 -83.609375 C 60.957031 -82.367188 60.195312 -81.378906 59.15625 -80.640625 C 58.113281 -79.910156 56.910156 -79.367188 55.546875 -79.015625 C 54.191406 -78.671875 52.8125 -78.53125 51.40625 -78.59375 C 50.007812 -78.664062 48.773438 -78.898438 47.703125 -79.296875 C 45.921875 -79.972656 44.53125 -81.007812 43.53125 -82.40625 C 42.53125 -83.800781 42.382812 -85.441406 43.09375 -87.328125 C 43.59375 -88.660156 44.367188 -89.710938 45.421875 -90.484375 C 46.484375 -91.265625 47.628906 -91.800781 48.859375 -92.09375 C 50.097656 -92.394531 51.410156 -92.488281 52.796875 -92.375 C 54.179688 -92.269531 55.453125 -92 56.609375 -91.5625 C 58.304688 -90.914062 59.71875 -89.921875 60.84375 -88.578125 C 61.976562 -87.234375 62.175781 -85.578125 61.4375 -83.609375 Z M 45.296875 -37.671875 C 44.828125 -36.429688 44.328125 -35.117188 43.796875 -33.734375 C 43.273438 -32.347656 42.738281 -31.039062 42.1875 -29.8125 C 41.519531 -28.332031 40.703125 -26.316406 39.734375 -23.765625 C 38.773438 -21.222656 37.648438 -18.515625 36.359375 -15.640625 C 35.078125 -12.765625 33.660156 -9.882812 32.109375 -7 C 30.554688 -4.125 28.859375 -1.601562 27.015625 0.5625 C 25.179688 2.726562 23.234375 4.3125 21.171875 5.3125 C 19.109375 6.320312 16.945312 6.445312 14.6875 5.6875 C 12.957031 5.144531 11.78125 3.941406 11.15625 2.078125 C 10.539062 0.210938 10.28125 -2 10.375 -4.5625 C 10.476562 -7.132812 10.878906 -9.894531 11.578125 -12.84375 C 12.273438 -15.789062 13.035156 -18.613281 13.859375 -21.3125 C 14.679688 -24.007812 15.515625 -26.472656 16.359375 -28.703125 C 17.203125 -30.929688 17.828125 -32.582031 18.234375 -33.65625 C 18.773438 -35.09375 19.539062 -37.125 20.53125 -39.75 C 21.53125 -42.382812 22.6875 -45.1875 24 -48.15625 C 25.320312 -51.132812 26.816406 -54.085938 28.484375 -57.015625 C 30.160156 -59.953125 31.957031 -62.539062 33.875 -64.78125 C 35.789062 -67.019531 37.8125 -68.65625 39.9375 -69.6875 C 42.0625 -70.726562 44.285156 -70.8125 46.609375 -69.9375 C 49.023438 -69.019531 50.398438 -67.117188 50.734375 -64.234375 C 51.066406 -61.359375 50.941406 -58.191406 50.359375 -54.734375 C 49.773438 -51.273438 48.925781 -47.945312 47.8125 -44.75 C 46.707031 -41.550781 45.867188 -39.191406 45.296875 -37.671875 Z M 45.296875 -37.671875 "/></g></g></g><g fill="#315f92" fill-opacity="1"><g transform="translate(646.793309, 275.682379)"><g><path d="M 26.296875 17.84375 C 21.941406 15.65625 18.722656 12.59375 16.640625 8.65625 C 14.554688 4.726562 13.300781 0.421875 12.875 -4.265625 C 12.457031 -8.960938 12.789062 -13.785156 13.875 -18.734375 C 14.96875 -23.691406 16.582031 -28.300781 18.71875 -32.5625 C 20.988281 -37.09375 23.890625 -41.484375 27.421875 -45.734375 C 30.953125 -49.992188 34.863281 -53.53125 39.15625 -56.34375 C 43.445312 -59.15625 48.015625 -60.921875 52.859375 -61.640625 C 57.710938 -62.367188 62.613281 -61.492188 67.5625 -59.015625 C 72.332031 -56.617188 75.75 -53.269531 77.8125 -48.96875 C 79.875 -44.675781 80.953125 -40.078125 81.046875 -35.171875 C 81.148438 -30.265625 80.472656 -25.296875 79.015625 -20.265625 C 77.566406 -15.234375 75.6875 -10.726562 73.375 -6.75 C 70.851562 -2.363281 67.859375 1.84375 64.390625 5.875 C 60.929688 9.90625 57.175781 13.195312 53.125 15.75 C 49.070312 18.3125 44.757812 19.890625 40.1875 20.484375 C 35.613281 21.078125 30.984375 20.195312 26.296875 17.84375 Z M 56.578125 -39.359375 C 55.304688 -40.003906 53.832031 -39.890625 52.15625 -39.015625 C 50.488281 -38.140625 48.84375 -36.878906 47.21875 -35.234375 C 45.601562 -33.597656 44.078125 -31.78125 42.640625 -29.78125 C 41.210938 -27.78125 40.09375 -25.96875 39.28125 -24.34375 C 38.25 -22.300781 37.328125 -19.988281 36.515625 -17.40625 C 35.703125 -14.820312 35.128906 -12.351562 34.796875 -10 C 34.472656 -7.65625 34.472656 -5.578125 34.796875 -3.765625 C 35.117188 -1.953125 35.921875 -0.722656 37.203125 -0.078125 C 38.566406 0.609375 40.054688 0.554688 41.671875 -0.234375 C 43.296875 -1.023438 44.898438 -2.25 46.484375 -3.90625 C 48.066406 -5.5625 49.570312 -7.5 51 -9.71875 C 52.4375 -11.945312 53.664062 -14.082031 54.6875 -16.125 C 55.632812 -18.007812 56.503906 -20.160156 57.296875 -22.578125 C 58.085938 -25.003906 58.65625 -27.363281 59 -29.65625 C 59.34375 -31.945312 59.347656 -33.972656 59.015625 -35.734375 C 58.679688 -37.503906 57.867188 -38.710938 56.578125 -39.359375 Z M 56.578125 -39.359375 "/></g></g></g><g fill="#315f92" fill-opacity="1"><g transform="translate(699.825125, 301.669212)"><g><path d="M 34.734375 28.8125 C 33.398438 27.894531 32.757812 26.554688 32.8125 24.796875 C 32.863281 23.035156 33.234375 21.234375 33.921875 19.390625 C 34.617188 17.546875 35.460938 15.773438 36.453125 14.078125 C 37.453125 12.378906 38.25 11.101562 38.84375 10.25 C 40.46875 7.882812 42.226562 5.617188 44.125 3.453125 C 46.03125 1.285156 47.96875 -0.851562 49.9375 -2.96875 C 51.914062 -5.09375 53.851562 -7.234375 55.75 -9.390625 C 57.65625 -11.554688 59.421875 -13.816406 61.046875 -16.171875 C 61.703125 -17.117188 62.363281 -18.171875 63.03125 -19.328125 C 63.707031 -20.484375 64.242188 -21.644531 64.640625 -22.8125 C 65.046875 -23.988281 65.148438 -25.101562 64.953125 -26.15625 C 64.753906 -27.21875 64.144531 -28.101562 63.125 -28.8125 C 62.425781 -29.289062 61.25 -29.257812 59.59375 -28.71875 C 57.945312 -28.1875 56.25 -27.453125 54.5 -26.515625 C 52.757812 -25.578125 51.128906 -24.554688 49.609375 -23.453125 C 48.097656 -22.347656 47.097656 -21.4375 46.609375 -20.71875 C 45.421875 -19 44.238281 -17.238281 43.0625 -15.4375 C 41.882812 -13.644531 40.675781 -11.847656 39.4375 -10.046875 L 34.71875 -3.203125 C 33.65625 -1.835938 32.535156 -0.460938 31.359375 0.921875 C 30.179688 2.304688 28.941406 3.597656 27.640625 4.796875 C 26.421875 6.035156 25.128906 7.140625 23.765625 8.109375 C 22.398438 9.085938 21.003906 9.8125 19.578125 10.28125 C 18.160156 10.75 16.722656 10.945312 15.265625 10.875 C 13.816406 10.800781 12.382812 10.28125 10.96875 9.3125 C 9.40625 8.226562 8.460938 6.820312 8.140625 5.09375 C 7.828125 3.363281 7.910156 1.476562 8.390625 -0.5625 C 8.867188 -2.613281 9.660156 -4.734375 10.765625 -6.921875 C 11.878906 -9.117188 13.039062 -11.21875 14.25 -13.21875 C 15.457031 -15.21875 16.632812 -17.007812 17.78125 -18.59375 C 18.925781 -20.1875 19.828125 -21.453125 20.484375 -22.390625 L 24.296875 -27.9375 C 26.359375 -30.925781 28.328125 -33.914062 30.203125 -36.90625 C 32.085938 -39.894531 34.035156 -42.84375 36.046875 -45.75 C 37.117188 -47.320312 38.515625 -49.3125 40.234375 -51.71875 C 41.953125 -54.132812 43.890625 -56.3125 46.046875 -58.25 C 48.203125 -60.1875 50.472656 -61.539062 52.859375 -62.3125 C 55.253906 -63.09375 57.671875 -62.644531 60.109375 -60.96875 C 61.203125 -60.21875 61.9375 -59.191406 62.3125 -57.890625 C 62.6875 -56.585938 62.851562 -55.195312 62.8125 -53.71875 C 62.78125 -52.238281 62.570312 -50.757812 62.1875 -49.28125 C 61.8125 -47.800781 61.445312 -46.550781 61.09375 -45.53125 C 62.632812 -46.082031 64.289062 -46.503906 66.0625 -46.796875 C 67.832031 -47.085938 69.65625 -47.164062 71.53125 -47.03125 C 73.40625 -46.894531 75.328125 -46.492188 77.296875 -45.828125 C 79.273438 -45.160156 81.320312 -44.097656 83.4375 -42.640625 C 87.445312 -39.867188 89.90625 -36.75 90.8125 -33.28125 C 91.726562 -29.820312 91.726562 -26.296875 90.8125 -22.703125 C 89.90625 -19.109375 88.429688 -15.578125 86.390625 -12.109375 C 84.347656 -8.648438 82.40625 -5.582031 80.5625 -2.90625 C 79.644531 -1.570312 78.160156 0.328125 76.109375 2.796875 C 74.066406 5.273438 71.691406 7.929688 68.984375 10.765625 C 66.285156 13.597656 63.351562 16.382812 60.1875 19.125 C 57.019531 21.875 53.898438 24.21875 50.828125 26.15625 C 47.753906 28.09375 44.8125 29.367188 42 29.984375 C 39.195312 30.609375 36.773438 30.21875 34.734375 28.8125 Z M 34.734375 28.8125 "/></g></g></g></svg>