<svg xmlns="http://www.w3.org/2000/svg" xmlns:xlink="http://www.w3.org/1999/xlink" width="1280" zoomAndPan="magnify" viewBox="0 0 960 540.000001" height="720" preserveAspectRatio="xMidYMid meet" version="1.0"><defs><g/><clipPath id="7cc8745dc0"><path d="M 0.886719 0 L 959.113281 0 L 959.113281 539 L 0.886719 539 Z M 0.886719 0 " clip-rule="nonzero"/></clipPath><clipPath id="ad42369491"><path d="M 22.035156 263.519531 L 123.960938 263.519531 L 123.960938 274.507812 L 22.035156 274.507812 Z M 22.035156 263.519531 " clip-rule="nonzero"/></clipPath><clipPath id="0b9c9a983f"><path d="M 836.019531 263.519531 L 937.945312 263.519531 L 937.945312 274.507812 L 836.019531 274.507812 Z M 836.019531 263.519531 " clip-rule="nonzero"/></clipPath><clipPath id="b4028f6439"><path d="M 88 22 L 181 22 L 181 86 L 88 86 Z M 88 22 " clip-rule="nonzero"/></clipPath><clipPath id="c66a8580c8"><path d="M 175.132812 85.527344 L 88.617188 31.640625 L 94.425781 22.3125 L 180.945312 76.199219 Z M 175.132812 85.527344 " clip-rule="nonzero"/></clipPath><clipPath id="ab8d30733c"><path d="M 779 452 L 872 452 L 872 516 L 779 516 Z M 779 452 " clip-rule="nonzero"/></clipPath><clipPath id="fc3fa67ccf"><path d="M 866.066406 515.851562 L 779.546875 461.96875 L 785.359375 452.640625 L 871.875 506.523438 Z M 866.066406 515.851562 " clip-rule="nonzero"/></clipPath><clipPath id="a50cc7a5af"><path d="M 77 438 L 172 438 L 172 498 L 77 498 Z M 77 438 " clip-rule="nonzero"/></clipPath><clipPath id="743c785643"><path d="M 171.90625 448.003906 L 83.003906 497.855469 L 77.628906 488.273438 L 166.53125 438.417969 Z M 171.90625 448.003906 " clip-rule="nonzero"/></clipPath><clipPath id="7271f7a456"><path d="M 787 40 L 882 40 L 882 100 L 787 100 Z M 787 40 " clip-rule="nonzero"/></clipPath><clipPath id="2308b4eb7e"><path d="M 881.882812 49.882812 L 792.980469 99.734375 L 787.605469 90.148438 L 876.507812 40.296875 Z M 881.882812 49.882812 " clip-rule="nonzero"/></clipPath></defs><g clip-path="url(#7cc8745dc0)"><path fill="#ffffff" d="M 0.886719 0 L 959.113281 0 L 959.113281 539 L 0.886719 539 Z M 0.886719 0 " fill-opacity="1" fill-rule="nonzero"/><path fill="#f19d69" d="M 0.886719 0 L 959.113281 0 L 959.113281 539 L 0.886719 539 Z M 0.886719 0 " fill-opacity="1" fill-rule="nonzero"/></g><g clip-path="url(#ad42369491)"><path fill="#38b6ff" d="M 123.960938 305.644531 L 22.082031 305.644531 L 22.082031 232.382812 L 123.960938 232.382812 Z M 123.960938 305.644531 " fill-opacity="1" fill-rule="nonzero"/></g><g clip-path="url(#0b9c9a983f)"><path fill="#38b6ff" d="M 937.945312 305.644531 L 836.066406 305.644531 L 836.066406 232.382812 L 937.945312 232.382812 Z M 937.945312 305.644531 " fill-opacity="1" fill-rule="nonzero"/></g><g clip-path="url(#b4028f6439)"><g clip-path="url(#c66a8580c8)"><path fill="#ffbd59" d="M 158.671875 111.957031 L 72.195312 58.09375 L 110.925781 -4.09375 L 197.40625 49.769531 Z M 158.671875 111.957031 " fill-opacity="1" fill-rule="nonzero"/></g></g><g clip-path="url(#ab8d30733c)"><g clip-path="url(#fc3fa67ccf)"><path fill="#ffbd59" d="M 849.605469 542.28125 L 763.125 488.421875 L 801.855469 426.234375 L 888.335938 480.09375 Z M 849.605469 542.28125 " fill-opacity="1" fill-rule="nonzero"/></g></g><g clip-path="url(#a50cc7a5af)"><g clip-path="url(#743c785643)"><path fill="#ffbd59" d="M 187.136719 475.164062 L 98.273438 524.992188 L 62.441406 461.089844 L 151.304688 411.261719 Z M 187.136719 475.164062 " fill-opacity="1" fill-rule="nonzero"/></g></g><g clip-path="url(#7271f7a456)"><g clip-path="url(#2308b4eb7e)"><path fill="#ffbd59" d="M 897.113281 77.039062 L 808.25 126.871094 L 772.417969 62.96875 L 861.277344 13.140625 Z M 897.113281 77.039062 " fill-opacity="1" fill-rule="nonzero"/></g></g><g fill="#315f92" fill-opacity="1"><g transform="translate(267.083088, 417.102116)"><g><path d="M 88.8125 -52.515625 C 89.46875 -50.097656 90 -47.6875 90.40625 -45.28125 C 90.8125 -42.882812 91.007812 -40.679688 91 -38.671875 C 90.988281 -36.671875 90.632812 -34.9375 89.9375 -33.46875 C 89.238281 -32.007812 88.179688 -31 86.765625 -30.4375 C 85.347656 -29.863281 83.628906 -30.425781 81.609375 -32.125 C 79.597656 -33.832031 77.363281 -36.269531 74.90625 -39.4375 C 72.445312 -42.601562 69.890625 -46.269531 67.234375 -50.4375 C 64.585938 -54.613281 62 -58.890625 59.46875 -63.265625 C 56.945312 -67.640625 54.570312 -71.945312 52.34375 -76.1875 C 50.125 -80.425781 48.226562 -84.125 46.65625 -87.28125 C 47.476562 -83.707031 48.367188 -79.703125 49.328125 -75.265625 C 50.296875 -70.835938 51.148438 -66.28125 51.890625 -61.59375 C 52.640625 -56.914062 53.269531 -52.296875 53.78125 -47.734375 C 54.289062 -43.171875 54.523438 -39.003906 54.484375 -35.234375 C 54.453125 -31.472656 54.078125 -28.316406 53.359375 -25.765625 C 52.648438 -23.222656 51.453125 -21.617188 49.765625 -20.953125 C 48.265625 -20.335938 46.359375 -20.742188 44.046875 -22.171875 C 41.734375 -23.609375 39.203125 -25.695312 36.453125 -28.4375 C 33.703125 -31.175781 30.890625 -34.328125 28.015625 -37.890625 C 25.148438 -41.460938 22.359375 -45.085938 19.640625 -48.765625 C 16.929688 -52.453125 14.441406 -55.96875 12.171875 -59.3125 C 9.898438 -62.664062 8.046875 -65.488281 6.609375 -67.78125 C 7.359375 -65.925781 8.160156 -63.863281 9.015625 -61.59375 C 9.878906 -59.320312 10.503906 -57.695312 10.890625 -56.71875 C 11.066406 -56.289062 11.628906 -54.832031 12.578125 -52.34375 C 13.535156 -49.851562 14.570312 -46.828125 15.6875 -43.265625 C 16.8125 -39.710938 17.898438 -35.863281 18.953125 -31.71875 C 20.015625 -27.570312 20.707031 -23.613281 21.03125 -19.84375 C 21.363281 -16.082031 21.238281 -12.753906 20.65625 -9.859375 C 20.082031 -6.960938 18.734375 -4.976562 16.609375 -3.90625 C 14.515625 -3.988281 12.488281 -4.738281 10.53125 -6.15625 C 8.570312 -7.582031 6.679688 -9.414062 4.859375 -11.65625 C 3.035156 -13.894531 1.316406 -16.382812 -0.296875 -19.125 C -1.910156 -21.875 -3.410156 -24.582031 -4.796875 -27.25 C -6.179688 -29.925781 -7.375 -32.445312 -8.375 -34.8125 C -9.382812 -37.175781 -10.191406 -39.113281 -10.796875 -40.625 C -11.867188 -43.269531 -13.054688 -46.664062 -14.359375 -50.8125 C -15.660156 -54.957031 -16.847656 -59.378906 -17.921875 -64.078125 C -18.992188 -68.773438 -19.84375 -73.5625 -20.46875 -78.4375 C -21.09375 -83.320312 -21.289062 -87.835938 -21.0625 -91.984375 C -20.84375 -96.140625 -20.09375 -99.753906 -18.8125 -102.828125 C -17.53125 -105.910156 -15.472656 -108.023438 -12.640625 -109.171875 C -11.316406 -109.703125 -9.597656 -109.515625 -7.484375 -108.609375 C -5.378906 -107.710938 -3.085938 -106.351562 -0.609375 -104.53125 C 1.859375 -102.707031 4.398438 -100.578125 7.015625 -98.140625 C 9.640625 -95.703125 12.207031 -93.21875 14.71875 -90.6875 C 17.226562 -88.15625 19.523438 -85.691406 21.609375 -83.296875 C 23.703125 -80.910156 25.457031 -78.863281 26.875 -77.15625 C 26.71875 -79.570312 26.597656 -82.40625 26.515625 -85.65625 C 26.441406 -88.90625 26.429688 -92.3125 26.484375 -95.875 C 26.535156 -99.445312 26.738281 -103.019531 27.09375 -106.59375 C 27.457031 -110.164062 28.007812 -113.460938 28.75 -116.484375 C 29.488281 -119.503906 30.421875 -122.09375 31.546875 -124.25 C 32.679688 -126.40625 34.132812 -127.835938 35.90625 -128.546875 C 39 -129.785156 42.113281 -129.695312 45.25 -128.28125 C 48.382812 -126.875 51.441406 -124.640625 54.421875 -121.578125 C 57.398438 -118.515625 60.242188 -114.882812 62.953125 -110.6875 C 65.660156 -106.5 68.15625 -102.269531 70.4375 -98 C 72.726562 -93.738281 74.71875 -89.691406 76.40625 -85.859375 C 78.101562 -82.023438 79.429688 -78.910156 80.390625 -76.515625 C 80.785156 -75.546875 81.316406 -74.222656 81.984375 -72.546875 C 82.660156 -70.867188 83.40625 -68.960938 84.21875 -66.828125 C 85.03125 -64.691406 85.820312 -62.390625 86.59375 -59.921875 C 87.375 -57.460938 88.113281 -54.992188 88.8125 -52.515625 Z M 88.8125 -52.515625 "/></g></g></g><g fill="#315f92" fill-opacity="1"><g transform="translate(360.67939, 380.744793)"><g><path d="M 31.609375 -2.25 C 26.859375 -1.269531 22.453125 -1.675781 18.390625 -3.46875 C 14.328125 -5.269531 10.679688 -7.878906 7.453125 -11.296875 C 4.222656 -14.722656 1.507812 -18.710938 -0.6875 -23.265625 C -2.882812 -27.816406 -4.460938 -32.421875 -5.421875 -37.078125 C -6.429688 -42.023438 -6.867188 -47.257812 -6.734375 -52.78125 C -6.597656 -58.300781 -5.710938 -63.488281 -4.078125 -68.34375 C -2.453125 -73.195312 0.0351562 -77.398438 3.390625 -80.953125 C 6.753906 -84.515625 11.140625 -86.851562 16.546875 -87.96875 C 21.765625 -89.039062 26.507812 -88.523438 30.78125 -86.421875 C 35.050781 -84.328125 38.738281 -81.390625 41.84375 -77.609375 C 44.957031 -73.828125 47.492188 -69.507812 49.453125 -64.65625 C 51.421875 -59.8125 52.722656 -55.125 53.359375 -50.59375 C 54.085938 -45.582031 54.335938 -40.429688 54.109375 -35.140625 C 53.878906 -29.847656 52.960938 -24.945312 51.359375 -20.4375 C 49.765625 -15.925781 47.359375 -12.023438 44.140625 -8.734375 C 40.921875 -5.453125 36.742188 -3.289062 31.609375 -2.25 Z M 20.0625 -65.78125 C 18.664062 -65.5 17.582031 -64.5 16.8125 -62.78125 C 16.039062 -61.070312 15.523438 -59.070312 15.265625 -56.78125 C 15.003906 -54.5 14.929688 -52.128906 15.046875 -49.671875 C 15.171875 -47.210938 15.414062 -45.097656 15.78125 -43.328125 C 16.226562 -41.085938 16.925781 -38.703125 17.875 -36.171875 C 18.832031 -33.648438 19.910156 -31.367188 21.109375 -29.328125 C 22.304688 -27.285156 23.585938 -25.648438 24.953125 -24.421875 C 26.328125 -23.203125 27.710938 -22.738281 29.109375 -23.03125 C 30.597656 -23.332031 31.738281 -24.289062 32.53125 -25.90625 C 33.320312 -27.53125 33.820312 -29.484375 34.03125 -31.765625 C 34.25 -34.046875 34.234375 -36.492188 33.984375 -39.109375 C 33.734375 -41.734375 33.378906 -44.164062 32.921875 -46.40625 C 32.503906 -48.457031 31.851562 -50.675781 30.96875 -53.0625 C 30.082031 -55.457031 29.070312 -57.660156 27.9375 -59.671875 C 26.800781 -61.679688 25.550781 -63.269531 24.1875 -64.4375 C 22.832031 -65.613281 21.457031 -66.0625 20.0625 -65.78125 Z M 20.0625 -65.78125 "/></g></g></g><g fill="#315f92" fill-opacity="1"><g transform="translate(417.873456, 368.106607)"><g><path d="M 69.140625 -51.046875 C 69.285156 -48.296875 69.238281 -45.171875 69 -41.671875 C 68.757812 -38.179688 68.289062 -34.601562 67.59375 -30.9375 C 66.894531 -27.28125 65.898438 -23.695312 64.609375 -20.1875 C 63.328125 -16.675781 61.691406 -13.503906 59.703125 -10.671875 C 57.710938 -7.847656 55.359375 -5.546875 52.640625 -3.765625 C 49.929688 -1.992188 46.726562 -1.007812 43.03125 -0.8125 C 39.125 -0.59375 35.523438 -1.300781 32.234375 -2.9375 C 28.953125 -4.570312 26.085938 -6.894531 23.640625 -9.90625 C 23.492188 -7.320312 22.566406 -5.003906 20.859375 -2.953125 C 19.160156 -0.898438 16.9375 0.203125 14.1875 0.359375 C 12.570312 0.441406 11.171875 -0.289062 9.984375 -1.84375 C 8.796875 -3.40625 7.796875 -5.425781 6.984375 -7.90625 C 6.179688 -10.382812 5.53125 -13.132812 5.03125 -16.15625 C 4.53125 -19.175781 4.148438 -22.109375 3.890625 -24.953125 C 3.640625 -27.804688 3.453125 -30.375 3.328125 -32.65625 C 3.203125 -34.9375 3.113281 -36.550781 3.0625 -37.5 C 2.882812 -40.738281 2.726562 -43.976562 2.59375 -47.21875 C 2.457031 -50.457031 2.34375 -53.738281 2.25 -57.0625 C 2.164062 -58.675781 2.007812 -61.097656 1.78125 -64.328125 C 1.550781 -67.566406 1.375 -71.160156 1.25 -75.109375 C 1.132812 -79.066406 1.128906 -83.117188 1.234375 -87.265625 C 1.335938 -91.421875 1.722656 -95.234375 2.390625 -98.703125 C 3.054688 -102.171875 4.085938 -105.039062 5.484375 -107.3125 C 6.890625 -109.59375 8.773438 -110.84375 11.140625 -111.0625 C 13.046875 -111.164062 14.703125 -110.59375 16.109375 -109.34375 C 17.515625 -108.09375 18.726562 -106.394531 19.75 -104.25 C 20.769531 -102.113281 21.613281 -99.703125 22.28125 -97.015625 C 22.957031 -94.335938 23.488281 -91.648438 23.875 -88.953125 C 24.269531 -86.253906 24.554688 -83.691406 24.734375 -81.265625 C 24.921875 -78.847656 25.054688 -76.882812 25.140625 -75.375 C 25.160156 -75.082031 25.171875 -74.429688 25.171875 -73.421875 C 25.179688 -72.421875 25.21875 -71.347656 25.28125 -70.203125 C 25.34375 -69.066406 25.398438 -68.046875 25.453125 -67.140625 C 25.503906 -66.242188 25.535156 -65.75 25.546875 -65.65625 C 26.296875 -67.507812 27.429688 -69.335938 28.953125 -71.140625 C 30.484375 -72.941406 32.207031 -74.5625 34.125 -76 C 36.039062 -77.445312 38.066406 -78.65625 40.203125 -79.625 C 42.347656 -80.601562 44.421875 -81.144531 46.421875 -81.25 C 50.410156 -81.476562 53.816406 -80.644531 56.640625 -78.75 C 59.472656 -76.863281 61.785156 -74.394531 63.578125 -71.34375 C 65.367188 -68.300781 66.695312 -64.96875 67.5625 -61.34375 C 68.4375 -57.71875 68.960938 -54.285156 69.140625 -51.046875 Z M 48.40625 -45.609375 C 48.34375 -46.742188 48.203125 -47.972656 47.984375 -49.296875 C 47.765625 -50.617188 47.363281 -51.835938 46.78125 -52.953125 C 46.195312 -54.066406 45.425781 -54.976562 44.46875 -55.6875 C 43.519531 -56.40625 42.335938 -56.722656 40.921875 -56.640625 C 39.398438 -56.554688 37.921875 -56.140625 36.484375 -55.390625 C 35.046875 -54.640625 33.691406 -53.703125 32.421875 -52.578125 C 31.148438 -51.460938 29.972656 -50.28125 28.890625 -49.03125 C 27.816406 -47.78125 26.882812 -46.5625 26.09375 -45.375 L 25.375 -32.59375 C 27.007812 -30.488281 28.957031 -28.859375 31.21875 -27.703125 C 33.476562 -26.546875 35.988281 -26.039062 38.75 -26.1875 C 40.84375 -26.3125 42.539062 -27.070312 43.84375 -28.46875 C 45.144531 -29.875 46.144531 -31.578125 46.84375 -33.578125 C 47.550781 -35.578125 48.007812 -37.675781 48.21875 -39.875 C 48.4375 -42.070312 48.5 -43.984375 48.40625 -45.609375 Z M 48.40625 -45.609375 "/></g></g></g><g fill="#315f92" fill-opacity="1"><g transform="translate(488.605351, 365.05794)"><g><path d="M 33.75 -97.890625 C 33.664062 -96.554688 33.234375 -95.382812 32.453125 -94.375 C 31.679688 -93.363281 30.695312 -92.488281 29.5 -91.75 C 28.3125 -91.007812 27.039062 -90.46875 25.6875 -90.125 C 24.332031 -89.78125 23.085938 -89.644531 21.953125 -89.71875 C 20.046875 -89.832031 18.40625 -90.40625 17.03125 -91.4375 C 15.664062 -92.46875 15.039062 -93.984375 15.15625 -95.984375 C 15.25 -97.410156 15.6875 -98.644531 16.46875 -99.6875 C 17.25 -100.738281 18.179688 -101.585938 19.265625 -102.234375 C 20.347656 -102.890625 21.566406 -103.367188 22.921875 -103.671875 C 24.285156 -103.972656 25.585938 -104.085938 26.828125 -104.015625 C 28.617188 -103.898438 30.25 -103.367188 31.71875 -102.421875 C 33.195312 -101.484375 33.875 -99.972656 33.75 -97.890625 Z M 32 -49.328125 C 31.914062 -47.992188 31.828125 -46.59375 31.734375 -45.125 C 31.648438 -43.65625 31.523438 -42.253906 31.359375 -40.921875 C 31.160156 -39.304688 30.976562 -37.144531 30.8125 -34.4375 C 30.65625 -31.726562 30.390625 -28.8125 30.015625 -25.6875 C 29.640625 -22.5625 29.140625 -19.394531 28.515625 -16.1875 C 27.898438 -12.988281 27.035156 -10.082031 25.921875 -7.46875 C 24.804688 -4.863281 23.414062 -2.773438 21.75 -1.203125 C 20.082031 0.359375 18.054688 1.117188 15.671875 1.078125 C 13.867188 1.066406 12.390625 0.265625 11.234375 -1.328125 C 10.085938 -2.929688 9.179688 -4.96875 8.515625 -7.4375 C 7.859375 -9.914062 7.425781 -12.660156 7.21875 -15.671875 C 7.019531 -18.691406 6.90625 -21.609375 6.875 -24.421875 C 6.851562 -27.234375 6.914062 -29.828125 7.0625 -32.203125 C 7.207031 -34.578125 7.3125 -36.335938 7.375 -37.484375 C 7.46875 -38.992188 7.597656 -41.148438 7.765625 -43.953125 C 7.929688 -46.753906 8.207031 -49.765625 8.59375 -52.984375 C 8.976562 -56.210938 9.53125 -59.472656 10.25 -62.765625 C 10.96875 -66.066406 11.910156 -69.066406 13.078125 -71.765625 C 14.242188 -74.460938 15.679688 -76.617188 17.390625 -78.234375 C 19.109375 -79.859375 21.207031 -80.597656 23.6875 -80.453125 C 26.25 -80.296875 28.117188 -78.894531 29.296875 -76.25 C 30.484375 -73.601562 31.304688 -70.550781 31.765625 -67.09375 C 32.234375 -63.632812 32.410156 -60.210938 32.296875 -56.828125 C 32.191406 -53.441406 32.09375 -50.941406 32 -49.328125 Z M 32 -49.328125 "/></g></g></g><g fill="#315f92" fill-opacity="1"><g transform="translate(519.904639, 366.7418)"><g><path d="M 42.34375 -81.625 C 41.644531 -76.53125 40.738281 -71.4375 39.625 -66.34375 C 38.507812 -61.257812 37.597656 -56.125 36.890625 -50.9375 C 35.984375 -44.238281 35.285156 -37.507812 34.796875 -30.75 C 34.316406 -23.988281 33.613281 -17.210938 32.6875 -10.421875 C 32.457031 -8.722656 32.101562 -6.828125 31.625 -4.734375 C 31.144531 -2.640625 30.429688 -0.742188 29.484375 0.953125 C 28.535156 2.660156 27.269531 4.03125 25.6875 5.0625 C 24.113281 6.09375 22.144531 6.445312 19.78125 6.125 C 17.519531 5.820312 15.710938 4.453125 14.359375 2.015625 C 13.003906 -0.421875 12.019531 -3.4375 11.40625 -7.03125 C 10.789062 -10.625 10.414062 -14.59375 10.28125 -18.9375 C 10.144531 -23.28125 10.1875 -27.476562 10.40625 -31.53125 C 10.625 -35.59375 10.882812 -39.304688 11.1875 -42.671875 C 11.5 -46.046875 11.757812 -48.53125 11.96875 -50.125 C 12.21875 -51.925781 12.644531 -54.515625 13.25 -57.890625 C 13.851562 -61.265625 14.65625 -64.898438 15.65625 -68.796875 C 16.664062 -72.703125 17.847656 -76.65625 19.203125 -80.65625 C 20.566406 -84.65625 22.132812 -88.238281 23.90625 -91.40625 C 25.675781 -94.582031 27.625 -97.101562 29.75 -98.96875 C 31.882812 -100.84375 34.226562 -101.609375 36.78125 -101.265625 C 38.851562 -100.984375 40.335938 -100.082031 41.234375 -98.5625 C 42.140625 -97.039062 42.695312 -95.28125 42.90625 -93.28125 C 43.113281 -91.289062 43.117188 -89.226562 42.921875 -87.09375 C 42.734375 -84.957031 42.539062 -83.132812 42.34375 -81.625 Z M 42.34375 -81.625 "/></g></g></g><g fill="#315f92" fill-opacity="1"><g transform="translate(553.661432, 371.232154)"><g><path d="M 48 -91.734375 C 47.726562 -90.429688 47.132812 -89.335938 46.21875 -88.453125 C 45.300781 -87.566406 44.195312 -86.847656 42.90625 -86.296875 C 41.625 -85.753906 40.28125 -85.410156 38.875 -85.265625 C 37.476562 -85.128906 36.226562 -85.179688 35.125 -85.421875 C 33.257812 -85.816406 31.726562 -86.628906 30.53125 -87.859375 C 29.332031 -89.085938 28.941406 -90.675781 29.359375 -92.625 C 29.648438 -94.019531 30.257812 -95.179688 31.1875 -96.109375 C 32.125 -97.035156 33.175781 -97.738281 34.34375 -98.21875 C 35.507812 -98.695312 36.785156 -98.984375 38.171875 -99.078125 C 39.554688 -99.171875 40.851562 -99.085938 42.0625 -98.828125 C 43.820312 -98.453125 45.359375 -97.6875 46.671875 -96.53125 C 47.992188 -95.382812 48.4375 -93.785156 48 -91.734375 Z M 39 -43.984375 C 38.726562 -42.679688 38.4375 -41.304688 38.125 -39.859375 C 37.820312 -38.421875 37.488281 -37.0625 37.125 -35.78125 C 36.695312 -34.207031 36.195312 -32.09375 35.625 -29.4375 C 35.0625 -26.78125 34.359375 -23.9375 33.515625 -20.90625 C 32.679688 -17.875 31.710938 -14.816406 30.609375 -11.734375 C 29.515625 -8.660156 28.222656 -5.914062 26.734375 -3.5 C 25.253906 -1.09375 23.570312 0.757812 21.6875 2.0625 C 19.800781 3.363281 17.6875 3.8125 15.34375 3.40625 C 13.550781 3.125 12.207031 2.109375 11.3125 0.359375 C 10.414062 -1.378906 9.820312 -3.523438 9.53125 -6.078125 C 9.25 -8.628906 9.234375 -11.410156 9.484375 -14.421875 C 9.742188 -17.429688 10.070312 -20.328125 10.46875 -23.109375 C 10.863281 -25.898438 11.304688 -28.457031 11.796875 -30.78125 C 12.296875 -33.113281 12.664062 -34.84375 12.90625 -35.96875 C 13.226562 -37.457031 13.679688 -39.570312 14.265625 -42.3125 C 14.847656 -45.0625 15.566406 -48 16.421875 -51.125 C 17.285156 -54.25 18.320312 -57.382812 19.53125 -60.53125 C 20.738281 -63.6875 22.117188 -66.507812 23.671875 -69 C 25.222656 -71.5 26.96875 -73.414062 28.90625 -74.75 C 30.851562 -76.09375 33.039062 -76.507812 35.46875 -76 C 37.976562 -75.457031 39.617188 -73.789062 40.390625 -71 C 41.160156 -68.207031 41.515625 -65.066406 41.453125 -61.578125 C 41.390625 -58.085938 41.050781 -54.675781 40.4375 -51.34375 C 39.820312 -48.019531 39.34375 -45.566406 39 -43.984375 Z M 39 -43.984375 "/></g></g></g><g fill="#315f92" fill-opacity="1"><g transform="translate(583.639996, 376.92999)"><g><path d="M 34.328125 16.09375 C 27.867188 14.082031 23.109375 11.675781 20.046875 8.875 C 16.984375 6.070312 15.046875 2.851562 14.234375 -0.78125 C 13.429688 -4.425781 13.53125 -8.488281 14.53125 -12.96875 C 15.53125 -17.445312 16.863281 -22.367188 18.53125 -27.734375 C 19.863281 -32.003906 21.335938 -36.253906 22.953125 -40.484375 C 24.578125 -44.722656 26.429688 -49.21875 28.515625 -53.96875 C 27.234375 -54.363281 26.222656 -54.648438 25.484375 -54.828125 C 24.753906 -55.003906 24.160156 -55.164062 23.703125 -55.3125 C 20.796875 -56.21875 18.472656 -57.640625 16.734375 -59.578125 C 14.992188 -61.515625 14.535156 -63.800781 15.359375 -66.4375 C 15.867188 -68.070312 16.9375 -69.332031 18.5625 -70.21875 C 20.1875 -71.101562 22.09375 -71.703125 24.28125 -72.015625 C 26.476562 -72.335938 28.773438 -72.421875 31.171875 -72.265625 C 33.566406 -72.117188 35.796875 -71.828125 37.859375 -71.390625 C 38.648438 -73.929688 39.707031 -76.691406 41.03125 -79.671875 C 42.351562 -82.648438 43.910156 -85.332031 45.703125 -87.71875 C 47.503906 -90.101562 49.503906 -91.945312 51.703125 -93.25 C 53.910156 -94.5625 56.285156 -94.816406 58.828125 -94.015625 C 60.285156 -93.566406 61.445312 -92.734375 62.3125 -91.515625 C 63.175781 -90.296875 63.765625 -88.910156 64.078125 -87.359375 C 64.390625 -85.816406 64.472656 -84.171875 64.328125 -82.421875 C 64.179688 -80.671875 63.867188 -79.023438 63.390625 -77.484375 C 62.828125 -75.660156 62.113281 -73.835938 61.25 -72.015625 C 60.382812 -70.191406 59.140625 -67.984375 57.515625 -65.390625 C 59.128906 -65.097656 60.210938 -64.882812 60.765625 -64.75 C 61.328125 -64.625 61.835938 -64.492188 62.296875 -64.359375 C 63.847656 -63.867188 65.414062 -63.226562 67 -62.4375 C 68.59375 -61.644531 69.992188 -60.707031 71.203125 -59.625 C 72.421875 -58.550781 73.320312 -57.347656 73.90625 -56.015625 C 74.488281 -54.691406 74.550781 -53.300781 74.09375 -51.84375 C 73.582031 -50.207031 72.46875 -48.957031 70.75 -48.09375 C 69.039062 -47.238281 67.046875 -46.664062 64.765625 -46.375 C 62.484375 -46.082031 60.125 -46.039062 57.6875 -46.25 C 55.257812 -46.46875 53.019531 -46.800781 50.96875 -47.25 C 49.257812 -43.6875 47.800781 -40.367188 46.59375 -37.296875 C 45.382812 -34.234375 44.148438 -31.15625 42.890625 -28.0625 C 42.210938 -26.570312 41.554688 -25.050781 40.921875 -23.5 C 40.296875 -21.957031 39.726562 -20.367188 39.21875 -18.734375 C 38.851562 -17.546875 38.46875 -16.144531 38.0625 -14.53125 C 37.65625 -12.914062 37.5 -11.289062 37.59375 -9.65625 C 37.6875 -8.03125 38.15625 -6.515625 39 -5.109375 C 39.851562 -3.703125 41.328125 -2.671875 43.421875 -2.015625 C 44.691406 -1.617188 46.046875 -1.320312 47.484375 -1.125 C 48.921875 -0.925781 50.320312 -0.613281 51.6875 -0.1875 C 54.050781 0.550781 55.5 1.898438 56.03125 3.859375 C 56.5625 5.828125 56.425781 8.085938 55.625 10.640625 C 55.03125 12.546875 53.945312 14.023438 52.375 15.078125 C 50.8125 16.128906 49.023438 16.816406 47.015625 17.140625 C 45.015625 17.472656 42.875 17.53125 40.59375 17.3125 C 38.320312 17.101562 36.234375 16.695312 34.328125 16.09375 Z M 34.328125 16.09375 "/></g></g></g><g fill="#315f92" fill-opacity="1"><g transform="translate(630.627437, 390.867846)"><g><path d="M 68.90625 3.4375 C 67.570312 6.375 65.328125 8.828125 62.171875 10.796875 C 59.023438 12.773438 55.539062 14.226562 51.71875 15.15625 C 47.90625 16.082031 44.085938 16.484375 40.265625 16.359375 C 36.453125 16.242188 33.203125 15.578125 30.515625 14.359375 C 25.921875 12.265625 22.34375 9.25 19.78125 5.3125 C 17.226562 1.382812 15.546875 -2.90625 14.734375 -7.5625 C 13.929688 -12.226562 13.878906 -16.988281 14.578125 -21.84375 C 15.273438 -26.707031 16.550781 -31.179688 18.40625 -35.265625 C 20.382812 -39.585938 23.101562 -43.941406 26.5625 -48.328125 C 30.019531 -52.722656 33.929688 -56.4375 38.296875 -59.46875 C 42.660156 -62.507812 47.359375 -64.554688 52.390625 -65.609375 C 57.429688 -66.660156 62.550781 -66.003906 67.75 -63.640625 C 70.695312 -62.304688 73.285156 -60.53125 75.515625 -58.3125 C 77.753906 -56.09375 79.453125 -53.617188 80.609375 -50.890625 C 81.765625 -48.171875 82.375 -45.273438 82.4375 -42.203125 C 82.507812 -39.128906 81.835938 -36.035156 80.421875 -32.921875 C 78.566406 -28.847656 75.96875 -25.425781 72.625 -22.65625 C 69.28125 -19.894531 65.582031 -17.863281 61.53125 -16.5625 C 57.476562 -15.257812 53.222656 -14.65625 48.765625 -14.75 C 44.316406 -14.851562 40.109375 -15.703125 36.140625 -17.296875 C 35.335938 -14.628906 35.523438 -12.34375 36.703125 -10.4375 C 37.878906 -8.539062 39.640625 -7.0625 41.984375 -6 C 43.703125 -5.207031 45.582031 -4.867188 47.625 -4.984375 C 49.675781 -5.109375 51.722656 -5.359375 53.765625 -5.734375 C 55.816406 -6.109375 57.800781 -6.378906 59.71875 -6.546875 C 61.632812 -6.722656 63.375 -6.457031 64.9375 -5.75 C 66.65625 -4.96875 67.953125 -3.691406 68.828125 -1.921875 C 69.710938 -0.160156 69.738281 1.625 68.90625 3.4375 Z M 62.34375 -38 C 62.863281 -39.132812 63.097656 -40.445312 63.046875 -41.9375 C 62.992188 -43.425781 62.316406 -44.46875 61.015625 -45.0625 C 59.109375 -45.925781 57.273438 -46.15625 55.515625 -45.75 C 53.765625 -45.351562 52.109375 -44.585938 50.546875 -43.453125 C 48.992188 -42.328125 47.582031 -41.003906 46.3125 -39.484375 C 45.039062 -37.972656 44.03125 -36.503906 43.28125 -35.078125 C 44.601562 -34.785156 46.207031 -34.46875 48.09375 -34.125 C 49.976562 -33.789062 51.847656 -33.648438 53.703125 -33.703125 C 55.566406 -33.753906 57.296875 -34.09375 58.890625 -34.71875 C 60.484375 -35.351562 61.632812 -36.445312 62.34375 -38 Z M 90.640625 -80.859375 C 90.210938 -79.910156 89.53125 -79.097656 88.59375 -78.421875 C 87.65625 -77.742188 86.640625 -77.179688 85.546875 -76.734375 C 84.453125 -76.296875 83.320312 -75.945312 82.15625 -75.6875 C 81 -75.425781 79.953125 -75.195312 79.015625 -75 C 78.210938 -74.832031 77.316406 -74.632812 76.328125 -74.40625 C 75.335938 -74.1875 74.316406 -74.023438 73.265625 -73.921875 C 72.222656 -73.828125 71.210938 -73.789062 70.234375 -73.8125 C 69.265625 -73.832031 68.382812 -74.023438 67.59375 -74.390625 C 66.90625 -74.703125 66.390625 -75.171875 66.046875 -75.796875 C 65.703125 -76.429688 65.707031 -77.140625 66.0625 -77.921875 C 66.65625 -79.210938 67.875 -80.5625 69.71875 -81.96875 C 71.570312 -83.382812 73.640625 -84.640625 75.921875 -85.734375 C 78.203125 -86.835938 80.453125 -87.644531 82.671875 -88.15625 C 84.890625 -88.664062 86.691406 -88.601562 88.078125 -87.96875 C 89.285156 -87.414062 90.160156 -86.414062 90.703125 -84.96875 C 91.253906 -83.519531 91.234375 -82.148438 90.640625 -80.859375 Z M 90.640625 -80.859375 "/></g></g></g><g fill="#315f92" fill-opacity="1"><g transform="translate(286.443015, 232.433742)"><g><path d="M 41.546875 -96.9375 C 43.941406 -90.8125 44.675781 -84.753906 43.75 -78.765625 C 42.820312 -72.773438 40.734375 -66.992188 37.484375 -61.421875 C 39.722656 -59.859375 42.148438 -57.953125 44.765625 -55.703125 C 47.390625 -53.460938 49.914062 -51 52.34375 -48.3125 C 54.78125 -45.632812 56.988281 -42.867188 58.96875 -40.015625 C 60.957031 -37.160156 62.472656 -34.398438 63.515625 -31.734375 C 64.628906 -28.898438 64.9375 -26.082031 64.4375 -23.28125 C 63.945312 -20.488281 62.0625 -18.453125 58.78125 -17.171875 C 56.019531 -16.097656 53.125 -16.5 50.09375 -18.375 C 47.070312 -20.25 44.0625 -22.722656 41.0625 -25.796875 C 38.070312 -28.867188 35.1875 -32.0625 32.40625 -35.375 C 29.632812 -38.6875 27.21875 -41.269531 25.15625 -43.125 C 23.769531 -41.96875 22.453125 -40.757812 21.203125 -39.5 C 19.960938 -38.25 18.664062 -37 17.3125 -35.75 C 17.988281 -33.769531 18.878906 -31.023438 19.984375 -27.515625 C 21.097656 -24.015625 21.9375 -20.429688 22.5 -16.765625 C 23.0625 -13.109375 23.078125 -9.742188 22.546875 -6.671875 C 22.015625 -3.597656 20.414062 -1.539062 17.75 -0.5 C 14.820312 0.644531 12.09375 0.332031 9.5625 -1.4375 C 7.03125 -3.207031 4.789062 -5.601562 2.84375 -8.625 C 0.894531 -11.644531 -0.789062 -14.84375 -2.21875 -18.21875 C -3.644531 -21.601562 -4.738281 -24.269531 -5.5 -26.21875 C -7.132812 -30.382812 -8.648438 -34.519531 -10.046875 -38.625 C -11.453125 -42.738281 -12.96875 -46.882812 -14.59375 -51.0625 C -16.082031 -54.875 -17.640625 -58.660156 -19.265625 -62.421875 C -20.890625 -66.179688 -22.460938 -70.007812 -23.984375 -73.90625 C -24.335938 -74.800781 -24.78125 -75.929688 -25.3125 -77.296875 C -25.851562 -78.671875 -26.34375 -80.113281 -26.78125 -81.625 C -27.226562 -83.144531 -27.617188 -84.601562 -27.953125 -86 C -28.296875 -87.40625 -28.410156 -88.59375 -28.296875 -89.5625 C -28.128906 -91.78125 -26.800781 -94.34375 -24.3125 -97.25 C -21.820312 -100.164062 -18.941406 -103.003906 -15.671875 -105.765625 C -12.398438 -108.523438 -9.117188 -110.984375 -5.828125 -113.140625 C -2.535156 -115.304688 0 -116.734375 1.78125 -117.421875 C 6.3125 -119.203125 10.632812 -119.921875 14.75 -119.578125 C 18.863281 -119.242188 22.632812 -118.085938 26.0625 -116.109375 C 29.5 -114.128906 32.53125 -111.476562 35.15625 -108.15625 C 37.789062 -104.84375 39.921875 -101.101562 41.546875 -96.9375 Z M 17.65625 -85.4375 C 16.75 -87.75 15.53125 -89.296875 14 -90.078125 C 12.46875 -90.859375 10.503906 -90.78125 8.109375 -89.84375 C 6.328125 -89.144531 4.648438 -88.128906 3.078125 -86.796875 C 1.515625 -85.472656 0.132812 -84.113281 -1.0625 -82.71875 C 2.03125 -75.851562 4.890625 -68.941406 7.515625 -61.984375 C 9.140625 -63.335938 10.734375 -64.882812 12.296875 -66.625 C 13.859375 -68.363281 15.179688 -70.265625 16.265625 -72.328125 C 17.359375 -74.390625 18.085938 -76.515625 18.453125 -78.703125 C 18.828125 -80.890625 18.5625 -83.132812 17.65625 -85.4375 Z M 17.65625 -85.4375 "/></g></g></g><g fill="#315f92" fill-opacity="1"><g transform="translate(349.595031, 207.565907)"><g><path d="M 31.546875 -3.0625 C 26.816406 -1.96875 22.394531 -2.265625 18.28125 -3.953125 C 14.175781 -5.640625 10.46875 -8.148438 7.15625 -11.484375 C 3.84375 -14.828125 1.03125 -18.742188 -1.28125 -23.234375 C -3.601562 -27.734375 -5.300781 -32.300781 -6.375 -36.9375 C -7.519531 -41.863281 -8.09375 -47.085938 -8.09375 -52.609375 C -8.101562 -58.128906 -7.351562 -63.332031 -5.84375 -68.21875 C -4.332031 -73.113281 -1.945312 -77.382812 1.3125 -81.03125 C 4.570312 -84.675781 8.890625 -87.117188 14.265625 -88.359375 C 19.460938 -89.566406 24.21875 -89.175781 28.53125 -87.1875 C 32.851562 -85.207031 36.617188 -82.363281 39.828125 -78.65625 C 43.035156 -74.957031 45.679688 -70.710938 47.765625 -65.921875 C 49.859375 -61.128906 51.28125 -56.472656 52.03125 -51.953125 C 52.894531 -46.960938 53.28125 -41.816406 53.1875 -36.515625 C 53.101562 -31.222656 52.316406 -26.300781 50.828125 -21.75 C 49.335938 -17.207031 47.023438 -13.253906 43.890625 -9.890625 C 40.765625 -6.523438 36.648438 -4.25 31.546875 -3.0625 Z M 18.375 -66.28125 C 16.976562 -65.957031 15.914062 -64.929688 15.1875 -63.203125 C 14.457031 -61.472656 13.992188 -59.457031 13.796875 -57.15625 C 13.597656 -54.851562 13.585938 -52.476562 13.765625 -50.03125 C 13.941406 -47.59375 14.234375 -45.488281 14.640625 -43.71875 C 15.160156 -41.5 15.925781 -39.140625 16.9375 -36.640625 C 17.957031 -34.140625 19.09375 -31.882812 20.34375 -29.875 C 21.59375 -27.863281 22.914062 -26.257812 24.3125 -25.0625 C 25.71875 -23.875 27.113281 -23.441406 28.5 -23.765625 C 29.976562 -24.109375 31.09375 -25.097656 31.84375 -26.734375 C 32.59375 -28.378906 33.046875 -30.34375 33.203125 -32.625 C 33.359375 -34.914062 33.273438 -37.363281 32.953125 -39.96875 C 32.640625 -42.582031 32.222656 -45.007812 31.703125 -47.25 C 31.234375 -49.289062 30.53125 -51.492188 29.59375 -53.859375 C 28.65625 -56.222656 27.585938 -58.390625 26.390625 -60.359375 C 25.203125 -62.335938 23.914062 -63.898438 22.53125 -65.046875 C 21.144531 -66.191406 19.757812 -66.601562 18.375 -66.28125 Z M 18.375 -66.28125 "/></g></g></g><g fill="#315f92" fill-opacity="1"><g transform="translate(406.711837, 193.624683)"><g><path d="M 63.078125 -46.46875 C 63.535156 -41.25 63.460938 -36.035156 62.859375 -30.828125 C 62.265625 -25.617188 60.90625 -20.890625 58.78125 -16.640625 C 56.664062 -12.390625 53.648438 -8.847656 49.734375 -6.015625 C 45.828125 -3.191406 40.789062 -1.515625 34.625 -0.984375 C 28.539062 -0.453125 23.351562 -1.222656 19.0625 -3.296875 C 14.78125 -5.367188 11.257812 -8.289062 8.5 -12.0625 C 5.738281 -15.832031 3.640625 -20.1875 2.203125 -25.125 C 0.765625 -30.070312 -0.175781 -35.15625 -0.625 -40.375 C -1.125 -46.070312 -0.945312 -51.773438 -0.09375 -57.484375 C 0.0507812 -59.023438 0.410156 -61.1875 0.984375 -63.96875 C 1.554688 -66.75 2.367188 -69.492188 3.421875 -72.203125 C 4.484375 -74.921875 5.757812 -77.300781 7.25 -79.34375 C 8.75 -81.394531 10.492188 -82.503906 12.484375 -82.671875 C 14.378906 -82.835938 15.941406 -82.445312 17.171875 -81.5 C 18.398438 -80.550781 19.410156 -79.320312 20.203125 -77.8125 C 21.003906 -76.300781 21.578125 -74.675781 21.921875 -72.9375 C 22.265625 -71.207031 22.492188 -69.628906 22.609375 -68.203125 C 22.804688 -66.023438 22.828125 -63.875 22.671875 -61.75 C 22.515625 -59.632812 22.347656 -57.515625 22.171875 -55.390625 C 22.023438 -52.515625 21.910156 -49.640625 21.828125 -46.765625 C 21.742188 -43.890625 21.820312 -41.03125 22.0625 -38.1875 C 22.1875 -36.769531 22.394531 -35.1875 22.6875 -33.4375 C 22.988281 -31.695312 23.488281 -30.039062 24.1875 -28.46875 C 24.894531 -26.90625 25.820312 -25.625 26.96875 -24.625 C 28.113281 -23.632812 29.628906 -23.222656 31.515625 -23.390625 C 33.984375 -23.597656 35.894531 -24.429688 37.25 -25.890625 C 38.601562 -27.347656 39.550781 -29.101562 40.09375 -31.15625 C 40.644531 -33.207031 40.910156 -35.378906 40.890625 -37.671875 C 40.878906 -39.960938 40.796875 -42.054688 40.640625 -43.953125 C 40.273438 -48.128906 39.632812 -52.207031 38.71875 -56.1875 C 37.800781 -60.175781 36.925781 -64.234375 36.09375 -68.359375 C 35.957031 -68.828125 35.851562 -69.488281 35.78125 -70.34375 C 35.65625 -71.757812 35.765625 -73.195312 36.109375 -74.65625 C 36.460938 -76.125 37.015625 -77.46875 37.765625 -78.6875 C 38.523438 -79.914062 39.488281 -80.9375 40.65625 -81.75 C 41.832031 -82.5625 43.1875 -83.035156 44.71875 -83.171875 C 46.800781 -83.347656 48.710938 -82.769531 50.453125 -81.4375 C 52.191406 -80.101562 53.707031 -78.320312 55 -76.09375 C 56.289062 -73.863281 57.414062 -71.332031 58.375 -68.5 C 59.332031 -65.675781 60.144531 -62.878906 60.8125 -60.109375 C 61.476562 -57.347656 61.988281 -54.738281 62.34375 -52.28125 C 62.707031 -49.832031 62.953125 -47.894531 63.078125 -46.46875 Z M 63.078125 -46.46875 "/></g></g></g><g fill="#315f92" fill-opacity="1"><g transform="translate(471.581993, 188.137911)"><g><path d="M 37.3125 6.796875 C 30.550781 6.492188 25.328125 5.378906 21.640625 3.453125 C 17.960938 1.535156 15.269531 -1.078125 13.5625 -4.390625 C 11.851562 -7.710938 10.90625 -11.664062 10.71875 -16.25 C 10.53125 -20.84375 10.5625 -25.941406 10.8125 -31.546875 C 11.007812 -36.023438 11.347656 -40.515625 11.828125 -45.015625 C 12.316406 -49.523438 12.960938 -54.335938 13.765625 -59.453125 C 12.429688 -59.503906 11.382812 -59.523438 10.625 -59.515625 C 9.875 -59.503906 9.257812 -59.507812 8.78125 -59.53125 C 5.738281 -59.664062 3.125 -60.445312 0.9375 -61.875 C -1.238281 -63.300781 -2.265625 -65.394531 -2.140625 -68.15625 C -2.066406 -69.863281 -1.359375 -71.351562 -0.015625 -72.625 C 1.328125 -73.90625 3.019531 -74.976562 5.0625 -75.84375 C 7.101562 -76.707031 9.300781 -77.375 11.65625 -77.84375 C 14.007812 -78.3125 16.238281 -78.59375 18.34375 -78.6875 C 18.457031 -81.351562 18.773438 -84.296875 19.296875 -87.515625 C 19.828125 -90.734375 20.648438 -93.722656 21.765625 -96.484375 C 22.890625 -99.242188 24.347656 -101.535156 26.140625 -103.359375 C 27.941406 -105.191406 30.175781 -106.050781 32.84375 -105.9375 C 34.363281 -105.863281 35.695312 -105.347656 36.84375 -104.390625 C 38 -103.429688 38.925781 -102.25 39.625 -100.84375 C 40.320312 -99.4375 40.820312 -97.863281 41.125 -96.125 C 41.4375 -94.394531 41.554688 -92.722656 41.484375 -91.109375 C 41.398438 -89.203125 41.171875 -87.257812 40.796875 -85.28125 C 40.429688 -83.300781 39.796875 -80.847656 38.890625 -77.921875 C 40.523438 -78.046875 41.628906 -78.117188 42.203125 -78.140625 C 42.773438 -78.160156 43.296875 -78.160156 43.765625 -78.140625 C 45.390625 -78.078125 47.070312 -77.863281 48.8125 -77.5 C 50.5625 -77.132812 52.160156 -76.582031 53.609375 -75.84375 C 55.054688 -75.113281 56.226562 -74.179688 57.125 -73.046875 C 58.03125 -71.910156 58.453125 -70.582031 58.390625 -69.0625 C 58.316406 -67.351562 57.554688 -65.863281 56.109375 -64.59375 C 54.671875 -63.320312 52.882812 -62.253906 50.75 -61.390625 C 48.613281 -60.523438 46.347656 -59.882812 43.953125 -59.46875 C 41.554688 -59.050781 39.304688 -58.789062 37.203125 -58.6875 C 36.453125 -54.820312 35.882812 -51.25 35.5 -47.96875 C 35.125 -44.695312 34.722656 -41.40625 34.296875 -38.09375 C 34.023438 -36.488281 33.78125 -34.851562 33.5625 -33.1875 C 33.351562 -31.53125 33.207031 -29.847656 33.125 -28.140625 C 33.070312 -26.898438 33.054688 -25.445312 33.078125 -23.78125 C 33.097656 -22.113281 33.359375 -20.503906 33.859375 -18.953125 C 34.367188 -17.410156 35.21875 -16.0625 36.40625 -14.90625 C 37.59375 -13.757812 39.28125 -13.140625 41.46875 -13.046875 C 42.800781 -12.984375 44.1875 -13.039062 45.625 -13.21875 C 47.0625 -13.394531 48.492188 -13.453125 49.921875 -13.390625 C 52.398438 -13.285156 54.144531 -12.347656 55.15625 -10.578125 C 56.164062 -8.804688 56.613281 -6.59375 56.5 -3.9375 C 56.414062 -1.9375 55.75 -0.226562 54.5 1.1875 C 53.25 2.613281 51.695312 3.738281 49.84375 4.5625 C 48 5.382812 45.945312 5.984375 43.6875 6.359375 C 41.425781 6.734375 39.300781 6.878906 37.3125 6.796875 Z M 37.3125 6.796875 "/></g></g></g><g fill="#315f92" fill-opacity="1"><g transform="translate(521.983563, 190.622477)"><g><path d="M 41.21875 -94.984375 C 41.03125 -93.660156 40.507812 -92.523438 39.65625 -91.578125 C 38.8125 -90.628906 37.765625 -89.832031 36.515625 -89.1875 C 35.273438 -88.550781 33.960938 -88.109375 32.578125 -87.859375 C 31.203125 -87.617188 29.953125 -87.578125 28.828125 -87.734375 C 26.941406 -87.992188 25.351562 -88.695312 24.0625 -89.84375 C 22.769531 -90.988281 22.257812 -92.550781 22.53125 -94.53125 C 22.726562 -95.945312 23.257812 -97.144531 24.125 -98.125 C 24.988281 -99.113281 25.984375 -99.882812 27.109375 -100.4375 C 28.242188 -101 29.5 -101.378906 30.875 -101.578125 C 32.25 -101.773438 33.550781 -101.789062 34.78125 -101.625 C 36.5625 -101.382812 38.148438 -100.734375 39.546875 -99.671875 C 40.941406 -98.617188 41.5 -97.054688 41.21875 -94.984375 Z M 35.71875 -46.703125 C 35.539062 -45.378906 35.347656 -43.988281 35.140625 -42.53125 C 34.941406 -41.070312 34.703125 -39.6875 34.421875 -38.375 C 34.109375 -36.78125 33.765625 -34.640625 33.390625 -31.953125 C 33.023438 -29.265625 32.53125 -26.375 31.90625 -23.28125 C 31.289062 -20.195312 30.550781 -17.078125 29.6875 -13.921875 C 28.820312 -10.773438 27.734375 -7.945312 26.421875 -5.4375 C 25.117188 -2.925781 23.570312 -0.953125 21.78125 0.484375 C 19.988281 1.921875 17.914062 2.519531 15.5625 2.28125 C 13.75 2.132812 12.328125 1.222656 11.296875 -0.453125 C 10.273438 -2.128906 9.53125 -4.226562 9.0625 -6.75 C 8.601562 -9.269531 8.390625 -12.039062 8.421875 -15.0625 C 8.460938 -18.09375 8.578125 -21.007812 8.765625 -23.8125 C 8.953125 -26.625 9.207031 -29.207031 9.53125 -31.5625 C 9.863281 -33.914062 10.109375 -35.660156 10.265625 -36.796875 C 10.472656 -38.304688 10.765625 -40.453125 11.140625 -43.234375 C 11.523438 -46.015625 12.035156 -48.992188 12.671875 -52.171875 C 13.304688 -55.359375 14.109375 -58.566406 15.078125 -61.796875 C 16.054688 -65.023438 17.226562 -67.9375 18.59375 -70.53125 C 19.957031 -73.132812 21.554688 -75.175781 23.390625 -76.65625 C 25.234375 -78.144531 27.382812 -78.71875 29.84375 -78.375 C 32.382812 -78.019531 34.140625 -76.476562 35.109375 -73.75 C 36.085938 -71.019531 36.671875 -67.910156 36.859375 -64.421875 C 37.054688 -60.941406 36.96875 -57.519531 36.59375 -54.15625 C 36.226562 -50.789062 35.9375 -48.304688 35.71875 -46.703125 Z M 35.71875 -46.703125 "/></g></g></g><g fill="#315f92" fill-opacity="1"><g transform="translate(551.737203, 193.551992)"><g><path d="M 42.5625 14.703125 C 40.988281 14.304688 39.914062 13.28125 39.34375 11.625 C 38.78125 9.96875 38.5 8.15625 38.5 6.1875 C 38.5 4.226562 38.664062 2.285156 39 0.359375 C 39.332031 -1.566406 39.628906 -3.039062 39.890625 -4.0625 C 40.578125 -6.832031 41.425781 -9.5625 42.4375 -12.25 C 43.445312 -14.945312 44.503906 -17.628906 45.609375 -20.296875 C 46.710938 -22.972656 47.769531 -25.65625 48.78125 -28.34375 C 49.789062 -31.039062 50.640625 -33.773438 51.328125 -36.546875 C 51.609375 -37.648438 51.863281 -38.859375 52.09375 -40.171875 C 52.320312 -41.492188 52.421875 -42.769531 52.390625 -44 C 52.359375 -45.238281 52.0625 -46.320312 51.5 -47.25 C 50.9375 -48.175781 50.0625 -48.785156 48.875 -49.078125 C 48.03125 -49.285156 46.929688 -48.84375 45.578125 -47.75 C 44.234375 -46.664062 42.90625 -45.378906 41.59375 -43.890625 C 40.289062 -42.398438 39.128906 -40.875 38.109375 -39.3125 C 37.097656 -37.75 36.488281 -36.550781 36.28125 -35.71875 C 35.769531 -33.6875 35.273438 -31.625 34.796875 -29.53125 C 34.328125 -27.445312 33.828125 -25.34375 33.296875 -23.21875 L 31.296875 -15.171875 C 30.804688 -13.535156 30.25 -11.859375 29.625 -10.140625 C 29 -8.429688 28.289062 -6.796875 27.5 -5.234375 C 26.8125 -3.640625 26 -2.144531 25.0625 -0.75 C 24.125 0.632812 23.070312 1.796875 21.90625 2.734375 C 20.75 3.671875 19.476562 4.351562 18.09375 4.78125 C 16.707031 5.21875 15.179688 5.234375 13.515625 4.828125 C 11.660156 4.359375 10.28125 3.375 9.375 1.875 C 8.476562 0.382812 7.894531 -1.394531 7.625 -3.46875 C 7.363281 -5.550781 7.363281 -7.8125 7.625 -10.25 C 7.882812 -12.6875 8.222656 -15.050781 8.640625 -17.34375 C 9.066406 -19.644531 9.539062 -21.734375 10.0625 -23.609375 C 10.582031 -25.492188 10.976562 -26.992188 11.25 -28.109375 L 12.875 -34.640625 C 13.75 -38.140625 14.539062 -41.617188 15.25 -45.078125 C 15.96875 -48.535156 16.753906 -51.972656 17.609375 -55.390625 C 18.066406 -57.242188 18.675781 -59.59375 19.4375 -62.4375 C 20.195312 -65.289062 21.238281 -68 22.5625 -70.5625 C 23.882812 -73.125 25.523438 -75.191406 27.484375 -76.765625 C 29.441406 -78.347656 31.859375 -78.78125 34.734375 -78.0625 C 36.023438 -77.75 37.070312 -77.046875 37.875 -75.953125 C 38.6875 -74.867188 39.335938 -73.628906 39.828125 -72.234375 C 40.316406 -70.847656 40.640625 -69.394531 40.796875 -67.875 C 40.960938 -66.351562 41.054688 -65.054688 41.078125 -63.984375 C 42.328125 -65.046875 43.722656 -66.019531 45.265625 -66.90625 C 46.816406 -67.800781 48.492188 -68.515625 50.296875 -69.046875 C 52.097656 -69.578125 54.035156 -69.875 56.109375 -69.9375 C 58.179688 -70.007812 60.46875 -69.738281 62.96875 -69.125 C 67.6875 -67.945312 71.082031 -65.898438 73.15625 -62.984375 C 75.226562 -60.066406 76.46875 -56.765625 76.875 -53.078125 C 77.28125 -49.398438 77.132812 -45.585938 76.4375 -41.640625 C 75.75 -37.691406 75.015625 -34.144531 74.234375 -31 C 73.847656 -29.425781 73.128906 -27.125 72.078125 -24.09375 C 71.035156 -21.070312 69.75 -17.765625 68.21875 -14.171875 C 66.6875 -10.578125 64.925781 -6.941406 62.9375 -3.265625 C 60.945312 0.410156 58.851562 3.691406 56.65625 6.578125 C 54.457031 9.472656 52.15625 11.695312 49.75 13.25 C 47.351562 14.8125 44.957031 15.296875 42.5625 14.703125 Z M 42.5625 14.703125 "/></g></g></g><g fill="#315f92" fill-opacity="1"><g transform="translate(611.758582, 208.113614)"><g><path d="M 69 0.328125 C 67.789062 3.328125 65.65625 5.882812 62.59375 8 C 59.539062 10.113281 56.125 11.71875 52.34375 12.8125 C 48.570312 13.90625 44.773438 14.476562 40.953125 14.53125 C 37.140625 14.582031 33.863281 14.0625 31.125 12.96875 C 26.4375 11.082031 22.726562 8.234375 20 4.421875 C 17.269531 0.609375 15.394531 -3.601562 14.375 -8.21875 C 13.363281 -12.84375 13.097656 -17.597656 13.578125 -22.484375 C 14.054688 -27.378906 15.128906 -31.90625 16.796875 -36.0625 C 18.578125 -40.476562 21.097656 -44.953125 24.359375 -49.484375 C 27.617188 -54.015625 31.359375 -57.894531 35.578125 -61.125 C 39.804688 -64.363281 44.410156 -66.625 49.390625 -67.90625 C 54.378906 -69.1875 59.519531 -68.765625 64.8125 -66.640625 C 67.820312 -65.429688 70.492188 -63.765625 72.828125 -61.640625 C 75.160156 -59.523438 76.960938 -57.132812 78.234375 -54.46875 C 79.515625 -51.800781 80.257812 -48.929688 80.46875 -45.859375 C 80.675781 -42.796875 80.144531 -39.675781 78.875 -36.5 C 77.195312 -32.34375 74.75 -28.804688 71.53125 -25.890625 C 68.3125 -22.984375 64.707031 -20.789062 60.71875 -19.3125 C 56.738281 -17.832031 52.519531 -17.039062 48.0625 -16.9375 C 43.613281 -16.832031 39.363281 -17.488281 35.3125 -18.90625 C 34.632812 -16.207031 34.925781 -13.929688 36.1875 -12.078125 C 37.457031 -10.234375 39.285156 -8.832031 41.671875 -7.875 C 43.429688 -7.164062 45.328125 -6.914062 47.359375 -7.125 C 49.398438 -7.34375 51.4375 -7.679688 53.46875 -8.140625 C 55.5 -8.609375 57.460938 -8.972656 59.359375 -9.234375 C 61.265625 -9.503906 63.015625 -9.316406 64.609375 -8.671875 C 66.367188 -7.960938 67.722656 -6.75 68.671875 -5.03125 C 69.628906 -3.3125 69.738281 -1.523438 69 0.328125 Z M 60.578125 -40.765625 C 61.046875 -41.910156 61.21875 -43.226562 61.09375 -44.71875 C 60.96875 -46.207031 60.242188 -47.21875 58.921875 -47.75 C 56.972656 -48.53125 55.128906 -48.679688 53.390625 -48.203125 C 51.660156 -47.722656 50.046875 -46.882812 48.546875 -45.6875 C 47.046875 -44.5 45.695312 -43.117188 44.5 -41.546875 C 43.300781 -39.972656 42.351562 -38.457031 41.65625 -37 C 43 -36.757812 44.617188 -36.515625 46.515625 -36.265625 C 48.421875 -36.015625 50.296875 -35.953125 52.140625 -36.078125 C 53.984375 -36.210938 55.691406 -36.628906 57.265625 -37.328125 C 58.835938 -38.035156 59.941406 -39.179688 60.578125 -40.765625 Z M 60.578125 -40.765625 "/></g></g></g></svg>